Varta-Light.ufo
<glyph name="numbersign" format="1">
  <advance width="1003"/>
  <unicode hex="0023"/>
  <outline>
    <contour>
      <point x="186" y="0" type="line"/>
      <point x="281" y="0" type="line"/>
      <point x="333" y="426" type="line"/>
      <point x="618" y="426" type="line"/>
      <point x="568" y="0" type="line"/>
      <point x="662" y="0" type="line"/>
      <point x="713" y="426" type="line"/>
      <point x="900" y="426" type="line"/>
      <point x="900" y="526" type="line"/>
      <point x="725" y="526" type="line"/>
      <point x="764" y="847" type="line"/>
      <point x="941" y="847" type="line"/>
      <point x="941" y="947" type="line"/>
      <point x="775" y="947" type="line"/>
      <point x="825" y="1331" type="line"/>
      <point x="732" y="1331" type="line"/>
      <point x="681" y="947" type="line"/>
      <point x="396" y="947" type="line"/>
      <point x="444" y="1331" type="line"/>
      <point x="350" y="1331" type="line"/>
      <point x="302" y="947" type="line"/>
      <point x="114" y="947" type="line"/>
      <point x="114" y="847" type="line"/>
      <point x="290" y="847" type="line"/>
      <point x="251" y="526" type="line"/>
      <point x="73" y="526" type="line"/>
      <point x="73" y="426" type="line"/>
      <point x="239" y="426" type="line"/>
    </contour>
    <contour>
      <point x="345" y="526" type="line"/>
      <point x="385" y="847" type="line"/>
      <point x="670" y="847" type="line"/>
      <point x="631" y="526" type="line"/>
    </contour>
  </outline>
</glyph>
<glyph name="asterisk" format="1">
  <advance width="837"/>
  <unicode hex="002A"/>
  <outline>
    <contour>
      <point x="278" y="895" type="line" name="hr00"/>
      <point x="419" y="1069" type="line"/>
      <point x="558" y="895" type="line"/>
      <point x="628" y="947" type="line"/>
      <point x="515" y="1135" type="line"/>
      <point x="708" y="1213" type="line"/>
      <point x="682" y="1294" type="line"/>
      <point x="478" y="1244" type="line"/>
      <point x="460" y="1458" type="line"/>
      <point x="375" y="1458" type="line"/>
      <point x="357" y="1242" type="line"/>
      <point x="155" y="1294" type="line"/>
      <point x="129" y="1213" type="line"/>
      <point x="322" y="1135" type="line"/>
      <point x="207" y="947" type="line"/>
    </contour>
  </outline>
</glyph>
<glyph name="comma" format="1">
  <advance width="485"/>
  <unicode hex="002C"/>
  <outline>
    <contour>
      <point x="133" y="-353" type="line" name="hr01"/>
      <point x="281" y="-285"/>
      <point x="378" y="-138"/>
      <point x="378" y="27" type="curve" smooth="yes"/>
      <point x="378" y="137"/>
      <point x="329" y="204"/>
      <point x="251" y="204" type="curve" smooth="yes" name="hr02"/>
      <point x="193" y="204"/>
      <point x="141" y="165"/>
      <point x="141" y="99" type="curve" smooth="yes"/>
      <point x="141" y="31"/>
      <point x="190" y="-5"/>
      <point x="248" y="-5" type="curve" smooth="yes" name="hr03"/>
      <point x="255" y="-5"/>
      <point x="263" y="-5"/>
      <point x="271" y="-3" type="curve"/>
      <point x="270" y="-115"/>
      <point x="201" y="-224"/>
      <point x="96" y="-274" type="curve"/>
    </contour>
  </outline>
</glyph>
<glyph name="zero" format="1">
  <advance width="1003"/>
  <unicode hex="0030"/>
  <outline>
    <contour>
      <point x="501" y="-25" type="curve" smooth="yes"/>
      <point x="763" y="-25"/>
      <point x="909" y="244"/>
      <point x="909" y="686" type="curve" smooth="yes"/>
      <point x="909" y="1128"/>
      <point x="763" y="1370"/>
      <point x="501" y="1370" type="curve" smooth="yes"/>
      <point x="238" y="1370"/>
      <point x="93" y="1128"/>
      <point x="93" y="686" type="curve" smooth="yes"/>
      <point x="93" y="244"/>
      <point x="238" y="-25"/>
    </contour>
    <contour>
      <point x="501" y="87" type="curve" smooth="yes"/>
      <point x="333" y="87"/>
      <point x="228" y="292"/>
      <point x="228" y="686" type="curve" smooth="yes"/>
      <point x="228" y="1080"/>
      <point x="333" y="1259"/>
      <point x="501" y="1259" type="curve" smooth="yes"/>
      <point x="670" y="1259"/>
      <point x="774" y="1080"/>
      <point x="774" y="686" type="curve" smooth="yes"/>
      <point x="774" y="292"/>
      <point x="670" y="87"/>
    </contour>
  </outline>
</glyph>
<glyph name="four" format="1">
  <advance width="1003"/>
  <unicode hex="0034"/>
  <outline>
    <contour>
      <point x="184" y="485" type="line"/>
      <point x="522" y="1012" type="line"/>
      <point x="559" y="1074"/>
      <point x="596" y="1127"/>
      <point x="629" y="1188" type="curve"/>
      <point x="637" y="1188" type="line"/>
      <point x="633" y="1122"/>
      <point x="628" y="1012"/>
      <point x="628" y="946" type="curve" smooth="yes"/>
      <point x="628" y="485" type="line"/>
    </contour>
    <contour>
      <point x="943" y="485" type="line"/>
      <point x="758" y="485" type="line"/>
      <point x="758" y="1350" type="line"/>
      <point x="613" y="1350" type="line"/>
      <point x="34" y="460" type="line"/>
      <point x="34" y="373" type="line"/>
      <point x="628" y="373" type="line"/>
      <point x="628" y="0" type="line"/>
      <point x="758" y="0" type="line"/>
      <point x="758" y="373" type="line"/>
      <point x="943" y="373" type="line"/>
    </contour>
  </outline>
</glyph>
<glyph name="question" format="1">
  <advance width="851"/>
  <unicode hex="003F"/>
  <outline>
    <contour>
      <point x="330" y="390" type="curve"/>
      <point x="451" y="390" type="line"/>
      <point x="411" y="695"/>
      <point x="751" y="778"/>
      <point x="751" y="1075" type="curve" smooth="yes"/>
      <point x="751" y="1282"/>
      <point x="626" y="1397"/>
      <point x="412" y="1397" type="curve" smooth="yes"/>
      <point x="274" y="1397"/>
      <point x="156" y="1332"/>
      <point x="72" y="1238" type="curve"/>
      <point x="152" y="1159" type="line"/>
      <point x="217" y="1236"/>
      <point x="303" y="1280"/>
      <point x="401" y="1280" type="curve" smooth="yes"/>
      <point x="549" y="1280"/>
      <point x="616" y="1200"/>
      <point x="616" y="1069" type="curve" smooth="yes"/>
      <point x="616" y="811"/>
      <point x="284" y="732"/>
    </contour>
    <contour>
      <point x="289" y="88" type="curve" smooth="yes"/>
      <point x="289" y="21"/>
      <point x="337" y="-25"/>
      <point x="396" y="-25" type="curve" smooth="yes"/>
      <point x="454" y="-25"/>
      <point x="504" y="21"/>
      <point x="504" y="88" type="curve" smooth="yes"/>
      <point x="504" y="158"/>
      <point x="454" y="204"/>
      <point x="396" y="204" type="curve" smooth="yes"/>
      <point x="337" y="204"/>
      <point x="289" y="158"/>
    </contour>
  </outline>
</glyph>
<glyph name="D" format="1">
  <advance width="1242"/>
  <unicode hex="0044"/>
  <outline>
    <contour>
      <point x="184" y="0" type="line"/>
      <point x="518" y="0" type="line"/>
      <point x="928" y="0"/>
      <point x="1136" y="252"/>
      <point x="1136" y="679" type="curve" smooth="yes"/>
      <point x="1136" y="1104"/>
      <point x="934" y="1346"/>
      <point x="519" y="1346" type="curve" smooth="yes"/>
      <point x="184" y="1346" type="line"/>
    </contour>
    <contour>
      <point x="324" y="115" type="line"/>
      <point x="324" y="1231" type="line"/>
      <point x="508" y="1231" type="line"/>
      <point x="843" y="1231"/>
      <point x="992" y="1028"/>
      <point x="992" y="679" type="curve" smooth="yes"/>
      <point x="992" y="330"/>
      <point x="838" y="115"/>
      <point x="502" y="115" type="curve" smooth="yes"/>
    </contour>
    <contour>
      <point x="559" y="1050" type="move" name="top"/>
    </contour>
  </outline>
</glyph>
<glyph name="E" format="1">
  <advance width="1056"/>
  <unicode hex="0045"/>
  <outline>
    <contour>
      <point x="184" y="0" type="line"/>
      <point x="964" y="0" type="line"/>
      <point x="964" y="119" type="line"/>
      <point x="324" y="119" type="line"/>
      <point x="324" y="651" type="line"/>
      <point x="845" y="651" type="line"/>
      <point x="845" y="770" type="line"/>
      <point x="324" y="770" type="line"/>
      <point x="324" y="1228" type="line"/>
      <point x="943" y="1228" type="line"/>
      <point x="943" y="1346" type="line"/>
      <point x="184" y="1346" type="line"/>
    </contour>
    <contour>
      <point x="574" y="1050" type="move" name="top"/>
    </contour>
  </outline>
</glyph>
<glyph name="F" format="1">
  <advance width="985"/>
  <unicode hex="0046"/>
  <outline>
    <contour>
      <point x="184" y="0" type="line"/>
      <point x="324" y="0" type="line"/>
      <point x="324" y="621" type="line"/>
      <point x="848" y="621" type="line"/>
      <point x="848" y="739" type="line"/>
      <point x="324" y="739" type="line"/>
      <point x="324" y="1228" type="line"/>
      <point x="943" y="1228" type="line"/>
      <point x="943" y="1346" type="line"/>
      <point x="184" y="1346" type="line"/>
    </contour>
    <contour>
      <point x="563" y="1050" type="move" name="top"/>
    </contour>
  </outline>
</glyph>
<glyph name="H" format="1">
  <advance width="1312"/>
  <unicode hex="0048"/>
  <outline>
    <contour>
      <point x="184" y="0" type="line"/>
      <point x="324" y="0" type="line"/>
      <point x="324" y="651" type="line"/>
      <point x="989" y="651" type="line"/>
      <point x="989" y="0" type="line"/>
      <point x="1127" y="0" type="line"/>
      <point x="1127" y="1346" type="line"/>
      <point x="989" y="1346" type="line"/>
      <point x="989" y="771" type="line"/>
      <point x="324" y="771" type="line"/>
      <point x="324" y="1346" type="line"/>
      <point x="184" y="1346" type="line"/>
    </contour>
    <contour>
      <point x="655" y="1050" type="move" name="top"/>
    </contour>
  </outline>
</glyph>
<glyph name="J" format="1">
  <advance width="955"/>
  <unicode hex="004A"/>
  <outline>
    <contour>
      <point x="66" y="183" type="line" name="hr00"/>
      <point x="140" y="48"/>
      <point x="260" y="-25"/>
      <point x="422" y="-25" type="curve" smooth="yes"/>
      <point x="678" y="-25"/>
      <point x="777" y="152"/>
      <point x="777" y="378" type="curve" smooth="yes"/>
      <point x="777" y="1346" type="line"/>
      <point x="638" y="1346" type="line"/>
      <point x="638" y="392" type="line"/>
      <point x="638" y="181"/>
      <point x="565" y="99"/>
      <point x="413" y="99" type="curve" smooth="yes"/>
      <point x="310" y="99"/>
      <point x="231" y="144"/>
      <point x="166" y="253" type="curve"/>
    </contour>
    <contour>
      <point x="706" y="1050" type="move" name="top"/>
    </contour>
  </outline>
</glyph>
<glyph name="Q" format="1">
  <advance width="1338"/>
  <unicode hex="0051"/>
  <outline>
    <contour>
      <point x="245" y="679" type="curve" smooth="yes"/>
      <point x="245" y="1034"/>
      <point x="407" y="1247"/>
      <point x="666" y="1247" type="curve" smooth="yes"/>
      <point x="925" y="1247"/>
      <point x="1088" y="1034"/>
      <point x="1088" y="679" type="curve" smooth="yes"/>
      <point x="1088" y="322"/>
      <point x="925" y="99"/>
      <point x="666" y="99" type="curve" smooth="yes"/>
      <point x="407" y="99"/>
      <point x="245" y="322"/>
    </contour>
    <contour>
      <point x="1225" y="-189" type="line"/>
      <point x="1189" y="-199"/>
      <point x="1140" y="-209"/>
      <point x="1080" y="-209" type="curve" smooth="yes"/>
      <point x="925" y="-209"/>
      <point x="797" y="-144"/>
      <point x="747" y="-19" type="curve"/>
      <point x="1038" y="22"/>
      <point x="1235" y="278"/>
      <point x="1235" y="679" type="curve" smooth="yes"/>
      <point x="1235" y="1112"/>
      <point x="1006" y="1370"/>
      <point x="666" y="1370" type="curve" smooth="yes"/>
      <point x="327" y="1370"/>
      <point x="100" y="1114"/>
      <point x="100" y="679" type="curve" smooth="yes"/>
      <point x="100" y="274"/>
      <point x="302" y="16"/>
      <point x="595" y="-20" type="curve"/>
      <point x="663" y="-199"/>
      <point x="826" y="-328"/>
      <point x="1066" y="-328" type="curve" smooth="yes"/>
      <point x="1140" y="-328"/>
      <point x="1215" y="-313"/>
      <point x="1253" y="-301" type="curve"/>
    </contour>
    <contour>
      <point x="676" y="1050" type="move" name="top"/>
    </contour>
  </outline>
</glyph>
<glyph name="R" format="1">
  <advance width="1161"/>
  <unicode hex="0052"/>
  <outline>
    <contour>
      <point x="324" y="1232" type="line"/>
      <point x="575" y="1232" type="line"/>
      <point x="797" y="1232"/>
      <point x="909" y="1172"/>
      <point x="909" y="979" type="curve" smooth="yes"/>
      <point x="909" y="784"/>
      <point x="797" y="703"/>
      <point x="575" y="703" type="curve" smooth="yes"/>
      <point x="324" y="703" type="line"/>
    </contour>
    <contour>
      <point x="1084" y="0" type="line"/>
      <point x="736" y="603" type="line"/>
      <point x="930" y="642"/>
      <point x="1050" y="756"/>
      <point x="1050" y="979" type="curve" smooth="yes"/>
      <point x="1050" y="1255"/>
      <point x="870" y="1346"/>
      <point x="600" y="1346" type="curve" smooth="yes"/>
      <point x="184" y="1346" type="line"/>
      <point x="184" y="0" type="line"/>
      <point x="324" y="0" type="line"/>
      <point x="324" y="589" type="line"/>
      <point x="590" y="589" type="line"/>
      <point x="924" y="0" type="line"/>
    </contour>
    <contour>
      <point x="561" y="1050" type="move" name="top"/>
    </contour>
  </outline>
</glyph>
<glyph name="W" format="1">
  <advance width="1584"/>
  <unicode hex="0057"/>
  <outline>
    <contour>
      <point x="338" y="0" type="line"/>
      <point x="501" y="0" type="line"/>
      <point x="718" y="857" type="line"/>
      <point x="742" y="962"/>
      <point x="766" y="1057"/>
      <point x="788" y="1162" type="curve"/>
      <point x="796" y="1162" type="line"/>
      <point x="817" y="1057"/>
      <point x="840" y="962"/>
      <point x="863" y="857" type="curve"/>
      <point x="1084" y="0" type="line"/>
      <point x="1248" y="0" type="line"/>
      <point x="1537" y="1346" type="line"/>
      <point x="1401" y="1346" type="line"/>
      <point x="1248" y="589" type="line"/>
      <point x="1222" y="444"/>
      <point x="1195" y="299"/>
      <point x="1167" y="152" type="curve"/>
      <point x="1158" y="152" type="line"/>
      <point x="1125" y="299"/>
      <point x="1091" y="445"/>
      <point x="1058" y="589" type="curve"/>
      <point x="861" y="1346" type="line"/>
      <point x="730" y="1346" type="line"/>
      <point x="533" y="589" type="line"/>
      <point x="499" y="444"/>
      <point x="465" y="298"/>
      <point x="435" y="152" type="curve"/>
      <point x="427" y="152" type="line"/>
      <point x="399" y="298"/>
      <point x="371" y="443"/>
      <point x="341" y="589" type="curve"/>
      <point x="190" y="1346" type="line"/>
      <point x="44" y="1346" type="line"/>
    </contour>
    <contour>
      <point x="790" y="1050" type="move" name="top"/>
    </contour>
  </outline>
</glyph>
<glyph name="d" format="1">
  <advance width="1128"/>
  <unicode hex="0064"/>
  <outline>
    <contour>
      <point x="100" y="494" type="curve" smooth="yes"/>
      <point x="100" y="154"/>
      <point x="263" y="-25"/>
      <point x="510" y="-25" type="curve" smooth="yes"/>
      <point x="633" y="-25"/>
      <point x="740" y="43"/>
      <point x="819" y="121" type="curve"/>
      <point x="825" y="121" type="line"/>
      <point x="837" y="0" type="line"/>
      <point x="951" y="0" type="line"/>
      <point x="951" y="1464" type="line"/>
      <point x="814" y="1464" type="line"/>
      <point x="814" y="1072" type="line"/>
      <point x="821" y="898" type="line"/>
      <point x="728" y="971"/>
      <point x="651" y="1015"/>
      <point x="534" y="1015" type="curve" smooth="yes"/>
      <point x="298" y="1015"/>
      <point x="100" y="824"/>
    </contour>
    <contour>
      <point x="241" y="495" type="curve" smooth="yes"/>
      <point x="241" y="737"/>
      <point x="373" y="899"/>
      <point x="554" y="899" type="curve" smooth="yes"/>
      <point x="641" y="899"/>
      <point x="722" y="868"/>
      <point x="814" y="785" type="curve"/>
      <point x="814" y="239" type="line"/>
      <point x="723" y="142"/>
      <point x="636" y="92"/>
      <point x="537" y="92" type="curve" smooth="yes"/>
      <point x="343" y="92"/>
      <point x="241" y="243"/>
    </contour>
    <contour>
      <point x="333" y="1050" type="move" name="top"/>
    </contour>
  </outline>
</glyph>
<glyph name="e" format="1">
  <advance width="1005"/>
  <unicode hex="0065"/>
  <outline>
    <contour>
      <point x="98" y="494" type="curve" smooth="yes"/>
      <point x="98" y="163"/>
      <point x="307" y="-25"/>
      <point x="567" y="-25" type="curve" smooth="yes"/>
      <point x="706" y="-25"/>
      <point x="804" y="19"/>
      <point x="886" y="70" type="curve"/>
      <point x="836" y="163" type="line"/>
      <point x="762" y="114"/>
      <point x="682" y="87"/>
      <point x="583" y="87" type="curve" smooth="yes"/>
      <point x="379" y="87"/>
      <point x="244" y="235"/>
      <point x="235" y="468" type="curve"/>
      <point x="922" y="468" type="line"/>
      <point x="926" y="493"/>
      <point x="927" y="522"/>
      <point x="927" y="553" type="curve" smooth="yes"/>
      <point x="927" y="846"/>
      <point x="793" y="1016"/>
      <point x="537" y="1016" type="curve" smooth="yes"/>
      <point x="303" y="1016"/>
      <point x="98" y="823"/>
    </contour>
    <contour>
      <point x="234" y="562" type="line"/>
      <point x="253" y="779"/>
      <point x="384" y="905"/>
      <point x="541" y="905" type="curve" smooth="yes"/>
      <point x="710" y="905"/>
      <point x="805" y="791"/>
      <point x="805" y="562" type="curve"/>
    </contour>
    <contour>
      <point x="547" y="1050" type="move" name="top"/>
    </contour>
  </outline>
</glyph>
<glyph name="f" format="1">
  <advance width="574"/>
  <unicode hex="0066"/>
  <outline>
    <contour>
      <point x="627" y="1456" type="line"/>
      <point x="582" y="1475"/>
      <point x="526" y="1489"/>
      <point x="470" y="1489" type="curve" smooth="yes"/>
      <point x="290" y="1489"/>
      <point x="199" y="1375"/>
      <point x="199" y="1175" type="curve" smooth="yes"/>
      <point x="199" y="990" type="line"/>
      <point x="64" y="981" type="line"/>
      <point x="64" y="877" type="line"/>
      <point x="199" y="877" type="line"/>
      <point x="199" y="0" type="line"/>
      <point x="335" y="0" type="line"/>
      <point x="335" y="877" type="line"/>
      <point x="552" y="877" type="line"/>
      <point x="552" y="990" type="line"/>
      <point x="335" y="990" type="line"/>
      <point x="335" y="1173" type="line"/>
      <point x="335" y="1306"/>
      <point x="382" y="1376"/>
      <point x="480" y="1376" type="curve" smooth="yes"/>
      <point x="517" y="1376"/>
      <point x="557" y="1367"/>
      <point x="595" y="1350" type="curve"/>
    </contour>
    <contour>
      <point x="345" y="1050" type="move" name="top"/>
    </contour>
  </outline>
</glyph>
<glyph name="k" format="1">
  <advance width="988"/>
  <unicode hex="006B"/>
  <outline>
    <contour>
      <point x="176" y="0" type="line"/>
      <point x="311" y="0" type="line"/>
      <point x="311" y="264" type="line"/>
      <point x="512" y="498" type="line"/>
      <point x="817" y="0" type="line"/>
      <point x="967" y="0" type="line"/>
      <point x="590" y="595" type="line"/>
      <point x="918" y="990" type="line"/>
      <point x="766" y="990" type="line"/>
      <point x="317" y="437" type="line"/>
      <point x="311" y="437" type="line"/>
      <point x="311" y="1464" type="line"/>
      <point x="176" y="1464" type="line"/>
    </contour>
    <contour>
      <point x="571" y="1050" type="move" name="top"/>
    </contour>
  </outline>
</glyph>
<glyph name="u" format="1">
  <advance width="1101"/>
  <unicode hex="0075"/>
  <outline>
    <contour>
      <point x="162" y="357" type="line"/>
      <point x="162" y="103"/>
      <point x="250" y="-25"/>
      <point x="464" y="-25" type="curve" smooth="yes"/>
      <point x="606" y="-25"/>
      <point x="700" y="49"/>
      <point x="794" y="159" type="curve"/>
      <point x="800" y="159" type="line"/>
      <point x="812" y="0" type="line"/>
      <point x="925" y="0" type="line"/>
      <point x="925" y="990" type="line"/>
      <point x="789" y="990" type="line"/>
      <point x="789" y="276" type="line"/>
      <point x="686" y="150"/>
      <point x="615" y="95"/>
      <point x="501" y="95" type="curve" smooth="yes"/>
      <point x="353" y="95"/>
      <point x="299" y="180"/>
      <point x="299" y="376" type="curve" smooth="yes"/>
      <point x="299" y="990" type="line"/>
      <point x="162" y="990" type="line"/>
    </contour>
    <contour>
      <point x="543" y="1050" type="move" name="top"/>
    </contour>
  </outline>
</glyph>
<glyph name="v" format="1">
  <advance width="929"/>
  <unicode hex="0076"/>
  <outline>
    <contour>
      <point x="387" y="0" type="line"/>
      <point x="547" y="0" type="line"/>
      <point x="904" y="990" type="line"/>
      <point x="768" y="990" type="line"/>
      <point x="567" y="404" type="line"/>
      <point x="536" y="307"/>
      <point x="502" y="208"/>
      <point x="472" y="115" type="curve"/>
      <point x="464" y="115" type="line"/>
      <point x="434" y="208"/>
      <point x="399" y="307"/>
      <point x="369" y="404" type="curve"/>
      <point x="168" y="990" type="line"/>
      <point x="25" y="990" type="line"/>
    </contour>
    <contour>
      <point x="464" y="1050" type="move" name="top"/>
    </contour>
  </outline>
</glyph>
<glyph name="w" format="1">
  <advance width="1443"/>
  <unicode hex="0077"/>
  <outline>
    <contour>
      <point x="332" y="0" type="line"/>
      <point x="492" y="0" type="line"/>
      <point x="644" y="562" type="line"/>
      <point x="672" y="657"/>
      <point x="695" y="751"/>
      <point x="717" y="850" type="curve"/>
      <point x="725" y="850" type="line"/>
      <point x="751" y="751"/>
      <point x="770" y="660"/>
      <point x="796" y="566" type="curve" smooth="yes"/>
      <point x="951" y="0" type="line"/>
      <point x="1121" y="0" type="line"/>
      <point x="1394" y="990" type="line"/>
      <point x="1262" y="990" type="line"/>
      <point x="1104" y="390" type="line"/>
      <point x="1083" y="297"/>
      <point x="1062" y="210"/>
      <point x="1040" y="119" type="curve"/>
      <point x="1032" y="119" type="line"/>
      <point x="1008" y="210"/>
      <point x="985" y="297"/>
      <point x="960" y="390" type="curve" smooth="yes"/>
      <point x="795" y="990" type="line"/>
      <point x="654" y="990" type="line"/>
      <point x="490" y="390" type="line"/>
      <point x="465" y="298"/>
      <point x="444" y="210"/>
      <point x="421" y="119" type="curve"/>
      <point x="413" y="119" type="line"/>
      <point x="394" y="210"/>
      <point x="373" y="297"/>
      <point x="351" y="390" type="curve"/>
      <point x="191" y="990" type="line"/>
      <point x="49" y="990" type="line"/>
    </contour>
    <contour>
      <point x="721" y="1050" type="move" name="top"/>
    </contour>
  </outline>
</glyph>
<glyph name="cent" format="1">
  <advance width="1003"/>
  <unicode hex="00A2"/>
  <outline>
    <contour>
      <point x="531" y="273" type="line" name="hr01"/>
      <point x="364" y="305"/>
      <point x="263" y="441"/>
      <point x="263" y="636" type="curve" smooth="yes"/>
      <point x="263" y="830"/>
      <point x="370" y="965"/>
      <point x="531" y="998" type="curve"/>
    </contour>
    <contour>
      <point x="851" y="369" type="line"/>
      <point x="792" y="316"/>
      <point x="714" y="272"/>
      <point x="622" y="267" type="curve"/>
      <point x="622" y="1005" type="line" name="hr02"/>
      <point x="702" y="1001"/>
      <point x="767" y="965"/>
      <point x="825" y="914" type="curve"/>
      <point x="893" y="1000" type="line" name="hr03"/>
      <point x="830" y="1060"/>
      <point x="745" y="1115"/>
      <point x="622" y="1120" type="curve" name="hr04"/>
      <point x="622" y="1336" type="line"/>
      <point x="531" y="1336" type="line"/>
      <point x="531" y="1115" type="line"/>
      <point x="304" y="1086"/>
      <point x="126" y="919"/>
      <point x="126" y="636" type="curve" smooth="yes"/>
      <point x="126" y="350"/>
      <point x="292" y="180"/>
      <point x="531" y="154" type="curve"/>
      <point x="531" y="-63" type="line"/>
      <point x="622" y="-63" type="line"/>
      <point x="622" y="152" type="line"/>
      <point x="734" y="159"/>
      <point x="834" y="209"/>
      <point x="914" y="281" type="curve"/>
    </contour>
  </outline>
</glyph>
<glyph name="uni00AD" format="1">
  <advance width="627"/>
  <unicode hex="00AD"/>
  <outline>
    <contour>
      <point x="83" y="458" type="line"/>
      <point x="546" y="458" type="line"/>
      <point x="546" y="567" type="line"/>
      <point x="83" y="567" type="line"/>
    </contour>
  </outline>
</glyph>
<glyph name="registered" format="1">
  <advance width="848"/>
  <unicode hex="00AE"/>
  <outline>
    <contour>
      <point x="423" y="658" type="curve" smooth="yes" name="hr00"/>
      <point x="632" y="658"/>
      <point x="804" y="819"/>
      <point x="804" y="1058" type="curve" smooth="yes"/>
      <point x="804" y="1297"/>
      <point x="632" y="1459"/>
      <point x="423" y="1459" type="curve" smooth="yes"/>
      <point x="215" y="1459"/>
      <point x="43" y="1297"/>
      <point x="43" y="1058" type="curve" smooth="yes"/>
      <point x="43" y="819"/>
      <point x="215" y="658"/>
    </contour>
    <contour>
      <point x="423" y="727" type="curve" smooth="yes"/>
      <point x="251" y="727"/>
      <point x="117" y="863"/>
      <point x="117" y="1058" type="curve" smooth="yes"/>
      <point x="117" y="1251"/>
      <point x="251" y="1392"/>
      <point x="423" y="1392" type="curve" smooth="yes"/>
      <point x="595" y="1392"/>
      <point x="730" y="1251"/>
      <point x="730" y="1058" type="curve" smooth="yes"/>
      <point x="730" y="863"/>
      <point x="595" y="727"/>
    </contour>
    <contour>
      <point x="279" y="855" type="line"/>
      <point x="355" y="855" type="line"/>
      <point x="355" y="1003" type="line"/>
      <point x="444" y="1003" type="line"/>
      <point x="519" y="855" type="line"/>
      <point x="606" y="855" type="line"/>
      <point x="509" y="1027" type="line"/>
      <point x="555" y="1043"/>
      <point x="587" y="1091"/>
      <point x="587" y="1141" type="curve" smooth="yes"/>
      <point x="587" y="1241"/>
      <point x="512" y="1273"/>
      <point x="429" y="1273" type="curve" smooth="yes"/>
      <point x="279" y="1273" type="line"/>
    </contour>
    <contour>
      <point x="355" y="1065" type="line"/>
      <point x="355" y="1209" type="line"/>
      <point x="416" y="1209" type="line"/>
      <point x="482" y="1209"/>
      <point x="506" y="1181"/>
      <point x="506" y="1137" type="curve" smooth="yes"/>
      <point x="506" y="1088"/>
      <point x="469" y="1065"/>
      <point x="411" y="1065" type="curve" smooth="yes"/>
    </contour>
  </outline>
</glyph>
<glyph name="macron" format="1">
  <advance width="1104"/>
  <unicode hex="00AF"/>
  <outline>
    <contour>
      <point x="309" y="1235" type="line" name="hr00"/>
      <point x="796" y="1235" type="line"/>
      <point x="796" y="1334" type="line"/>
      <point x="309" y="1334" type="line"/>
    </contour>
    <contour>
      <point x="552" y="1050" type="move" name="_top"/>
    </contour>
  </outline>
</glyph>
<glyph name="degree" format="1">
  <advance width="661"/>
  <unicode hex="00B0"/>
  <outline>
    <contour>
      <point x="331" y="894" type="curve" smooth="yes"/>
      <point x="462" y="894"/>
      <point x="578" y="991"/>
      <point x="578" y="1146" type="curve" smooth="yes"/>
      <point x="578" y="1305"/>
      <point x="462" y="1402"/>
      <point x="331" y="1402" type="curve" smooth="yes"/>
      <point x="201" y="1402"/>
      <point x="85" y="1305"/>
      <point x="85" y="1146" type="curve" smooth="yes"/>
      <point x="85" y="991"/>
      <point x="201" y="894"/>
    </contour>
    <contour>
      <point x="331" y="976" type="curve" smooth="yes"/>
      <point x="239" y="976"/>
      <point x="174" y="1048"/>
      <point x="174" y="1146" type="curve" smooth="yes"/>
      <point x="174" y="1248"/>
      <point x="239" y="1320"/>
      <point x="331" y="1320" type="curve" smooth="yes"/>
      <point x="424" y="1320"/>
      <point x="489" y="1248"/>
      <point x="489" y="1146" type="curve" smooth="yes"/>
      <point x="489" y="1048"/>
      <point x="424" y="976"/>
    </contour>
  </outline>
</glyph>
<glyph name="plusminus" format="1">
  <advance width="1003"/>
  <unicode hex="00B1"/>
  <outline>
    <contour>
      <point x="445" y="245" type="line"/>
      <point x="557" y="245" type="line"/>
      <point x="557" y="628" type="line"/>
      <point x="933" y="628" type="line"/>
      <point x="933" y="734" type="line"/>
      <point x="557" y="734" type="line"/>
      <point x="557" y="1134" type="line"/>
      <point x="445" y="1134" type="line"/>
      <point x="445" y="734" type="line"/>
      <point x="70" y="734" type="line"/>
      <point x="70" y="628" type="line"/>
      <point x="445" y="628" type="line"/>
    </contour>
    <contour>
      <point x="70" y="0" type="line"/>
      <point x="933" y="0" type="line"/>
      <point x="933" y="106" type="line"/>
      <point x="70" y="106" type="line"/>
    </contour>
  </outline>
</glyph>
<glyph name="two.sups" format="1">
  <advance width="747"/>
  <unicode hex="00B2"/>
  <outline>
    <contour>
      <point x="110" y="901" type="line"/>
      <point x="648" y="901" type="line"/>
      <point x="648" y="996" type="line"/>
      <point x="287" y="996" type="line"/>
      <point x="471" y="1182"/>
      <point x="604" y="1310"/>
      <point x="604" y="1469" type="curve" smooth="yes"/>
      <point x="604" y="1636"/>
      <point x="500" y="1724"/>
      <point x="346" y="1724" type="curve" smooth="yes"/>
      <point x="241" y="1724"/>
      <point x="144" y="1659"/>
      <point x="88" y="1571" type="curve"/>
      <point x="155" y="1510" type="line"/>
      <point x="200" y="1577"/>
      <point x="262" y="1631"/>
      <point x="333" y="1631" type="curve" smooth="yes"/>
      <point x="432" y="1631"/>
      <point x="495" y="1563"/>
      <point x="495" y="1453" type="curve" smooth="yes"/>
      <point x="495" y="1327"/>
      <point x="368" y="1202"/>
      <point x="110" y="967" type="curve"/>
    </contour>
  </outline>
</glyph>
<glyph name="acute" format="1">
  <advance width="1104"/>
  <unicode hex="00B4"/>
  <outline>
    <contour>
      <point x="760" y="1457" type="line" name="hr00"/>
      <point x="612" y="1457" type="line"/>
      <point x="427" y="1173" type="line"/>
      <point x="534" y="1173" type="line"/>
    </contour>
    <contour>
      <point x="496" y="1050" type="move" name="_top"/>
    </contour>
  </outline>
</glyph>
<glyph name="cedilla" format="1">
  <advance width="1104"/>
  <unicode hex="00B8"/>
  <outline>
    <contour>
      <point x="455" y="-153" type="line" name="hr00"/>
      <point x="537" y="-173"/>
      <point x="589" y="-200"/>
      <point x="589" y="-256" type="curve" smooth="yes"/>
      <point x="589" y="-312"/>
      <point x="512" y="-342"/>
      <point x="403" y="-357" type="curve"/>
      <point x="419" y="-432" type="line"/>
      <point x="563" y="-417"/>
      <point x="698" y="-363"/>
      <point x="698" y="-250" type="curve" smooth="yes"/>
      <point x="698" y="-166"/>
      <point x="643" y="-128"/>
      <point x="576" y="-106" type="curve"/>
      <point x="632" y="5" type="line"/>
      <point x="537" y="5" type="line"/>
    </contour>
    <contour>
      <point x="550" y="1050" type="move" name="_top"/>
    </contour>
  </outline>
</glyph>
<glyph name="one.sups" format="1">
  <advance width="747"/>
  <unicode hex="00B9"/>
  <outline>
    <contour>
      <point x="355" y="901" type="line"/>
      <point x="465" y="901" type="line"/>
      <point x="465" y="1700" type="line"/>
      <point x="375" y="1700" type="line"/>
      <point x="323" y="1660"/>
      <point x="269" y="1635"/>
      <point x="184" y="1619" type="curve"/>
      <point x="184" y="1546" type="line"/>
      <point x="355" y="1546" type="line"/>
    </contour>
  </outline>
</glyph>
<glyph name="multiply" format="1">
  <advance width="1003"/>
  <unicode hex="00D7"/>
  <outline>
    <contour>
      <point x="179" y="265" type="line"/>
      <point x="501" y="600" type="line"/>
      <point x="823" y="265" type="line"/>
      <point x="898" y="343" type="line"/>
      <point x="576" y="676" type="line"/>
      <point x="898" y="1007" type="line"/>
      <point x="823" y="1085" type="line"/>
      <point x="501" y="751" type="line"/>
      <point x="179" y="1085" type="line"/>
      <point x="103" y="1007" type="line"/>
      <point x="427" y="676" type="line"/>
      <point x="103" y="343" type="line"/>
    </contour>
  </outline>
</glyph>
<glyph name="dcroat" format="1">
  <advance width="1128"/>
  <unicode hex="0111"/>
  <outline>
    <contour>
      <point x="814" y="239" type="line" name="hr01"/>
      <point x="723" y="142"/>
      <point x="636" y="92"/>
      <point x="537" y="92" type="curve" smooth="yes"/>
      <point x="349" y="92"/>
      <point x="243" y="238"/>
      <point x="243" y="474" type="curve" smooth="yes"/>
      <point x="243" y="697"/>
      <point x="379" y="858"/>
      <point x="554" y="858" type="curve" smooth="yes"/>
      <point x="641" y="858"/>
      <point x="722" y="827"/>
      <point x="814" y="744" type="curve"/>
    </contour>
    <contour>
      <point x="1101" y="1263" type="line"/>
      <point x="951" y="1263" type="line"/>
      <point x="951" y="1464" type="line"/>
      <point x="814" y="1464" type="line"/>
      <point x="814" y="1263" type="line"/>
      <point x="476" y="1263" type="line"/>
      <point x="476" y="1178" type="line"/>
      <point x="814" y="1178" type="line"/>
      <point x="814" y="1031" type="line"/>
      <point x="821" y="857" type="line"/>
      <point x="728" y="930"/>
      <point x="651" y="974"/>
      <point x="534" y="974" type="curve" smooth="yes"/>
      <point x="304" y="974"/>
      <point x="100" y="780"/>
      <point x="100" y="473" type="curve" smooth="yes"/>
      <point x="100" y="154"/>
      <point x="261" y="-25"/>
      <point x="510" y="-25" type="curve" smooth="yes"/>
      <point x="634" y="-25"/>
      <point x="740" y="40"/>
      <point x="818" y="119" type="curve"/>
      <point x="823" y="119" type="line"/>
      <point x="834" y="0" type="line" name="hr02"/>
      <point x="951" y="0" type="line"/>
      <point x="951" y="1178" type="line"/>
      <point x="1101" y="1187" type="line"/>
    </contour>
  </outline>
</glyph>
<glyph name="gcircumflex" format="1">
  <advance width="1018"/>
  <unicode hex="011D"/>
  <outline>
    <contour>
      <point x="258" y="1173" type="line"/>
      <point x="361" y="1173" type="line"/>
      <point x="505" y="1366" type="line"/>
      <point x="513" y="1366" type="line"/>
      <point x="657" y="1173" type="line"/>
      <point x="760" y="1173" type="line"/>
      <point x="566" y="1457" type="line"/>
      <point x="452" y="1457" type="line"/>
    </contour>
    <component base="g"/>
  </outline>
</glyph>
<glyph name="gbreve" format="1">
  <advance width="1018"/>
  <unicode hex="011F"/>
  <outline>
    <contour>
      <point x="509" y="1179" type="curve" smooth="yes"/>
      <point x="682" y="1179"/>
      <point x="751" y="1318"/>
      <point x="761" y="1432" type="curve"/>
      <point x="672" y="1432" type="line"/>
      <point x="661" y="1349"/>
      <point x="610" y="1267"/>
      <point x="509" y="1267" type="curve" smooth="yes"/>
      <point x="408" y="1267"/>
      <point x="357" y="1349"/>
      <point x="346" y="1432" type="curve"/>
      <point x="257" y="1432" type="line"/>
      <point x="267" y="1318"/>
      <point x="336" y="1179"/>
    </contour>
    <component base="g"/>
  </outline>
</glyph>
<glyph name="hbar" format="1">
  <advance width="1100"/>
  <unicode hex="0127"/>
  <outline>
    <contour>
      <point x="313" y="1014" type="line" name="hr00"/>
      <point x="313" y="1178" type="line"/>
      <point x="692" y="1178" type="line"/>
      <point x="692" y="1263" type="line"/>
      <point x="313" y="1263" type="line"/>
      <point x="313" y="1464" type="line"/>
      <point x="176" y="1464" type="line"/>
      <point x="176" y="1263" type="line"/>
      <point x="22" y="1254" type="line"/>
      <point x="22" y="1178" type="line"/>
      <point x="176" y="1178" type="line"/>
      <point x="176" y="0" type="line"/>
      <point x="313" y="0" type="line"/>
      <point x="313" y="688" type="line"/>
      <point x="421" y="798"/>
      <point x="497" y="855"/>
      <point x="605" y="855" type="curve" smooth="yes"/>
      <point x="748" y="855"/>
      <point x="808" y="767"/>
      <point x="808" y="572" type="curve" smooth="yes"/>
      <point x="808" y="0" type="line"/>
      <point x="944" y="0" type="line"/>
      <point x="944" y="590" type="line"/>
      <point x="944" y="844"/>
      <point x="850" y="974"/>
      <point x="644" y="974" type="curve" smooth="yes"/>
      <point x="507" y="974"/>
      <point x="406" y="899"/>
      <point x="309" y="804" type="curve"/>
    </contour>
  </outline>
</glyph>
<glyph name="Lslash" format="1">
  <advance width="972"/>
  <unicode hex="0141"/>
  <outline>
    <contour>
      <point x="328" y="119" type="line" name="hr00"/>
      <point x="328" y="566" type="line"/>
      <point x="720" y="774" type="line"/>
      <point x="720" y="889" type="line"/>
      <point x="328" y="681" type="line"/>
      <point x="328" y="1346" type="line"/>
      <point x="188" y="1346" type="line"/>
      <point x="188" y="612" type="line"/>
      <point x="20" y="526" type="line"/>
      <point x="20" y="411" type="line"/>
      <point x="188" y="497" type="line"/>
      <point x="188" y="0" type="line"/>
      <point x="928" y="0" type="line"/>
      <point x="928" y="119" type="line"/>
    </contour>
  </outline>
</glyph>
<glyph name="oe" format="1">
  <advance width="1726"/>
  <unicode hex="0153"/>
  <outline>
    <contour>
      <point x="239" y="493" type="curve" smooth="yes"/>
      <point x="239" y="735"/>
      <point x="367" y="900"/>
      <point x="543" y="900" type="curve" smooth="yes"/>
      <point x="720" y="900"/>
      <point x="845" y="735"/>
      <point x="845" y="493" type="curve" smooth="yes"/>
      <point x="845" y="253"/>
      <point x="720" y="90"/>
      <point x="543" y="90" type="curve" smooth="yes"/>
      <point x="367" y="90"/>
      <point x="239" y="253"/>
    </contour>
    <contour>
      <point x="99" y="493" type="curve" smooth="yes"/>
      <point x="99" y="165"/>
      <point x="304" y="-25"/>
      <point x="540" y="-25" type="curve" smooth="yes"/>
      <point x="707" y="-25"/>
      <point x="836" y="65"/>
      <point x="913" y="240" type="curve"/>
      <point x="986" y="77"/>
      <point x="1126" y="-25"/>
      <point x="1288" y="-25" type="curve" smooth="yes"/>
      <point x="1427" y="-25"/>
      <point x="1527" y="24"/>
      <point x="1609" y="76" type="curve"/>
      <point x="1557" y="174" type="line"/>
      <point x="1483" y="124"/>
      <point x="1404" y="89"/>
      <point x="1304" y="89" type="curve" smooth="yes"/>
      <point x="1122" y="89"/>
      <point x="979" y="242"/>
      <point x="974" y="466" type="curve"/>
      <point x="1643" y="466" type="line"/>
      <point x="1647" y="490"/>
      <point x="1649" y="520"/>
      <point x="1649" y="552" type="curve" smooth="yes"/>
      <point x="1649" y="838"/>
      <point x="1508" y="1015"/>
      <point x="1268" y="1015" type="curve" smooth="yes"/>
      <point x="1117" y="1015"/>
      <point x="985" y="913"/>
      <point x="911" y="748" type="curve"/>
      <point x="841" y="923"/>
      <point x="696" y="1015"/>
      <point x="543" y="1015" type="curve" smooth="yes"/>
      <point x="305" y="1015"/>
      <point x="99" y="825"/>
    </contour>
    <contour>
      <point x="974" y="561" type="line"/>
      <point x="993" y="768"/>
      <point x="1117" y="905"/>
      <point x="1265" y="905" type="curve" smooth="yes"/>
      <point x="1426" y="905"/>
      <point x="1527" y="785"/>
      <point x="1527" y="561" type="curve"/>
    </contour>
    <contour>
      <point x="874" y="1050" type="move" name="top"/>
    </contour>
  </outline>
</glyph>
<glyph name="uni015E" format="1">
  <advance width="1071"/>
  <unicode hex="015E"/>
  <outline>
    <contour>
      <point x="519" y="794" type="line"/>
      <point x="417" y="839"/>
      <point x="291" y="892"/>
      <point x="291" y="1032" type="curve" smooth="yes"/>
      <point x="291" y="1164"/>
      <point x="400" y="1247"/>
      <point x="562" y="1247" type="curve" smooth="yes"/>
      <point x="690" y="1247"/>
      <point x="794" y="1195"/>
      <point x="873" y="1115" type="curve"/>
      <point x="950" y="1206" type="line"/>
      <point x="860" y="1300"/>
      <point x="723" y="1370"/>
      <point x="562" y="1370" type="curve" smooth="yes"/>
      <point x="327" y="1370"/>
      <point x="151" y="1225"/>
      <point x="151" y="1024" type="curve" smooth="yes"/>
      <point x="151" y="826"/>
      <point x="302" y="735"/>
      <point x="424" y="683" type="curve" smooth="yes"/>
      <point x="621" y="595" type="line"/>
      <point x="751" y="537"/>
      <point x="854" y="489"/>
      <point x="854" y="339" type="curve" smooth="yes"/>
      <point x="854" y="196"/>
      <point x="739" y="99"/>
      <point x="551" y="99" type="curve" smooth="yes"/>
      <point x="403" y="99"/>
      <point x="267" y="168"/>
      <point x="169" y="273" type="curve"/>
      <point x="84" y="176" type="line"/>
      <point x="188" y="64"/>
      <point x="331" y="-12"/>
      <point x="505" y="-24" type="curve"/>
      <point x="437" y="-153" type="line"/>
      <point x="517" y="-173"/>
      <point x="569" y="-200"/>
      <point x="569" y="-256" type="curve" smooth="yes"/>
      <point x="569" y="-312"/>
      <point x="494" y="-342"/>
      <point x="384" y="-357" type="curve"/>
      <point x="398" y="-432" type="line"/>
      <point x="545" y="-417"/>
      <point x="680" y="-363"/>
      <point x="680" y="-250" type="curve" smooth="yes"/>
      <point x="680" y="-166"/>
      <point x="623" y="-128"/>
      <point x="558" y="-106" type="curve"/>
      <point x="599" y="-23" type="line"/>
      <point x="844" y="-3"/>
      <point x="996" y="152"/>
      <point x="996" y="350" type="curve" smooth="yes"/>
      <point x="996" y="552"/>
      <point x="870" y="641"/>
      <point x="716" y="708" type="curve" smooth="yes"/>
    </contour>
  </outline>
</glyph>
<glyph name="uni0162" format="1">
  <advance width="1076"/>
  <unicode hex="0162"/>
  <outline>
    <contour>
      <point x="608" y="0" type="line"/>
      <point x="608" y="1228" type="line"/>
      <point x="1024" y="1228" type="line"/>
      <point x="1024" y="1346" type="line"/>
      <point x="52" y="1346" type="line"/>
      <point x="52" y="1228" type="line"/>
      <point x="469" y="1228" type="line"/>
      <point x="469" y="0" type="line"/>
      <point x="496" y="0" type="line"/>
      <point x="417" y="-153" type="line"/>
      <point x="497" y="-173"/>
      <point x="548" y="-200"/>
      <point x="548" y="-256" type="curve" smooth="yes"/>
      <point x="548" y="-312"/>
      <point x="473" y="-342"/>
      <point x="363" y="-357" type="curve"/>
      <point x="378" y="-432" type="line"/>
      <point x="525" y="-417"/>
      <point x="659" y="-363"/>
      <point x="659" y="-250" type="curve" smooth="yes"/>
      <point x="659" y="-166"/>
      <point x="603" y="-128"/>
      <point x="537" y="-106" type="curve"/>
      <point x="590" y="0" type="line"/>
    </contour>
  </outline>
</glyph>
<glyph name="uni0163" format="1">
  <advance width="670"/>
  <unicode hex="0163"/>
  <outline>
    <contour>
      <point x="482" y="-25" type="line"/>
      <point x="489" y="-24"/>
      <point x="498" y="-23"/>
      <point x="505" y="-22" type="curve" smooth="yes"/>
      <point x="548" y="-18"/>
      <point x="599" y="-3"/>
      <point x="645" y="12" type="curve"/>
      <point x="616" y="117" type="line"/>
      <point x="582" y="104"/>
      <point x="535" y="89"/>
      <point x="499" y="89" type="curve" smooth="yes"/>
      <point x="376" y="89"/>
      <point x="341" y="164"/>
      <point x="341" y="288" type="curve" smooth="yes"/>
      <point x="341" y="877" type="line"/>
      <point x="616" y="877" type="line"/>
      <point x="616" y="990" type="line"/>
      <point x="341" y="990" type="line"/>
      <point x="341" y="1272" type="line"/>
      <point x="225" y="1272" type="line"/>
      <point x="208" y="990" type="line"/>
      <point x="52" y="981" type="line"/>
      <point x="52" y="877" type="line"/>
      <point x="203" y="877" type="line"/>
      <point x="203" y="293" type="line"/>
      <point x="203" y="133"/>
      <point x="250" y="15"/>
      <point x="390" y="-16" type="curve"/>
      <point x="319" y="-153" type="line"/>
      <point x="401" y="-173"/>
      <point x="453" y="-200"/>
      <point x="453" y="-256" type="curve" smooth="yes"/>
      <point x="453" y="-312"/>
      <point x="376" y="-342"/>
      <point x="267" y="-357" type="curve"/>
      <point x="282" y="-432" type="line"/>
      <point x="427" y="-417"/>
      <point x="561" y="-363"/>
      <point x="561" y="-250" type="curve" smooth="yes"/>
      <point x="561" y="-166"/>
      <point x="507" y="-128"/>
      <point x="440" y="-106" type="curve"/>
    </contour>
  </outline>
</glyph>
<glyph name="uni018F" format="1">
  <advance width="1343"/>
  <unicode hex="018F"/>
  <outline>
    <contour>
      <point x="1097" y="597" type="line"/>
      <point x="1073" y="290"/>
      <point x="908" y="95"/>
      <point x="673" y="95" type="curve" smooth="yes"/>
      <point x="447" y="95"/>
      <point x="289" y="288"/>
      <point x="271" y="597" type="curve"/>
    </contour>
    <contour>
      <point x="337" y="1120" type="line"/>
      <point x="419" y="1198"/>
      <point x="538" y="1251"/>
      <point x="674" y="1251" type="curve" smooth="yes"/>
      <point x="938" y="1251"/>
      <point x="1091" y="1042"/>
      <point x="1100" y="706" type="curve"/>
      <point x="132" y="706" type="line"/>
      <point x="130" y="691"/>
      <point x="129" y="678"/>
      <point x="129" y="667" type="curve" smooth="yes"/>
      <point x="129" y="258"/>
      <point x="342" y="-25"/>
      <point x="673" y="-25" type="curve" smooth="yes"/>
      <point x="1006" y="-25"/>
      <point x="1237" y="248"/>
      <point x="1237" y="677" type="curve" smooth="yes"/>
      <point x="1237" y="1106"/>
      <point x="1024" y="1370"/>
      <point x="681" y="1370" type="curve" smooth="yes"/>
      <point x="504" y="1370"/>
      <point x="362" y="1305"/>
      <point x="270" y="1215" type="curve"/>
    </contour>
  </outline>
</glyph>
<glyph name="dotlessj" format="1">
  <advance width="491"/>
  <unicode hex="0237"/>
  <outline>
    <contour>
      <point x="177" y="-142" type="line"/>
      <point x="177" y="-264"/>
      <point x="154" y="-341"/>
      <point x="51" y="-341" type="curve" smooth="yes"/>
      <point x="14" y="-341"/>
      <point x="-22" y="-332"/>
      <point x="-46" y="-324" type="curve"/>
      <point x="-76" y="-429" type="line"/>
      <point x="-43" y="-442"/>
      <point x="7" y="-454"/>
      <point x="63" y="-454" type="curve" smooth="yes"/>
      <point x="242" y="-454"/>
      <point x="315" y="-343"/>
      <point x="315" y="-145" type="curve" smooth="yes"/>
      <point x="315" y="990" type="line"/>
      <point x="177" y="990" type="line"/>
    </contour>
    <contour>
      <point x="248" y="1050" type="move" name="top"/>
    </contour>
  </outline>
</glyph>
<glyph name="uni0259" format="1">
  <advance width="1005"/>
  <unicode hex="0259"/>
  <outline>
    <contour>
      <point x="77" y="453" type="curve" smooth="yes"/>
      <point x="77" y="151"/>
      <point x="239" y="-25"/>
      <point x="481" y="-25" type="curve" smooth="yes"/>
      <point x="721" y="-25"/>
      <point x="906" y="173"/>
      <point x="906" y="498" type="curve" smooth="yes"/>
      <point x="906" y="825"/>
      <point x="722" y="1015"/>
      <point x="476" y="1015" type="curve" smooth="yes"/>
      <point x="334" y="1015"/>
      <point x="227" y="969"/>
      <point x="139" y="908" type="curve"/>
      <point x="190" y="815" type="line"/>
      <point x="268" y="868"/>
      <point x="350" y="905"/>
      <point x="456" y="905" type="curve" smooth="yes"/>
      <point x="649" y="905"/>
      <point x="761" y="754"/>
      <point x="769" y="538" type="curve"/>
      <point x="83" y="538" type="line"/>
      <point x="79" y="513"/>
      <point x="77" y="484"/>
    </contour>
    <contour>
      <point x="199" y="443" type="curve"/>
      <point x="770" y="443" type="line"/>
      <point x="751" y="218"/>
      <point x="644" y="87"/>
      <point x="478" y="87" type="curve" smooth="yes"/>
      <point x="312" y="87"/>
      <point x="199" y="201"/>
    </contour>
  </outline>
</glyph>
<glyph name="h.sups" format="1">
  <advance width="741"/>
  <unicode hex="02B0"/>
  <outline>
    <contour>
      <point x="111" y="532" type="line"/>
      <point x="217" y="532" type="line"/>
      <point x="217" y="1009" type="line"/>
      <point x="289" y="1080"/>
      <point x="347" y="1112"/>
      <point x="403" y="1112" type="curve" smooth="yes"/>
      <point x="514" y="1112"/>
      <point x="538" y="1043"/>
      <point x="538" y="932" type="curve" smooth="yes"/>
      <point x="538" y="532" type="line"/>
      <point x="645" y="532" type="line"/>
      <point x="645" y="949" type="line"/>
      <point x="645" y="1100"/>
      <point x="591" y="1205"/>
      <point x="437" y="1205" type="curve" smooth="yes"/>
      <point x="349" y="1205"/>
      <point x="270" y="1153"/>
      <point x="213" y="1092" type="curve"/>
      <point x="217" y="1232" type="line"/>
      <point x="217" y="1496" type="line"/>
      <point x="111" y="1496" type="line"/>
    </contour>
  </outline>
</glyph>
<glyph name="j.sups" format="1">
  <advance width="336"/>
  <unicode hex="02B2"/>
  <outline>
    <contour>
      <point x="45" y="231" type="curve" smooth="yes"/>
      <point x="169" y="231"/>
      <point x="222" y="312"/>
      <point x="222" y="457" type="curve" smooth="yes"/>
      <point x="222" y="1189" type="line"/>
      <point x="116" y="1189" type="line"/>
      <point x="116" y="449" type="line"/>
      <point x="116" y="369"/>
      <point x="99" y="323"/>
      <point x="33" y="323" type="curve" smooth="yes"/>
      <point x="5" y="323"/>
      <point x="-8" y="327"/>
      <point x="-26" y="334" type="curve"/>
      <point x="-50" y="248" type="line"/>
      <point x="-18" y="237"/>
      <point x="4" y="231"/>
    </contour>
    <contour>
      <point x="171" y="1324" type="curve" smooth="yes"/>
      <point x="215" y="1324"/>
      <point x="248" y="1354"/>
      <point x="248" y="1397" type="curve" smooth="yes"/>
      <point x="248" y="1440"/>
      <point x="215" y="1470"/>
      <point x="171" y="1470" type="curve" smooth="yes"/>
      <point x="127" y="1470"/>
      <point x="93" y="1440"/>
      <point x="93" y="1397" type="curve" smooth="yes"/>
      <point x="93" y="1354"/>
      <point x="127" y="1324"/>
    </contour>
  </outline>
</glyph>
<glyph name="uni02BF" format="1">
  <advance width="330"/>
  <unicode hex="02BF"/>
  <outline>
    <contour>
      <point x="262" y="1476" type="line"/>
      <point x="125" y="1480"/>
      <point x="44" y="1407"/>
      <point x="44" y="1292" type="curve" smooth="yes"/>
      <point x="44" y="1176"/>
      <point x="125" y="1104"/>
      <point x="262" y="1108" type="curve"/>
      <point x="262" y="1171" type="line"/>
      <point x="167" y="1171"/>
      <point x="128" y="1221"/>
      <point x="128" y="1292" type="curve" smooth="yes"/>
      <point x="128" y="1363"/>
      <point x="167" y="1412"/>
      <point x="262" y="1412" type="curve"/>
    </contour>
  </outline>
</glyph>
<glyph name="ring" format="1">
  <advance width="1104"/>
  <unicode hex="02DA"/>
  <outline>
    <contour>
      <point x="552" y="1108" type="curve" smooth="yes" name="hr00"/>
      <point x="657" y="1108"/>
      <point x="735" y="1182"/>
      <point x="735" y="1292" type="curve" smooth="yes"/>
      <point x="735" y="1402"/>
      <point x="657" y="1476"/>
      <point x="552" y="1476" type="curve" smooth="yes"/>
      <point x="448" y="1476"/>
      <point x="371" y="1402"/>
      <point x="371" y="1292" type="curve" smooth="yes"/>
      <point x="371" y="1182"/>
      <point x="448" y="1108"/>
    </contour>
    <contour>
      <point x="552" y="1174" type="curve" smooth="yes"/>
      <point x="495" y="1174"/>
      <point x="450" y="1221"/>
      <point x="450" y="1292" type="curve" smooth="yes"/>
      <point x="450" y="1363"/>
      <point x="495" y="1410"/>
      <point x="552" y="1410" type="curve" smooth="yes"/>
      <point x="609" y="1410"/>
      <point x="654" y="1363"/>
      <point x="654" y="1292" type="curve" smooth="yes"/>
      <point x="654" y="1221"/>
      <point x="609" y="1174"/>
    </contour>
    <contour>
      <point x="553" y="1050" type="move" name="_top"/>
    </contour>
  </outline>
</glyph>
<glyph name="ogonek" format="1">
  <advance width="1104"/>
  <unicode hex="02DB"/>
  <outline>
    <contour>
      <point x="427" y="-249" type="curve" smooth="yes"/>
      <point x="427" y="-361"/>
      <point x="505" y="-420"/>
      <point x="603" y="-420" type="curve" smooth="yes"/>
      <point x="653" y="-420"/>
      <point x="718" y="-396"/>
      <point x="753" y="-368" type="curve"/>
      <point x="714" y="-296" type="line"/>
      <point x="689" y="-314"/>
      <point x="663" y="-323"/>
      <point x="629" y="-323" type="curve" smooth="yes"/>
      <point x="579" y="-323"/>
      <point x="532" y="-291"/>
      <point x="532" y="-224" type="curve" smooth="yes"/>
      <point x="532" y="-141"/>
      <point x="589" y="-60"/>
      <point x="679" y="7" type="curve"/>
      <point x="573" y="7" type="line"/>
      <point x="502" y="-47"/>
      <point x="427" y="-140"/>
    </contour>
    <contour>
      <point x="590" y="1050" type="move" name="_top"/>
    </contour>
  </outline>
</glyph>
<glyph name="uni0300" format="1">
  <advance width="0"/>
  <unicode hex="0300"/>
  <outline>
    <contour>
      <point x="18" y="1173" type="line"/>
      <point x="126" y="1173" type="line"/>
      <point x="-60" y="1457" type="line"/>
      <point x="-208" y="1457" type="line"/>
    </contour>
  </outline>
</glyph>
<glyph name="uni0302" format="1">
  <advance width="600"/>
  <unicode hex="0302"/>
  <outline>
    <contour>
      <point x="-251" y="1173" type="line"/>
      <point x="-148" y="1173" type="line"/>
      <point x="-4" y="1366" type="line"/>
      <point x="4" y="1366" type="line"/>
      <point x="148" y="1173" type="line"/>
      <point x="251" y="1173" type="line"/>
      <point x="57" y="1457" type="line"/>
      <point x="-57" y="1457" type="line"/>
    </contour>
    <contour>
      <point x="0" y="1035" type="move" name="_mark0"/>
    </contour>
  </outline>
</glyph>
<glyph name="uni030A" format="1">
  <advance width="600"/>
  <unicode hex="030A"/>
  <outline>
    <contour>
      <point x="0" y="1108" type="curve" smooth="yes"/>
      <point x="105" y="1108"/>
      <point x="181" y="1182"/>
      <point x="181" y="1292" type="curve" smooth="yes"/>
      <point x="181" y="1402"/>
      <point x="105" y="1476"/>
      <point x="0" y="1476" type="curve" smooth="yes"/>
      <point x="-105" y="1476"/>
      <point x="-181" y="1402"/>
      <point x="-181" y="1292" type="curve" smooth="yes"/>
      <point x="-181" y="1182"/>
      <point x="-105" y="1108"/>
    </contour>
    <contour>
      <point x="0" y="1174" type="curve" smooth="yes"/>
      <point x="-57" y="1174"/>
      <point x="-101" y="1221"/>
      <point x="-101" y="1292" type="curve" smooth="yes"/>
      <point x="-101" y="1363"/>
      <point x="-57" y="1410"/>
      <point x="0" y="1410" type="curve" smooth="yes"/>
      <point x="57" y="1410"/>
      <point x="101" y="1363"/>
      <point x="101" y="1292" type="curve" smooth="yes"/>
      <point x="101" y="1221"/>
      <point x="57" y="1174"/>
    </contour>
    <contour>
      <point x="0" y="1035" type="move" name="_mark0"/>
    </contour>
  </outline>
</glyph>
<glyph name="uni0328" format="1">
  <advance width="0"/>
  <unicode hex="0328"/>
  <outline>
    <contour>
      <point x="-125" y="-249" type="curve" smooth="yes"/>
      <point x="-125" y="-361"/>
      <point x="-47" y="-420"/>
      <point x="51" y="-420" type="curve" smooth="yes"/>
      <point x="99" y="-420"/>
      <point x="166" y="-396"/>
      <point x="202" y="-368" type="curve"/>
      <point x="162" y="-296" type="line"/>
      <point x="137" y="-314"/>
      <point x="111" y="-323"/>
      <point x="77" y="-323" type="curve" smooth="yes"/>
      <point x="27" y="-323"/>
      <point x="-19" y="-291"/>
      <point x="-19" y="-224" type="curve" smooth="yes"/>
      <point x="-19" y="-141"/>
      <point x="36" y="-60"/>
      <point x="127" y="7" type="curve"/>
      <point x="20" y="7" type="line"/>
      <point x="-50" y="-47"/>
      <point x="-125" y="-140"/>
    </contour>
  </outline>
</glyph>
<glyph name="pi" format="1">
  <advance width="1126"/>
  <unicode hex="03C0"/>
  <outline>
    <contour>
      <point x="227" y="0" type="line"/>
      <point x="363" y="0" type="line"/>
      <point x="363" y="874" type="line"/>
      <point x="768" y="874" type="line"/>
      <point x="768" y="208" type="line"/>
      <point x="768" y="64"/>
      <point x="816" y="-25"/>
      <point x="947" y="-25" type="curve" smooth="yes"/>
      <point x="986" y="-25"/>
      <point x="1016" y="-19"/>
      <point x="1049" y="-5" type="curve"/>
      <point x="1029" y="102" type="line"/>
      <point x="1008" y="94"/>
      <point x="993" y="90"/>
      <point x="978" y="90" type="curve" smooth="yes"/>
      <point x="929" y="90"/>
      <point x="905" y="133"/>
      <point x="905" y="196" type="curve" smooth="yes"/>
      <point x="905" y="874" type="line"/>
      <point x="1061" y="874" type="line"/>
      <point x="1061" y="990" type="line"/>
      <point x="191" y="990" type="line"/>
      <point x="51" y="981" type="line"/>
      <point x="51" y="874" type="line"/>
      <point x="227" y="874" type="line"/>
    </contour>
  </outline>
</glyph>
<glyph name="candraBindu-deva" format="1">
  <advance width="540"/>
  <unicode hex="0901"/>
  <outline>
    <component base="eCandraMatra-deva" xOffset="-4"/>
    <component base="anusvara-deva" xOffset="-4" yOffset="85"/>
    <contour>
      <point x="272" y="1168" type="move" name="_topcandra"/>
    </contour>
  </outline>
</glyph>
<glyph name="aShort-deva" format="1">
  <advance width="1378"/>
  <unicode hex="0904"/>
  <outline>
    <component base="a-deva"/>
    <component base="eShortMatra-deva" xOffset="838" yOffset="6"/>
    <contour>
      <point x="498" y="849" type="move" name="top"/>
    </contour>
    <contour>
      <point x="498" y="20" type="move" name="bottom"/>
    </contour>
  </outline>
</glyph>
<glyph name="aa-deva" format="1">
  <advance width="1932"/>
  <unicode hex="0906"/>
  <outline>
    <component base="a-deva"/>
    <component base="aaMatra-deva" xOffset="1378"/>
    <contour>
      <point x="1657" y="1168" type="move" name="top"/>
    </contour>
    <contour>
      <point x="1658" y="28" type="move" name="bottom"/>
    </contour>
    <contour>
      <point x="1393" y="1168" type="move" name="topcandra"/>
    </contour>
  </outline>
</glyph>
<glyph name="lVocalic-deva" format="1">
  <advance width="1303"/>
  <unicode hex="090C"/>
  <outline>
    <contour>
      <point x="757" y="917"/>
      <point x="605" y="799"/>
      <point x="605" y="580" type="curve" smooth="yes"/>
      <point x="605" y="549"/>
      <point x="608" y="515"/>
      <point x="617" y="480" type="curve"/>
      <point x="734" y="496" type="line"/>
      <point x="731" y="519"/>
      <point x="729" y="540"/>
      <point x="729" y="562" type="curve" smooth="yes"/>
      <point x="729" y="713"/>
      <point x="811" y="799"/>
      <point x="925" y="799" type="curve" smooth="yes"/>
      <point x="1042" y="799"/>
      <point x="1105" y="714"/>
      <point x="1105" y="560" type="curve" smooth="yes"/>
      <point x="1105" y="482"/>
      <point x="1096" y="398"/>
      <point x="1046" y="277" type="curve"/>
      <point x="1100" y="333" type="line"/>
      <point x="894" y="274"/>
      <point x="801" y="168"/>
      <point x="801" y="53" type="curve"/>
      <point x="801" y="-49"/>
      <point x="860" y="-191"/>
      <point x="1073" y="-191" type="curve" smooth="yes"/>
      <point x="1183" y="-191"/>
      <point x="1293" y="-150"/>
      <point x="1368" y="-93" type="curve"/>
      <point x="1319" y="-3" type="line"/>
      <point x="1252" y="-55"/>
      <point x="1157" y="-88"/>
      <point x="1073" y="-88" type="curve" smooth="yes"/>
      <point x="937" y="-88"/>
      <point x="920" y="0"/>
      <point x="920" y="55" type="curve" smooth="yes"/>
      <point x="920" y="143"/>
      <point x="1003" y="202"/>
      <point x="1162" y="253" type="curve"/>
      <point x="1213" y="386"/>
      <point x="1227" y="485"/>
      <point x="1227" y="550" type="curve" smooth="yes"/>
      <point x="1227" y="789"/>
      <point x="1118" y="917"/>
      <point x="920" y="917" type="curve" smooth="yes"/>
    </contour>
    <contour>
      <point x="-12" y="1247" type="line"/>
      <point x="-12" y="1143" type="line"/>
      <point x="1316" y="1143" type="line"/>
      <point x="1316" y="1247" type="line"/>
    </contour>
    <contour>
      <point x="920" y="1191" type="line"/>
      <point x="920" y="868" type="line"/>
      <point x="1047" y="868" type="line"/>
      <point x="1047" y="1191" type="line"/>
    </contour>
    <contour>
      <point x="184" y="920"/>
      <point x="74" y="809"/>
      <point x="74" y="608" type="curve" smooth="yes"/>
      <point x="74" y="352"/>
      <point x="235" y="131"/>
      <point x="316" y="31" type="curve"/>
      <point x="412" y="107" type="line"/>
      <point x="315" y="231"/>
      <point x="200" y="406"/>
      <point x="200" y="592" type="curve" smooth="yes"/>
      <point x="200" y="745"/>
      <point x="286" y="801"/>
      <point x="385" y="801" type="curve" smooth="yes"/>
      <point x="506" y="801"/>
      <point x="579" y="721"/>
      <point x="636" y="591" type="curve"/>
      <point x="674" y="687" type="line"/>
      <point x="599" y="857"/>
      <point x="498" y="920"/>
      <point x="362" y="920" type="curve" smooth="yes"/>
    </contour>
    <contour>
      <point x="984" y="1168" type="move" name="top"/>
    </contour>
    <contour>
      <point x="687" y="-4" type="move" name="bottom"/>
    </contour>
    <contour>
      <point x="642" y="1167" type="move" name="topcandra"/>
    </contour>
  </outline>
</glyph>
<glyph name="nga-deva" format="1">
  <advance width="1110"/>
  <unicode hex="0919"/>
  <outline>
    <contour>
      <point x="879" y="1247" type="line"/>
      <point x="879" y="1143" type="line"/>
      <point x="1123" y="1143" type="line"/>
      <point x="1123" y="1247" type="line"/>
    </contour>
    <component base="dda-deva"/>
    <component base="anusvara-deva" xOffset="708" yOffset="-846"/>
    <contour>
      <point x="731" y="1168" type="move" name="top"/>
    </contour>
    <contour>
      <point x="551" y="-49" type="move" name="bottom"/>
    </contour>
    <contour>
      <point x="552" y="1168" type="move" name="topcandra"/>
    </contour>
  </outline>
</glyph>
<glyph name="pa-deva" format="1">
  <advance width="1165"/>
  <unicode hex="092A"/>
  <outline>
    <contour>
      <point x="164" y="1178" type="line"/>
      <point x="164" y="685" type="line" smooth="yes"/>
      <point x="164" y="441"/>
      <point x="275" y="317"/>
      <point x="510" y="317" type="curve" smooth="yes"/>
      <point x="630" y="317"/>
      <point x="776" y="375"/>
      <point x="866" y="490" type="curve"/>
      <point x="850" y="623" type="line"/>
      <point x="752" y="490"/>
      <point x="629" y="431"/>
      <point x="516" y="430" type="curve" smooth="yes"/>
      <point x="343" y="429"/>
      <point x="291" y="519"/>
      <point x="291" y="667" type="curve" smooth="yes"/>
      <point x="291" y="1178" type="line"/>
    </contour>
    <contour>
      <point x="825" y="1191" type="line"/>
      <point x="825" y="0" type="line"/>
      <point x="951" y="0" type="line"/>
      <point x="951" y="1191" type="line"/>
    </contour>
    <contour>
      <point x="-13" y="1247" type="line"/>
      <point x="-13" y="1143" type="line"/>
      <point x="1178" y="1143" type="line"/>
      <point x="1178" y="1247" type="line"/>
    </contour>
    <contour>
      <point x="335" y="128" type="move" name="nukta"/>
    </contour>
    <contour>
      <point x="888" y="1168" type="move" name="top"/>
    </contour>
    <contour>
      <point x="569" y="1168" type="move" name="topcandra"/>
    </contour>
    <contour>
      <point x="889" y="28" type="move" name="bottom"/>
    </contour>
  </outline>
</glyph>
<glyph name="bha-deva" format="1">
  <advance width="1215"/>
  <unicode hex="092D"/>
  <outline>
    <contour>
      <point x="158" y="1269"/>
      <point x="108" y="1258"/>
      <point x="71" y="1243" type="curve"/>
      <point x="92" y="1141" type="line"/>
      <point x="117" y="1148"/>
      <point x="157" y="1158"/>
      <point x="200" y="1158" type="curve" smooth="yes"/>
      <point x="271" y="1158"/>
      <point x="304" y="1132"/>
      <point x="304" y="1041" type="curve" smooth="yes"/>
      <point x="304" y="551" type="line"/>
      <point x="430" y="551" type="line"/>
      <point x="430" y="1037" type="line" smooth="yes"/>
      <point x="430" y="1144"/>
      <point x="412" y="1269"/>
      <point x="218" y="1269" type="curve" smooth="yes"/>
    </contour>
    <contour>
      <point x="319" y="609" type="line"/>
      <point x="151" y="589" type="line"/>
      <point x="151" y="498" type="line"/>
      <point x="321" y="309" type="line"/>
      <point x="411" y="312"/>
      <point x="429" y="361"/>
      <point x="429" y="419" type="curve" smooth="yes"/>
      <point x="429" y="609" type="line"/>
    </contour>
    <contour>
      <point x="310" y="601" type="line"/>
      <point x="310" y="489" type="line"/>
      <point x="969" y="489" type="line"/>
      <point x="969" y="601" type="line"/>
    </contour>
    <contour>
      <point x="876" y="1196" type="line"/>
      <point x="876" y="0" type="line"/>
      <point x="1002" y="0" type="line"/>
      <point x="1002" y="1196" type="line"/>
    </contour>
    <contour>
      <point x="682" y="1247" type="line"/>
      <point x="682" y="1143" type="line"/>
      <point x="1228" y="1143" type="line"/>
      <point x="1228" y="1247" type="line"/>
    </contour>
    <contour>
      <point x="385" y="44" type="move" name="nukta"/>
    </contour>
    <contour>
      <point x="939" y="1168" type="move" name="top"/>
    </contour>
    <contour>
      <point x="676" y="1168" type="move" name="topcandra"/>
    </contour>
    <contour>
      <point x="939" y="28" type="move" name="bottom"/>
    </contour>
  </outline>
</glyph>
<glyph name="ya-deva" format="1">
  <advance width="1139"/>
  <unicode hex="092F"/>
  <outline>
    <contour>
      <point x="193" y="1156" type="line"/>
      <point x="268" y="1075"/>
      <point x="315" y="972"/>
      <point x="315" y="908" type="curve" smooth="yes"/>
      <point x="315" y="820"/>
      <point x="248" y="739"/>
      <point x="55" y="670" type="curve"/>
      <point x="109" y="417"/>
      <point x="255" y="269"/>
      <point x="481" y="269" type="curve" smooth="yes"/>
      <point x="604" y="269"/>
      <point x="746" y="324"/>
      <point x="831" y="432" type="curve"/>
      <point x="834" y="597" type="line"/>
      <point x="747" y="454"/>
      <point x="619" y="384"/>
      <point x="477" y="384" type="curve" smooth="yes"/>
      <point x="320" y="384"/>
      <point x="229" y="460"/>
      <point x="167" y="652" type="curve"/>
      <point x="140" y="586" type="line"/>
      <point x="367" y="665"/>
      <point x="437" y="779"/>
      <point x="437" y="894" type="curve" smooth="yes"/>
      <point x="437" y="971"/>
      <point x="399" y="1064"/>
      <point x="320" y="1160" type="curve"/>
    </contour>
    <contour>
      <point x="800" y="1199" type="line"/>
      <point x="800" y="0" type="line"/>
      <point x="926" y="0" type="line"/>
      <point x="926" y="1199" type="line"/>
    </contour>
    <contour>
      <point x="-12" y="1247" type="line"/>
      <point x="-12" y="1143" type="line"/>
      <point x="1152" y="1143" type="line"/>
      <point x="1152" y="1247" type="line"/>
    </contour>
    <contour>
      <point x="306" y="64" type="move" name="nukta"/>
    </contour>
    <contour>
      <point x="863" y="1168" type="move" name="top"/>
    </contour>
    <contour>
      <point x="587" y="1168" type="move" name="topcandra"/>
    </contour>
    <contour>
      <point x="863" y="28" type="move" name="bottom"/>
    </contour>
  </outline>
</glyph>
<glyph name="sha-deva" format="1">
  <advance width="1280"/>
  <unicode hex="0936"/>
  <outline>
    <contour>
      <point x="179" y="1268"/>
      <point x="82" y="1160"/>
      <point x="86" y="1036" type="curve" smooth="yes"/>
      <point x="89" y="949"/>
      <point x="136" y="868"/>
      <point x="259" y="802" type="curve"/>
      <point x="315" y="877" type="line"/>
      <point x="230" y="933"/>
      <point x="203" y="975"/>
      <point x="203" y="1029" type="curve" smooth="yes"/>
      <point x="203" y="1114"/>
      <point x="268" y="1163"/>
      <point x="382" y="1163" type="curve" smooth="yes"/>
      <point x="537" y="1163"/>
      <point x="583" y="1062"/>
      <point x="583" y="955" type="curve" smooth="yes"/>
      <point x="583" y="747"/>
      <point x="438" y="628"/>
      <point x="178" y="521" type="curve"/>
      <point x="268" y="450" type="line"/>
      <point x="529" y="555"/>
      <point x="709" y="710"/>
      <point x="709" y="960" type="curve" smooth="yes"/>
      <point x="709" y="1115"/>
      <point x="618" y="1268"/>
      <point x="379" y="1268" type="curve" smooth="yes"/>
    </contour>
    <contour>
      <point x="201" y="513" type="line"/>
      <point x="610" y="-20" type="line"/>
      <point x="707" y="60" type="line"/>
      <point x="286" y="551" type="line"/>
    </contour>
    <contour>
      <point x="107" y="674" type="line"/>
      <point x="74" y="615"/>
      <point x="65" y="565"/>
      <point x="64" y="536" type="curve" smooth="yes"/>
      <point x="63" y="466"/>
      <point x="116" y="430"/>
      <point x="172" y="430" type="curve" smooth="yes"/>
      <point x="212" y="430"/>
      <point x="259" y="440"/>
      <point x="339" y="480" type="curve"/>
      <point x="329" y="506" type="line"/>
      <point x="190" y="674" type="line"/>
    </contour>
    <contour>
      <point x="940" y="1191" type="line"/>
      <point x="940" y="0" type="line"/>
      <point x="1066" y="0" type="line"/>
      <point x="1066" y="1191" type="line"/>
    </contour>
    <contour>
      <point x="763" y="1247" type="line"/>
      <point x="763" y="1143" type="line"/>
      <point x="1293" y="1143" type="line"/>
      <point x="1293" y="1247" type="line"/>
    </contour>
    <contour>
      <point x="273" y="44" type="move" name="nukta"/>
    </contour>
    <contour>
      <point x="1003" y="1168" type="move" name="top"/>
    </contour>
    <contour>
      <point x="769" y="1168" type="move" name="topcandra"/>
    </contour>
    <contour>
      <point x="1003" y="28" type="move" name="bottom"/>
    </contour>
  </outline>
</glyph>
<glyph name="ooeMatra-deva" format="1">
  <advance width="554"/>
  <unicode hex="093B"/>
  <outline>
    <contour>
      <point x="214" y="1113" type="line"/>
      <point x="339" y="1113" type="line"/>
      <point x="339" y="1458" type="line"/>
      <point x="214" y="1458" type="line"/>
    </contour>
    <component base="aaMatra-deva"/>
  </outline>
</glyph>
<glyph name="nukta-deva" format="1">
  <advance width="584"/>
  <unicode hex="093C"/>
  <outline>
    <contour>
      <point x="220" y="109"/>
      <point x="195" y="85"/>
      <point x="195" y="28" type="curve" smooth="yes"/>
      <point x="195" y="-28"/>
      <point x="220" y="-52"/>
      <point x="277" y="-52" type="curve" smooth="yes"/>
      <point x="334" y="-52"/>
      <point x="358" y="-28"/>
      <point x="358" y="28" type="curve" smooth="yes"/>
      <point x="358" y="85"/>
      <point x="334" y="109"/>
      <point x="277" y="109" type="curve" smooth="yes"/>
    </contour>
    <contour>
      <point x="277" y="28" type="move" name="_nukta"/>
    </contour>
  </outline>
</glyph>
<glyph name="oShortMatra-deva" format="1">
  <advance width="554"/>
  <unicode hex="094A"/>
  <outline>
    <component base="aaMatra-deva"/>
    <component base="eShortMatra-deva" xOffset="14" yOffset="6"/>
    <contour>
      <point x="319" y="1294" type="move" name="top"/>
    </contour>
    <contour>
      <point x="604" y="1195" type="move" name="topcandra"/>
    </contour>
  </outline>
</glyph>
<glyph name="om-deva" format="1">
  <advance width="1795"/>
  <unicode hex="0950"/>
  <outline>
    <contour>
      <point x="1321" y="1012"/>
      <point x="1241" y="926"/>
      <point x="1131" y="753" type="curve" smooth="yes"/>
      <point x="1030" y="596"/>
      <point x="956" y="448"/>
      <point x="868" y="448" type="curve" smooth="yes"/>
      <point x="829" y="448"/>
      <point x="776" y="475"/>
      <point x="753" y="528" type="curve"/>
      <point x="732" y="464" type="line"/>
      <point x="780" y="359"/>
      <point x="836" y="332"/>
      <point x="892" y="333" type="curve"/>
      <point x="1020" y="337"/>
      <point x="1107" y="507"/>
      <point x="1205" y="668" type="curve" smooth="yes"/>
      <point x="1295" y="815"/>
      <point x="1355" y="903"/>
      <point x="1454" y="903" type="curve" smooth="yes"/>
      <point x="1561" y="903"/>
      <point x="1613" y="811"/>
      <point x="1613" y="666" type="curve" smooth="yes"/>
      <point x="1613" y="505"/>
      <point x="1549" y="430"/>
      <point x="1445" y="430" type="curve" smooth="yes"/>
      <point x="1323" y="430"/>
      <point x="1238" y="542"/>
      <point x="1203" y="726" type="curve"/>
      <point x="1128" y="637" type="line"/>
      <point x="1177" y="403"/>
      <point x="1313" y="317"/>
      <point x="1451" y="317" type="curve" smooth="yes"/>
      <point x="1644" y="317"/>
      <point x="1735" y="484"/>
      <point x="1735" y="676" type="curve" smooth="yes"/>
      <point x="1735" y="884"/>
      <point x="1628" y="1012"/>
      <point x="1459" y="1012" type="curve" smooth="yes"/>
    </contour>
    <contour>
      <point x="400" y="716" type="line"/>
      <point x="580" y="661"/>
      <point x="665" y="578"/>
      <point x="665" y="441" type="curve" smooth="yes"/>
      <point x="665" y="287"/>
      <point x="567" y="224"/>
      <point x="438" y="224" type="curve" smooth="yes"/>
      <point x="334" y="224"/>
      <point x="219" y="265"/>
      <point x="111" y="370" type="curve"/>
      <point x="45" y="290" type="line"/>
      <point x="169" y="162"/>
      <point x="317" y="109"/>
      <point x="447" y="109" type="curve" smooth="yes"/>
      <point x="637" y="109"/>
      <point x="795" y="224"/>
      <point x="795" y="431" type="curve" smooth="yes"/>
      <point x="795" y="602"/>
      <point x="687" y="729"/>
      <point x="471" y="758" type="curve"/>
    </contour>
    <contour>
      <point x="345" y="1262"/>
      <point x="261" y="1241"/>
      <point x="174" y="1202" type="curve"/>
      <point x="211" y="1101" type="line"/>
      <point x="295" y="1135"/>
      <point x="367" y="1151"/>
      <point x="435" y="1151" type="curve" smooth="yes"/>
      <point x="533" y="1151"/>
      <point x="621" y="1118"/>
      <point x="621" y="992" type="curve" smooth="yes"/>
      <point x="621" y="867"/>
      <point x="534" y="811"/>
      <point x="389" y="779" type="curve" smooth="yes"/>
      <point x="363" y="773"/>
      <point x="350" y="771"/>
      <point x="303" y="766" type="curve"/>
      <point x="312" y="661" type="line"/>
      <point x="330" y="662"/>
      <point x="344" y="663"/>
      <point x="368" y="667" type="curve" smooth="yes"/>
      <point x="437" y="676"/>
      <point x="507" y="692"/>
      <point x="566" y="725" type="curve" smooth="yes"/>
      <point x="687" y="787"/>
      <point x="741" y="880"/>
      <point x="741" y="998" type="curve" smooth="yes"/>
      <point x="741" y="1173"/>
      <point x="622" y="1262"/>
      <point x="435" y="1262" type="curve" smooth="yes"/>
    </contour>
    <component base="candraBindu-deva" xOffset="755" yOffset="-263"/>
  </outline>
</glyph>
<glyph name="rrVocalic-deva" format="1">
  <advance width="1504"/>
  <unicode hex="0960"/>
  <outline>
    <contour>
      <point x="753" y="538" type="line"/>
      <point x="761" y="600" type="line"/>
      <point x="564" y="867"/>
      <point x="465" y="923"/>
      <point x="335" y="928" type="curve" smooth="yes"/>
      <point x="235" y="933"/>
      <point x="161" y="896"/>
      <point x="97" y="858" type="curve"/>
      <point x="145" y="755" type="line"/>
      <point x="210" y="789"/>
      <point x="282" y="816"/>
      <point x="349" y="813" type="curve" smooth="yes"/>
      <point x="461" y="807"/>
      <point x="547" y="718"/>
      <point x="682" y="556" type="curve"/>
      <point x="690" y="615" type="line"/>
      <point x="182" y="264" type="line"/>
      <point x="253" y="167" type="line"/>
    </contour>
    <contour>
      <point x="1416" y="-307"/>
      <point x="1525" y="-268"/>
      <point x="1600" y="-210" type="curve"/>
      <point x="1551" y="-120" type="line"/>
      <point x="1484" y="-172"/>
      <point x="1389" y="-205"/>
      <point x="1312" y="-205" type="curve" smooth="yes"/>
      <point x="1220" y="-206"/>
      <point x="1153" y="-161"/>
      <point x="1153" y="-79" type="curve" smooth="yes"/>
      <point x="1153" y="9"/>
      <point x="1221" y="56"/>
      <point x="1393" y="74" type="curve"/>
      <point x="1382" y="168" type="line"/>
      <point x="1102" y="149"/>
      <point x="1034" y="31"/>
      <point x="1034" y="-74" type="curve" smooth="yes"/>
      <point x="1034" y="-208"/>
      <point x="1131" y="-309"/>
      <point x="1310" y="-308" type="curve" smooth="yes"/>
    </contour>
    <contour>
      <point x="815" y="-1" type="line"/>
      <point x="815" y="1160" type="line"/>
      <point x="689" y="1160" type="line"/>
      <point x="689" y="-1" type="line"/>
    </contour>
    <contour>
      <point x="1297" y="140" type="line"/>
      <point x="1139" y="162"/>
      <point x="1085" y="224"/>
      <point x="1085" y="301" type="curve" smooth="yes"/>
      <point x="1085" y="390"/>
      <point x="1174" y="441"/>
      <point x="1318" y="445" type="curve"/>
      <point x="1344" y="528" type="line"/>
      <point x="1167" y="808" type="line"/>
      <point x="1079" y="763" type="line"/>
      <point x="1246" y="497" type="line"/>
      <point x="1256" y="539" type="line"/>
      <point x="1123" y="532"/>
      <point x="959" y="464"/>
      <point x="960" y="314" type="curve" smooth="yes"/>
      <point x="961" y="224"/>
      <point x="997" y="111"/>
      <point x="1246" y="87" type="curve"/>
    </contour>
    <contour>
      <point x="945" y="566"/>
      <point x="1058" y="620"/>
      <point x="1175" y="706" type="curve" smooth="yes"/>
      <point x="1236" y="753"/>
      <point x="1249" y="802"/>
      <point x="1249" y="837" type="curve" smooth="yes"/>
      <point x="1249" y="910"/>
      <point x="1177" y="949"/>
      <point x="1067" y="968" type="curve"/>
      <point x="985" y="906" type="line"/>
      <point x="1089" y="739" type="line"/>
      <point x="1102" y="798" type="line"/>
      <point x="996" y="700"/>
      <point x="878" y="661"/>
      <point x="749" y="670" type="curve"/>
      <point x="794" y="563" type="line"/>
    </contour>
    <contour>
      <point x="1517" y="1143" type="line"/>
      <point x="1517" y="1247" type="line"/>
      <point x="-12" y="1247" type="line"/>
      <point x="-12" y="1143" type="line"/>
    </contour>
    <contour>
      <point x="751" y="1168" type="move" name="top"/>
    </contour>
    <contour>
      <point x="751" y="28" type="move" name="bottom"/>
    </contour>
    <contour>
      <point x="749" y="1168" type="move" name="topcandra"/>
    </contour>
  </outline>
</glyph>
<glyph name="two-deva" format="1">
  <advance width="799"/>
  <unicode hex="0968"/>
  <outline>
    <contour>
      <point x="317" y="1269"/>
      <point x="193" y="1261"/>
      <point x="93" y="1211" type="curve"/>
      <point x="128" y="1112" type="line"/>
      <point x="192" y="1137"/>
      <point x="289" y="1162"/>
      <point x="369" y="1162" type="curve" smooth="yes"/>
      <point x="519" y="1162"/>
      <point x="609" y="1095"/>
      <point x="609" y="945" type="curve" smooth="yes"/>
      <point x="610" y="771"/>
      <point x="482" y="631"/>
      <point x="197" y="561" type="curve"/>
      <point x="289" y="473" type="line"/>
      <point x="550" y="550"/>
      <point x="731" y="713"/>
      <point x="731" y="941" type="curve" smooth="yes"/>
      <point x="730" y="1156"/>
      <point x="589" y="1269"/>
      <point x="371" y="1269" type="curve" smooth="yes"/>
    </contour>
    <contour>
      <point x="230" y="524" type="line"/>
      <point x="650" y="-12" type="line"/>
      <point x="752" y="70" type="line"/>
      <point x="314" y="562" type="line"/>
    </contour>
    <contour>
      <point x="133" y="694" type="line"/>
      <point x="94" y="630"/>
      <point x="88" y="589"/>
      <point x="88" y="564" type="curve" smooth="yes"/>
      <point x="88" y="492"/>
      <point x="140" y="455"/>
      <point x="204" y="455" type="curve" smooth="yes"/>
      <point x="222" y="455"/>
      <point x="268" y="459"/>
      <point x="364" y="481" type="curve"/>
      <point x="359" y="538" type="line"/>
      <point x="216" y="694" type="line"/>
    </contour>
  </outline>
</glyph>
<glyph name="five-deva" format="1">
  <advance width="1024"/>
  <unicode hex="096B"/>
  <outline>
    <contour>
      <point x="190" y="990"/>
      <point x="106" y="755"/>
      <point x="106" y="565" type="curve" smooth="yes"/>
      <point x="106" y="315"/>
      <point x="269" y="210"/>
      <point x="465" y="210" type="curve" smooth="yes"/>
      <point x="678" y="210"/>
      <point x="874" y="345"/>
      <point x="871" y="497" type="curve" smooth="yes"/>
      <point x="869" y="585"/>
      <point x="775" y="634"/>
      <point x="691" y="650" type="curve"/>
      <point x="595" y="587" type="line"/>
      <point x="739" y="388" type="line"/>
      <point x="764" y="462" type="line"/>
      <point x="676" y="360"/>
      <point x="573" y="327"/>
      <point x="466" y="327" type="curve" smooth="yes"/>
      <point x="339" y="327"/>
      <point x="234" y="400"/>
      <point x="234" y="570" type="curve" smooth="yes"/>
      <point x="234" y="761"/>
      <point x="354" y="1002"/>
      <point x="518" y="1193" type="curve"/>
      <point x="414" y="1270" type="line"/>
    </contour>
    <contour>
      <point x="747" y="375" type="line"/>
      <point x="969" y="87" type="line"/>
      <point x="1070" y="170" type="line"/>
      <point x="811" y="439" type="line"/>
    </contour>
  </outline>
</glyph>
<glyph name="nine-deva" format="1">
  <advance width="820"/>
  <unicode hex="096F"/>
  <outline>
    <contour>
      <point x="215" y="1267"/>
      <point x="88" y="1155"/>
      <point x="88" y="947" type="curve" smooth="yes"/>
      <point x="88" y="772"/>
      <point x="175" y="650"/>
      <point x="342" y="448" type="curve" smooth="yes"/>
      <point x="549" y="200"/>
      <point x="639" y="123"/>
      <point x="639" y="41" type="curve" smooth="yes"/>
      <point x="639" y="-38"/>
      <point x="557" y="-80"/>
      <point x="440" y="-107" type="curve"/>
      <point x="490" y="-215" type="line"/>
      <point x="646" y="-188"/>
      <point x="765" y="-82"/>
      <point x="765" y="42" type="curve" smooth="yes"/>
      <point x="765" y="175"/>
      <point x="657" y="268"/>
      <point x="432" y="535" type="curve" smooth="yes"/>
      <point x="278" y="717"/>
      <point x="214" y="794"/>
      <point x="214" y="933" type="curve" smooth="yes"/>
      <point x="213" y="1089"/>
      <point x="294" y="1154"/>
      <point x="430" y="1154" type="curve" smooth="yes"/>
      <point x="561" y="1154"/>
      <point x="631" y="1089"/>
      <point x="631" y="972" type="curve" smooth="yes"/>
      <point x="633" y="767"/>
      <point x="444" y="687"/>
      <point x="271" y="683" type="curve"/>
      <point x="300" y="596" type="line"/>
      <point x="501" y="596"/>
      <point x="758" y="699"/>
      <point x="757" y="981" type="curve" smooth="yes"/>
      <point x="756" y="1157"/>
      <point x="633" y="1267"/>
      <point x="426" y="1267" type="curve" smooth="yes"/>
    </contour>
  </outline>
</glyph>
<glyph name="ue-deva" format="1">
  <advance width="1386"/>
  <unicode hex="0976"/>
  <outline>
    <contour>
      <point x="295" y="18" type="line"/>
      <point x="342" y="-79"/>
      <point x="440" y="-173"/>
      <point x="598" y="-173" type="curve" smooth="yes"/>
      <point x="733" y="-173"/>
      <point x="837" y="-103"/>
      <point x="898" y="21" type="curve"/>
      <point x="821" y="68" type="line"/>
      <point x="779" y="2"/>
      <point x="711" y="-62"/>
      <point x="593" y="-62" type="curve" smooth="yes"/>
      <point x="470" y="-62"/>
      <point x="406" y="-6"/>
      <point x="361" y="66" type="curve"/>
    </contour>
    <component base="a-deva"/>
  </outline>
</glyph>
<glyph name="a.sups" format="1">
  <advance width="700"/>
  <unicode hex="1D43"/>
  <outline>
    <contour>
      <point x="281" y="516" type="curve" smooth="yes" name="hr00"/>
      <point x="367" y="516"/>
      <point x="436" y="561"/>
      <point x="492" y="610" type="curve"/>
      <point x="501" y="610" type="line"/>
      <point x="514" y="532" type="line"/>
      <point x="599" y="532" type="line"/>
      <point x="599" y="937" type="line"/>
      <point x="599" y="1104"/>
      <point x="535" y="1205"/>
      <point x="374" y="1205" type="curve" smooth="yes"/>
      <point x="267" y="1205"/>
      <point x="169" y="1157"/>
      <point x="107" y="1117" type="curve"/>
      <point x="148" y="1043" type="line"/>
      <point x="200" y="1076"/>
      <point x="284" y="1116"/>
      <point x="360" y="1116" type="curve" smooth="yes"/>
      <point x="463" y="1116"/>
      <point x="491" y="1044"/>
      <point x="493" y="949" type="curve"/>
      <point x="207" y="923"/>
      <point x="80" y="850"/>
      <point x="80" y="706" type="curve" smooth="yes"/>
      <point x="80" y="591"/>
      <point x="162" y="516"/>
    </contour>
    <contour>
      <point x="310" y="603" type="curve" smooth="yes"/>
      <point x="235" y="603"/>
      <point x="187" y="638"/>
      <point x="187" y="715" type="curve" smooth="yes"/>
      <point x="187" y="797"/>
      <point x="265" y="856"/>
      <point x="493" y="880" type="curve"/>
      <point x="493" y="693" type="line"/>
      <point x="428" y="632"/>
      <point x="369" y="603"/>
    </contour>
  </outline>
</glyph>
<glyph name="d.sups" format="1">
  <advance width="760"/>
  <unicode hex="1D48"/>
  <outline>
    <contour>
      <point x="351" y="516" type="curve" smooth="yes"/>
      <point x="430" y="516"/>
      <point x="488" y="558"/>
      <point x="543" y="606" type="curve"/>
      <point x="550" y="606" type="line"/>
      <point x="563" y="532" type="line"/>
      <point x="648" y="532" type="line"/>
      <point x="648" y="1496" type="line"/>
      <point x="542" y="1496" type="line"/>
      <point x="542" y="1244" type="line"/>
      <point x="548" y="1128" type="line"/>
      <point x="489" y="1176"/>
      <point x="431" y="1205"/>
      <point x="359" y="1205" type="curve" smooth="yes"/>
      <point x="209" y="1205"/>
      <point x="71" y="1076"/>
      <point x="71" y="872" type="curve" smooth="yes"/>
      <point x="71" y="644"/>
      <point x="177" y="516"/>
    </contour>
    <contour>
      <point x="374" y="606" type="curve" smooth="yes"/>
      <point x="242" y="606"/>
      <point x="181" y="705"/>
      <point x="181" y="872" type="curve" smooth="yes"/>
      <point x="181" y="1015"/>
      <point x="268" y="1116"/>
      <point x="372" y="1116" type="curve" smooth="yes"/>
      <point x="425" y="1116"/>
      <point x="483" y="1095"/>
      <point x="542" y="1042" type="curve"/>
      <point x="542" y="698" type="line"/>
      <point x="481" y="639"/>
      <point x="430" y="606"/>
    </contour>
  </outline>
</glyph>
<glyph name="m.sups" format="1">
  <advance width="1136"/>
  <unicode hex="1D50"/>
  <outline>
    <contour>
      <point x="111" y="532" type="line"/>
      <point x="217" y="532" type="line"/>
      <point x="217" y="1009" type="line"/>
      <point x="287" y="1080"/>
      <point x="337" y="1112"/>
      <point x="388" y="1112" type="curve" smooth="yes"/>
      <point x="490" y="1112"/>
      <point x="518" y="1043"/>
      <point x="518" y="932" type="curve" smooth="yes"/>
      <point x="518" y="532" type="line"/>
      <point x="625" y="532" type="line"/>
      <point x="625" y="1009" type="line"/>
      <point x="693" y="1080"/>
      <point x="744" y="1112"/>
      <point x="797" y="1112" type="curve" smooth="yes"/>
      <point x="898" y="1112"/>
      <point x="927" y="1043"/>
      <point x="927" y="932" type="curve" smooth="yes"/>
      <point x="927" y="532" type="line"/>
      <point x="1033" y="532" type="line"/>
      <point x="1033" y="949" type="line"/>
      <point x="1033" y="1100"/>
      <point x="974" y="1205"/>
      <point x="829" y="1205" type="curve" smooth="yes"/>
      <point x="742" y="1205"/>
      <point x="667" y="1145"/>
      <point x="605" y="1079" type="curve"/>
      <point x="576" y="1164"/>
      <point x="513" y="1205"/>
      <point x="421" y="1205" type="curve" smooth="yes"/>
      <point x="333" y="1205"/>
      <point x="270" y="1156"/>
      <point x="215" y="1093" type="curve"/>
      <point x="206" y="1093" type="line"/>
      <point x="196" y="1189" type="line"/>
      <point x="111" y="1189" type="line"/>
    </contour>
  </outline>
</glyph>
<glyph name="f.sups" format="1">
  <advance width="397"/>
  <unicode hex="1DA0"/>
  <outline>
    <contour>
      <point x="435" y="1495" type="line" name="hr01"/>
      <point x="399" y="1509"/>
      <point x="367" y="1517"/>
      <point x="325" y="1517" type="curve" smooth="yes"/>
      <point x="196" y="1517"/>
      <point x="133" y="1422"/>
      <point x="133" y="1289" type="curve" smooth="yes"/>
      <point x="133" y="1189" type="line"/>
      <point x="41" y="1183" type="line" name="hr02"/>
      <point x="41" y="1103" type="line" name="hr03"/>
      <point x="133" y="1103" type="line"/>
      <point x="133" y="532" type="line"/>
      <point x="240" y="532" type="line"/>
      <point x="240" y="1103" type="line"/>
      <point x="384" y="1103" type="line"/>
      <point x="384" y="1189" type="line"/>
      <point x="240" y="1189" type="line"/>
      <point x="240" y="1297" type="line"/>
      <point x="240" y="1376"/>
      <point x="271" y="1429"/>
      <point x="334" y="1429" type="curve" smooth="yes"/>
      <point x="367" y="1429"/>
      <point x="392" y="1421"/>
      <point x="411" y="1414" type="curve"/>
    </contour>
  </outline>
</glyph>
<glyph name="uni1E9E" format="1">
  <advance width="1335"/>
  <unicode hex="1E9E"/>
  <outline>
    <contour>
      <point x="187" y="0" type="line"/>
      <point x="325" y="0" type="line"/>
      <point x="325" y="829" type="line"/>
      <point x="325" y="1121"/>
      <point x="466" y="1253"/>
      <point x="693" y="1253" type="curve" smooth="yes"/>
      <point x="837" y="1253"/>
      <point x="929" y="1173"/>
      <point x="977" y="1074" type="curve"/>
      <point x="683" y="746" type="line"/>
      <point x="692" y="652" type="line"/>
      <point x="1027" y="597"/>
      <point x="1106" y="484"/>
      <point x="1106" y="346" type="curve" smooth="yes"/>
      <point x="1106" y="200"/>
      <point x="1015" y="94"/>
      <point x="858" y="94" type="curve" smooth="yes"/>
      <point x="751" y="94"/>
      <point x="665" y="135"/>
      <point x="583" y="226" type="curve"/>
      <point x="501" y="133" type="line"/>
      <point x="585" y="37"/>
      <point x="717" y="-25"/>
      <point x="868" y="-25" type="curve" smooth="yes"/>
      <point x="1095" y="-25"/>
      <point x="1251" y="135"/>
      <point x="1251" y="347" type="curve" smooth="yes"/>
      <point x="1251" y="540"/>
      <point x="1135" y="686"/>
      <point x="830" y="742" type="curve"/>
      <point x="1128" y="1069" type="line"/>
      <point x="1051" y="1251"/>
      <point x="917" y="1370"/>
      <point x="698" y="1370" type="curve" smooth="yes"/>
      <point x="354" y="1370"/>
      <point x="187" y="1149"/>
      <point x="187" y="858" type="curve" smooth="yes"/>
    </contour>
    <contour>
      <point x="719" y="1050" type="move" name="top"/>
    </contour>
  </outline>
</glyph>
<glyph name="figuredash" format="1">
  <advance width="1003"/>
  <unicode hex="2012"/>
  <outline>
    <contour>
      <point x="83" y="464" type="line" name="hr00"/>
      <point x="922" y="464" type="line"/>
      <point x="922" y="563" type="line"/>
      <point x="83" y="563" type="line"/>
    </contour>
  </outline>
</glyph>
<glyph name="daggerdbl" format="1">
  <advance width="901"/>
  <unicode hex="2021"/>
  <outline>
    <contour>
      <point x="116" y="149" type="line" name="hr00"/>
      <point x="399" y="158" type="line"/>
      <point x="391" y="-164" type="line"/>
      <point x="511" y="-164" type="line"/>
      <point x="503" y="158" type="line"/>
      <point x="786" y="149" type="line"/>
      <point x="786" y="270" type="line"/>
      <point x="503" y="260" type="line"/>
      <point x="511" y="647" type="line"/>
      <point x="503" y="1035" type="line"/>
      <point x="786" y="1024" type="line"/>
      <point x="786" y="1145" type="line"/>
      <point x="503" y="1136" type="line"/>
      <point x="511" y="1458" type="line"/>
      <point x="391" y="1458" type="line"/>
      <point x="399" y="1136" type="line"/>
      <point x="116" y="1145" type="line"/>
      <point x="116" y="1024" type="line"/>
      <point x="399" y="1035" type="line"/>
      <point x="391" y="647" type="line"/>
      <point x="399" y="260" type="line"/>
      <point x="116" y="270" type="line"/>
    </contour>
  </outline>
</glyph>
<glyph name="guilsinglleft" format="1">
  <advance width="545"/>
  <unicode hex="2039"/>
  <outline>
    <contour>
      <point x="370" y="140" type="line"/>
      <point x="434" y="190" type="line"/>
      <point x="189" y="516" type="line"/>
      <point x="434" y="838" type="line"/>
      <point x="370" y="892" type="line"/>
      <point x="90" y="570" type="line"/>
      <point x="90" y="463" type="line"/>
    </contour>
  </outline>
</glyph>
<glyph name="parenright.sups" format="1">
  <advance width="470"/>
  <unicode hex="207E"/>
  <outline>
    <contour>
      <point x="82" y="785" type="curve" name="hr00"/>
      <point x="161" y="745" type="line"/>
      <point x="274" y="907"/>
      <point x="336" y="1071"/>
      <point x="336" y="1299" type="curve" smooth="yes"/>
      <point x="336" y="1526"/>
      <point x="274" y="1688"/>
      <point x="161" y="1851" type="curve"/>
      <point x="82" y="1810" type="line"/>
      <point x="189" y="1652"/>
      <point x="228" y="1480"/>
      <point x="228" y="1299" type="curve" smooth="yes"/>
      <point x="228" y="1118"/>
      <point x="189" y="947"/>
    </contour>
  </outline>
</glyph>
<glyph name="two.subs" format="1">
  <advance width="747"/>
  <unicode hex="2082"/>
  <outline>
    <contour>
      <point x="110" y="-403" type="line"/>
      <point x="648" y="-403" type="line"/>
      <point x="648" y="-307" type="line"/>
      <point x="287" y="-307" type="line"/>
      <point x="471" y="-122"/>
      <point x="604" y="6"/>
      <point x="604" y="165" type="curve" smooth="yes"/>
      <point x="604" y="334"/>
      <point x="500" y="421"/>
      <point x="346" y="421" type="curve" smooth="yes"/>
      <point x="241" y="421"/>
      <point x="144" y="356"/>
      <point x="88" y="269" type="curve"/>
      <point x="155" y="207" type="line"/>
      <point x="200" y="275"/>
      <point x="262" y="327"/>
      <point x="333" y="327" type="curve" smooth="yes"/>
      <point x="432" y="327"/>
      <point x="495" y="259"/>
      <point x="495" y="151" type="curve" smooth="yes"/>
      <point x="495" y="24"/>
      <point x="368" y="-101"/>
      <point x="110" y="-337" type="curve"/>
    </contour>
  </outline>
</glyph>
<glyph name="four.subs" format="1">
  <advance width="747"/>
  <unicode hex="2084"/>
  <outline>
    <contour>
      <point x="211" y="-100" type="line"/>
      <point x="346" y="111" type="line"/>
      <point x="453" y="278" type="line"/>
      <point x="461" y="278" type="line"/>
      <point x="453" y="61" type="line"/>
      <point x="453" y="-100" type="line"/>
    </contour>
    <contour>
      <point x="672" y="-100" type="line"/>
      <point x="553" y="-100" type="line"/>
      <point x="553" y="396" type="line"/>
      <point x="436" y="396" type="line"/>
      <point x="89" y="-123" type="line"/>
      <point x="89" y="-181" type="line"/>
      <point x="453" y="-181" type="line"/>
      <point x="453" y="-403" type="line"/>
      <point x="553" y="-403" type="line"/>
      <point x="553" y="-181" type="line"/>
      <point x="672" y="-181" type="line"/>
    </contour>
  </outline>
</glyph>
<glyph name="lira" format="1">
  <advance width="1003"/>
  <unicode hex="20A4"/>
  <outline>
    <contour>
      <point x="907" y="0" type="line" name="hr01"/>
      <point x="907" y="119" type="line"/>
      <point x="319" y="119" type="line"/>
      <point x="319" y="128" type="line"/>
      <point x="407" y="214"/>
      <point x="455" y="308"/>
      <point x="455" y="462" type="curve" smooth="yes" name="hr02"/>
      <point x="455" y="472"/>
      <point x="455" y="481"/>
      <point x="454" y="490" type="curve"/>
      <point x="750" y="490" type="line"/>
      <point x="750" y="578" type="line"/>
      <point x="445" y="578" type="line"/>
      <point x="438" y="622"/>
      <point x="427" y="664"/>
      <point x="414" y="704" type="curve"/>
      <point x="750" y="704" type="line"/>
      <point x="750" y="792" type="line"/>
      <point x="391" y="792" type="line" name="hr03"/>
      <point x="375" y="850"/>
      <point x="364" y="905"/>
      <point x="364" y="964" type="curve" smooth="yes"/>
      <point x="364" y="1110"/>
      <point x="447" y="1216"/>
      <point x="603" y="1216" type="curve" smooth="yes"/>
      <point x="702" y="1216"/>
      <point x="768" y="1168"/>
      <point x="821" y="1102" type="curve"/>
      <point x="904" y="1182" type="line"/>
      <point x="836" y="1266"/>
      <point x="740" y="1332"/>
      <point x="596" y="1332" type="curve" smooth="yes"/>
      <point x="373" y="1332"/>
      <point x="228" y="1192"/>
      <point x="228" y="967" type="curve" smooth="yes"/>
      <point x="228" y="907"/>
      <point x="241" y="850"/>
      <point x="257" y="792" type="curve"/>
      <point x="236" y="792" type="line"/>
      <point x="110" y="783" type="line"/>
      <point x="110" y="704" type="line"/>
      <point x="283" y="704" type="line"/>
      <point x="297" y="663"/>
      <point x="307" y="621"/>
      <point x="318" y="578" type="curve"/>
      <point x="248" y="578" type="line"/>
      <point x="110" y="568" type="line"/>
      <point x="110" y="490" type="line"/>
      <point x="330" y="490" type="line" name="hr04"/>
      <point x="330" y="481"/>
      <point x="330" y="473"/>
      <point x="330" y="464" type="curve" smooth="yes"/>
      <point x="330" y="308"/>
      <point x="257" y="163"/>
      <point x="113" y="83" type="curve"/>
      <point x="113" y="0" type="line"/>
    </contour>
  </outline>
</glyph>
<glyph name="rupee" format="1">
  <advance width="832"/>
  <unicode hex="20A8"/>
  <outline>
    <contour>
      <point x="411" y="1191" type="line"/>
      <point x="411" y="799" type="line" smooth="yes"/>
      <point x="411" y="702"/>
      <point x="385" y="653"/>
      <point x="298" y="653" type="curve" smooth="yes"/>
      <point x="262" y="653"/>
      <point x="217" y="664"/>
      <point x="178" y="694" type="curve"/>
      <point x="97" y="630" type="line"/>
      <point x="530" y="-27" type="line"/>
      <point x="631" y="46" type="line"/>
      <point x="236" y="610" type="line"/>
      <point x="199" y="603" type="line"/>
      <point x="221" y="575"/>
      <point x="281" y="555"/>
      <point x="333" y="555" type="curve" smooth="yes"/>
      <point x="458" y="555"/>
      <point x="535" y="631"/>
      <point x="535" y="811" type="curve" smooth="yes"/>
      <point x="535" y="1192" type="line"/>
    </contour>
    <contour>
      <point x="38" y="1247" type="line"/>
      <point x="38" y="1143" type="line"/>
      <point x="723" y="1143" type="line"/>
      <point x="723" y="1247" type="line"/>
    </contour>
    <contour>
      <point x="38" y="971" type="line"/>
      <point x="38" y="867" type="line"/>
      <point x="723" y="867" type="line"/>
      <point x="723" y="971" type="line"/>
    </contour>
    <contour>
      <point x="412" y="1168" type="move" name="top"/>
    </contour>
    <contour>
      <point x="325" y="28" type="move" name="bottom"/>
    </contour>
  </outline>
</glyph>
<glyph name="dong" format="1">
  <advance width="1003"/>
  <unicode hex="20AB"/>
  <outline>
    <contour>
      <point x="163" y="0" type="line" name="hr00"/>
      <point x="878" y="0" type="line"/>
      <point x="878" y="88" type="line"/>
      <point x="163" y="88" type="line"/>
    </contour>
    <contour>
      <point x="694" y="441" type="line"/>
      <point x="624" y="360"/>
      <point x="555" y="325"/>
      <point x="482" y="325" type="curve" smooth="yes"/>
      <point x="343" y="325"/>
      <point x="265" y="434"/>
      <point x="265" y="612" type="curve" smooth="yes"/>
      <point x="265" y="758"/>
      <point x="365" y="872"/>
      <point x="490" y="872" type="curve" smooth="yes"/>
      <point x="571" y="872"/>
      <point x="622" y="845"/>
      <point x="694" y="780" type="curve"/>
    </contour>
    <contour>
      <point x="813" y="1223" type="line"/>
      <point x="813" y="1369" type="line"/>
      <point x="694" y="1369" type="line"/>
      <point x="694" y="1223" type="line"/>
      <point x="395" y="1223" type="line"/>
      <point x="395" y="1134" type="line"/>
      <point x="694" y="1134" type="line"/>
      <point x="694" y="1056" type="line"/>
      <point x="702" y="877" type="line"/>
      <point x="633" y="938"/>
      <point x="576" y="976"/>
      <point x="474" y="976" type="curve" smooth="yes"/>
      <point x="300" y="976"/>
      <point x="140" y="833"/>
      <point x="140" y="609" type="curve" smooth="yes"/>
      <point x="140" y="359"/>
      <point x="265" y="223"/>
      <point x="460" y="223" type="curve" smooth="yes"/>
      <point x="559" y="223"/>
      <point x="637" y="271"/>
      <point x="697" y="335" type="curve"/>
      <point x="704" y="335" type="line"/>
      <point x="715" y="244" type="line"/>
      <point x="813" y="244" type="line"/>
      <point x="813" y="1134" type="line"/>
      <point x="975" y="1145" type="line"/>
      <point x="975" y="1223" type="line"/>
    </contour>
  </outline>
</glyph>
<glyph name="uni20B2" format="1">
  <advance width="1003"/>
  <unicode hex="20B2"/>
  <outline>
    <contour>
      <point x="576" y="663" type="line"/>
      <point x="576" y="547" type="line"/>
      <point x="798" y="547" type="line"/>
      <point x="798" y="178" type="line"/>
      <point x="759" y="131"/>
      <point x="676" y="90"/>
      <point x="588" y="90" type="curve" smooth="yes"/>
      <point x="369" y="90"/>
      <point x="242" y="310"/>
      <point x="242" y="658" type="curve" smooth="yes"/>
      <point x="242" y="1002"/>
      <point x="373" y="1220"/>
      <point x="607" y="1220" type="curve" smooth="yes"/>
      <point x="701" y="1220"/>
      <point x="772" y="1169"/>
      <point x="833" y="1091" type="curve"/>
      <point x="917" y="1170" type="line"/>
      <point x="851" y="1253"/>
      <point x="752" y="1323"/>
      <point x="635" y="1331" type="curve"/>
      <point x="635" y="1533" type="line"/>
      <point x="531" y="1533" type="line"/>
      <point x="531" y="1327" type="line"/>
      <point x="266" y="1286"/>
      <point x="100" y="1036"/>
      <point x="100" y="653" type="curve" smooth="yes"/>
      <point x="100" y="258"/>
      <point x="274" y="6"/>
      <point x="531" y="-21" type="curve"/>
      <point x="531" y="-225" type="line"/>
      <point x="635" y="-225" type="line"/>
      <point x="635" y="-21" type="line"/>
      <point x="748" y="-10"/>
      <point x="848" y="40"/>
      <point x="925" y="124" type="curve"/>
      <point x="925" y="663" type="line"/>
    </contour>
  </outline>
</glyph>
<glyph name="uni20B9" format="1">
  <advance width="1003"/>
  <unicode hex="20B9"/>
  <outline>
    <contour>
      <point x="917" y="1308" type="line"/>
      <point x="148" y="1308" type="line"/>
      <point x="148" y="1193" type="line"/>
      <point x="297" y="1193" type="line"/>
      <point x="491" y="1193"/>
      <point x="613" y="1141"/>
      <point x="641" y="1006" type="curve"/>
      <point x="288" y="1006" type="line"/>
      <point x="148" y="997" type="line"/>
      <point x="148" y="918" type="line"/>
      <point x="646" y="918" type="line"/>
      <point x="637" y="738"/>
      <point x="510" y="654"/>
      <point x="297" y="654" type="curve" smooth="yes"/>
      <point x="148" y="654" type="line"/>
      <point x="148" y="540" type="line"/>
      <point x="310" y="540" type="line"/>
      <point x="691" y="0" type="line"/>
      <point x="849" y="0" type="line"/>
      <point x="454" y="552" type="line"/>
      <point x="643" y="586"/>
      <point x="774" y="705"/>
      <point x="783" y="918" type="curve"/>
      <point x="917" y="918" type="line"/>
      <point x="917" y="1006" type="line"/>
      <point x="779" y="1006" type="line"/>
      <point x="761" y="1103"/>
      <point x="702" y="1179"/>
      <point x="621" y="1220" type="curve"/>
      <point x="917" y="1220" type="line"/>
    </contour>
  </outline>
</glyph>
<glyph name="radical" format="1">
  <advance width="1126"/>
  <unicode hex="221A"/>
  <outline>
    <contour>
      <point x="343" y="811" type="line" name="hr00"/>
      <point x="91" y="698" type="line"/>
      <point x="126" y="617" type="line"/>
      <point x="270" y="683" type="line"/>
      <point x="577" y="-203" type="line"/>
      <point x="688" y="-203" type="line"/>
      <point x="1132" y="1679" type="line"/>
      <point x="1028" y="1679" type="line"/>
      <point x="654" y="77" type="line"/>
      <point x="645" y="38"/>
      <point x="638" y="-4"/>
      <point x="630" y="-44" type="curve"/>
      <point x="622" y="-44" type="line"/>
      <point x="612" y="-4"/>
      <point x="602" y="38"/>
      <point x="589" y="77" type="curve" smooth="yes"/>
    </contour>
  </outline>
</glyph>
<glyph name="integral" format="1">
  <advance width="652"/>
  <unicode hex="222B"/>
  <outline>
    <contour>
      <point x="129" y="-205" type="curve" name="hr01"/>
      <point x="111" y="-310" type="line"/>
      <point x="129" y="-318"/>
      <point x="164" y="-324"/>
      <point x="205" y="-324" type="curve" smooth="yes"/>
      <point x="417" y="-324"/>
      <point x="463" y="-126"/>
      <point x="463" y="136" type="curve" smooth="yes"/>
      <point x="463" y="431"/>
      <point x="377" y="867"/>
      <point x="377" y="1162" type="curve" smooth="yes"/>
      <point x="377" y="1377"/>
      <point x="398" y="1506"/>
      <point x="512" y="1506" type="curve" smooth="yes" name="hr02"/>
      <point x="541" y="1506"/>
      <point x="565" y="1502"/>
      <point x="583" y="1498" type="curve"/>
      <point x="601" y="1603" type="line"/>
      <point x="586" y="1610"/>
      <point x="549" y="1615"/>
      <point x="510" y="1615" type="curve" smooth="yes"/>
      <point x="295" y="1615"/>
      <point x="250" y="1415"/>
      <point x="250" y="1156" type="curve" smooth="yes"/>
      <point x="250" y="863"/>
      <point x="338" y="424"/>
      <point x="338" y="128" type="curve" smooth="yes"/>
      <point x="338" y="-88"/>
      <point x="318" y="-213"/>
      <point x="199" y="-213" type="curve" smooth="yes" name="hr03"/>
      <point x="170" y="-213"/>
      <point x="146" y="-210"/>
    </contour>
  </outline>
</glyph>
<glyph name="filledbox" format="1">
  <advance width="608"/>
  <unicode hex="25A0"/>
  <outline>
    <contour>
      <point x="111" y="739" type="line"/>
      <point x="111" y="342" type="line"/>
      <point x="497" y="342" type="line"/>
      <point x="497" y="739" type="line"/>
    </contour>
  </outline>
</glyph>
<glyph name="blackDiamond" format="1">
  <advance width="608"/>
  <unicode hex="25C6"/>
  <outline>
    <contour>
      <point x="27" y="540" type="line"/>
      <point x="304" y="265" type="line"/>
      <point x="579" y="540" type="line"/>
      <point x="304" y="814" type="line"/>
    </contour>
  </outline>
</glyph>
<glyph name="I.a" format="1">
  <advance width="679"/>
  <outline>
    <contour>
      <point x="92" y="0" type="line"/>
      <point x="583" y="0" type="line"/>
      <point x="583" y="119" type="line"/>
      <point x="408" y="119" type="line"/>
      <point x="408" y="1228" type="line"/>
      <point x="583" y="1228" type="line"/>
      <point x="583" y="1346" type="line"/>
      <point x="92" y="1346" type="line"/>
      <point x="92" y="1228" type="line"/>
      <point x="268" y="1228" type="line"/>
      <point x="268" y="119" type="line"/>
      <point x="92" y="119" type="line"/>
    </contour>
    <contour>
      <point x="289" y="0" type="move" name="mark0"/>
    </contour>
  </outline>
</glyph>
<glyph name="aiMatra_reph_anusvara-deva" format="1">
  <advance width="540"/>
  <outline>
    <component base="aiMatra-deva"/>
    <component base="reph_anusvara-deva" xOffset="31" yOffset="-3"/>
    <contour>
      <point x="422" y="1570" type="move" name="topcandra"/>
    </contour>
    <contour>
      <point x="264" y="1168" type="move" name="_top"/>
    </contour>
  </outline>
</glyph>
<glyph name="aring.a" format="1">
  <advance width="1128"/>
  <outline>
    <contour>
      <point x="243" y="494" type="curve" smooth="yes"/>
      <point x="243" y="730"/>
      <point x="379" y="899"/>
      <point x="554" y="899" type="curve" smooth="yes"/>
      <point x="641" y="899"/>
      <point x="722" y="868"/>
      <point x="814" y="785" type="curve"/>
      <point x="814" y="239" type="line"/>
      <point x="723" y="142"/>
      <point x="636" y="92"/>
      <point x="537" y="92" type="curve" smooth="yes"/>
      <point x="349" y="92"/>
      <point x="243" y="247"/>
    </contour>
    <contour>
      <point x="100" y="493" type="curve" smooth="yes"/>
      <point x="100" y="162"/>
      <point x="261" y="-25"/>
      <point x="510" y="-25" type="curve" smooth="yes"/>
      <point x="633" y="-25"/>
      <point x="740" y="43"/>
      <point x="819" y="121" type="curve"/>
      <point x="825" y="121" type="line"/>
      <point x="837" y="0" type="line"/>
      <point x="951" y="0" type="line"/>
      <point x="951" y="990" type="line"/>
      <point x="837" y="990" type="line"/>
      <point x="826" y="895" type="line"/>
      <point x="822" y="895" type="line"/>
      <point x="731" y="973"/>
      <point x="650" y="1015"/>
      <point x="536" y="1015" type="curve" smooth="yes"/>
      <point x="305" y="1015"/>
      <point x="100" y="814"/>
    </contour>
    <contour>
      <point x="571" y="1108" type="curve" smooth="yes"/>
      <point x="676" y="1108"/>
      <point x="752" y="1182"/>
      <point x="752" y="1292" type="curve" smooth="yes"/>
      <point x="752" y="1402"/>
      <point x="676" y="1476"/>
      <point x="571" y="1476" type="curve" smooth="yes"/>
      <point x="465" y="1476"/>
      <point x="388" y="1402"/>
      <point x="388" y="1292" type="curve" smooth="yes"/>
      <point x="388" y="1182"/>
      <point x="465" y="1108"/>
    </contour>
    <contour>
      <point x="571" y="1174" type="curve" smooth="yes"/>
      <point x="514" y="1174"/>
      <point x="469" y="1221"/>
      <point x="469" y="1292" type="curve" smooth="yes"/>
      <point x="469" y="1363"/>
      <point x="514" y="1410"/>
      <point x="571" y="1410" type="curve" smooth="yes"/>
      <point x="627" y="1410"/>
      <point x="673" y="1363"/>
      <point x="673" y="1292" type="curve" smooth="yes"/>
      <point x="673" y="1221"/>
      <point x="627" y="1174"/>
    </contour>
  </outline>
</glyph>
<glyph name="auMatra_reph-deva" format="1">
  <advance width="554"/>
  <outline>
    <component base="aaMatra-deva"/>
    <component base="aiMatra_reph-deva" xOffset="13"/>
    <contour>
      <point x="440" y="1555" type="move" name="topcandra"/>
    </contour>
  </outline>
</glyph>
<glyph name="b_na-deva" format="1">
  <advance width="1103"/>
  <outline>
    <contour>
      <point x="815" y="357" type="line"/>
      <point x="770" y="441" type="line"/>
      <point x="215" y="47" type="line"/>
      <point x="271" y="-44" type="line"/>
      <point x="482" y="-121" type="line"/>
      <point x="504" y="-101"/>
      <point x="512" y="-82"/>
      <point x="513" y="-63" type="curve" smooth="yes"/>
      <point x="513" y="-43"/>
      <point x="506" y="-23"/>
      <point x="493" y="-4" type="curve" smooth="yes"/>
      <point x="424" y="94" type="line"/>
      <point x="406" y="40" type="line"/>
    </contour>
    <component base="ba-deva"/>
  </outline>
</glyph>
<glyph name="bh_la-deva.loclMAR" format="1">
  <advance width="1218"/>
  <outline>
    <contour>
      <point x="158" y="1269"/>
      <point x="108" y="1258"/>
      <point x="71" y="1243" type="curve"/>
      <point x="92" y="1141" type="line"/>
      <point x="117" y="1148"/>
      <point x="157" y="1158"/>
      <point x="200" y="1158" type="curve" smooth="yes"/>
      <point x="271" y="1158"/>
      <point x="304" y="1132"/>
      <point x="304" y="1041" type="curve" smooth="yes"/>
      <point x="304" y="576" type="line"/>
      <point x="430" y="576" type="line"/>
      <point x="430" y="1037" type="line" smooth="yes"/>
      <point x="430" y="1144"/>
      <point x="412" y="1269"/>
      <point x="218" y="1269" type="curve" smooth="yes"/>
    </contour>
    <contour>
      <point x="319" y="634" type="line"/>
      <point x="151" y="614" type="line"/>
      <point x="151" y="523" type="line"/>
      <point x="321" y="334" type="line"/>
      <point x="411" y="337"/>
      <point x="429" y="386"/>
      <point x="429" y="444" type="curve" smooth="yes"/>
      <point x="429" y="634" type="line"/>
    </contour>
    <contour>
      <point x="310" y="626" type="line"/>
      <point x="310" y="514" type="line"/>
      <point x="969" y="514" type="line"/>
      <point x="969" y="626" type="line"/>
    </contour>
    <contour>
      <point x="876" y="1196" type="line"/>
      <point x="876" y="80" type="line"/>
      <point x="1002" y="80" type="line"/>
      <point x="1002" y="1196" type="line"/>
    </contour>
    <contour>
      <point x="682" y="1247" type="line"/>
      <point x="682" y="1143" type="line"/>
      <point x="1231" y="1143" type="line"/>
      <point x="1231" y="1247" type="line"/>
    </contour>
    <component base="add" xOffset="94"/>
    <contour>
      <point x="938" y="1168" type="move" name="top"/>
    </contour>
    <contour>
      <point x="897" y="-489" type="move" name="bottom"/>
    </contour>
    <contour>
      <point x="667" y="1168" type="move" name="topcandra"/>
    </contour>
  </outline>
</glyph>
<glyph name="bha_ra-deva" format="1">
  <advance width="1215"/>
  <outline>
    <contour>
      <point x="990" y="450" type="line"/>
      <point x="941" y="538" type="line"/>
      <point x="292" y="60" type="line"/>
      <point x="370" y="-32" type="line"/>
    </contour>
    <component base="bha-deva"/>
    <contour>
      <point x="940" y="1168" type="move" name="top"/>
    </contour>
    <contour>
      <point x="942" y="28" type="move" name="bottom"/>
    </contour>
    <contour>
      <point x="676" y="1168" type="move" name="topcandra"/>
    </contour>
  </outline>
</glyph>
<glyph name="ca_ra-deva" format="1">
  <advance width="1220"/>
  <outline>
    <contour>
      <point x="242" y="45" type="line"/>
      <point x="311" y="-52" type="line"/>
      <point x="929" y="354" type="line"/>
      <point x="897" y="419" type="line"/>
    </contour>
    <component base="ca-deva"/>
    <contour>
      <point x="944" y="1168" type="move" name="top"/>
    </contour>
    <contour>
      <point x="941" y="28" type="move" name="bottom"/>
    </contour>
    <contour>
      <point x="600" y="1167" type="move" name="topcandra"/>
    </contour>
  </outline>
</glyph>
<glyph name="candraBindu_iMatra-deva" format="1">
  <advance width="540"/>
  <outline>
    <component base="eCandraMatra-deva" xOffset="2"/>
    <component base="anusvara-deva" xOffset="2" yOffset="85"/>
    <contour>
      <point x="-35" y="1186" type="move" name="_top"/>
    </contour>
  </outline>
</glyph>
<glyph name="d_bha-deva" format="1">
  <advance width="1335"/>
  <outline>
    <contour>
      <point x="-28" y="242"/>
      <point x="-66" y="208"/>
      <point x="-90" y="176" type="curve"/>
      <point x="-24" y="101" type="line"/>
      <point x="-5" y="120"/>
      <point x="24" y="148"/>
      <point x="60" y="170" type="curve" smooth="yes"/>
      <point x="124" y="208"/>
      <point x="162" y="201"/>
      <point x="210" y="117" type="curve" smooth="yes"/>
      <point x="389" y="-191" type="line"/>
      <point x="490" y="-132" type="line"/>
      <point x="313" y="172" type="line" smooth="yes"/>
      <point x="259" y="265"/>
      <point x="183" y="364"/>
      <point x="19" y="269" type="curve" smooth="yes"/>
    </contour>
    <contour>
      <point x="377" y="-137" type="line"/>
      <point x="241" y="-238" type="line"/>
      <point x="286" y="-317" type="line"/>
      <point x="525" y="-393" type="line"/>
      <point x="595" y="-348"/>
      <point x="584" y="-298"/>
      <point x="556" y="-248" type="curve" smooth="yes"/>
      <point x="463" y="-86" type="line"/>
    </contour>
    <contour>
      <point x="367" y="-144" type="line"/>
      <point x="422" y="-246" type="line"/>
      <point x="1114" y="169" type="line"/>
      <point x="1021" y="217" type="line"/>
    </contour>
    <contour>
      <point x="960" y="1178" type="line"/>
      <point x="960" y="865" type="line"/>
      <point x="1019" y="885" type="line"/>
      <point x="961" y="896"/>
      <point x="905" y="901"/>
      <point x="855" y="901" type="curve" smooth="yes"/>
      <point x="512" y="901"/>
      <point x="391" y="749"/>
      <point x="391" y="506" type="curve" smooth="yes"/>
      <point x="391" y="254"/>
      <point x="546" y="108"/>
      <point x="835" y="108" type="curve" smooth="yes"/>
      <point x="952" y="108"/>
      <point x="1054" y="127"/>
      <point x="1129" y="177" type="curve" smooth="yes"/>
      <point x="1198" y="223"/>
      <point x="1224" y="272"/>
      <point x="1224" y="324" type="curve" smooth="yes"/>
      <point x="1224" y="399"/>
      <point x="1156" y="464"/>
      <point x="1051" y="496" type="curve"/>
      <point x="974" y="426" type="line"/>
      <point x="1070" y="240" type="line"/>
      <point x="1090" y="281" type="line"/>
      <point x="995" y="222"/>
      <point x="915" y="206"/>
      <point x="831" y="206" type="curve" smooth="yes"/>
      <point x="649" y="206"/>
      <point x="524" y="281"/>
      <point x="524" y="497" type="curve" smooth="yes"/>
      <point x="524" y="706"/>
      <point x="623" y="788"/>
      <point x="863" y="788" type="curve" smooth="yes"/>
      <point x="964" y="788"/>
      <point x="1060" y="781"/>
      <point x="1087" y="780" type="curve"/>
      <point x="1087" y="1178" type="line"/>
    </contour>
    <contour>
      <point x="1081" y="212" type="line"/>
      <point x="1255" y="-106" type="line"/>
      <point x="1356" y="-44" type="line"/>
      <point x="1157" y="247" type="line"/>
    </contour>
    <contour>
      <point x="-20" y="1247" type="line"/>
      <point x="-20" y="1143" type="line"/>
      <point x="1355" y="1143" type="line"/>
      <point x="1355" y="1247" type="line"/>
    </contour>
    <contour>
      <point x="1024" y="1168" type="move" name="top"/>
    </contour>
    <contour>
      <point x="1207" y="-26" type="move" name="bottom"/>
    </contour>
    <contour>
      <point x="763" y="1168" type="move" name="topcandra"/>
    </contour>
  </outline>
</glyph>
<glyph name="d_da-deva" format="1">
  <advance width="995"/>
  <outline>
    <contour>
      <point x="224" y="511"/>
      <point x="105" y="360"/>
      <point x="105" y="188" type="curve" smooth="yes"/>
      <point x="105" y="7"/>
      <point x="256" y="-136"/>
      <point x="503" y="-136" type="curve" smooth="yes"/>
      <point x="677" y="-136"/>
      <point x="805" y="-67"/>
      <point x="871" y="0" type="curve" smooth="yes"/>
      <point x="922" y="51"/>
      <point x="945" y="104"/>
      <point x="939" y="154" type="curve" smooth="yes"/>
      <point x="930" y="232"/>
      <point x="860" y="290"/>
      <point x="738" y="303" type="curve"/>
      <point x="674" y="221" type="line"/>
      <point x="801" y="54" type="line"/>
      <point x="813" y="100" type="line"/>
      <point x="714" y="12"/>
      <point x="640" y="-26"/>
      <point x="519" y="-26" type="curve" smooth="yes"/>
      <point x="355" y="-26"/>
      <point x="234" y="44"/>
      <point x="234" y="188" type="curve" smooth="yes"/>
      <point x="234" y="329"/>
      <point x="347" y="404"/>
      <point x="581" y="428" type="curve"/>
      <point x="560" y="531" type="line"/>
    </contour>
    <contour>
      <point x="816" y="30" type="line"/>
      <point x="1038" y="-248" type="line"/>
      <point x="1127" y="-169" type="line"/>
      <point x="884" y="78" type="line"/>
    </contour>
    <contour>
      <point x="332" y="918" type="line" smooth="yes"/>
      <point x="184" y="918"/>
      <point x="88" y="851"/>
      <point x="88" y="707" type="curve" smooth="yes"/>
      <point x="88" y="578"/>
      <point x="154" y="463"/>
      <point x="239" y="406" type="curve"/>
      <point x="340" y="437" type="line"/>
      <point x="260" y="490"/>
      <point x="210" y="590"/>
      <point x="210" y="683" type="curve" smooth="yes"/>
      <point x="210" y="762"/>
      <point x="241" y="806"/>
      <point x="364" y="806" type="curve" smooth="yes"/>
      <point x="664" y="806" type="line"/>
      <point x="650" y="918" type="line"/>
    </contour>
    <contour>
      <point x="586" y="1197" type="line"/>
      <point x="586" y="806" type="line"/>
      <point x="711" y="806" type="line"/>
      <point x="711" y="1197" type="line"/>
    </contour>
    <contour>
      <point x="-12" y="1247" type="line"/>
      <point x="-12" y="1143" type="line"/>
      <point x="1012" y="1143" type="line"/>
      <point x="1012" y="1247" type="line"/>
    </contour>
    <contour>
      <point x="649" y="1168" type="move" name="top"/>
    </contour>
    <contour>
      <point x="603" y="-98" type="move" name="bottom"/>
    </contour>
    <contour>
      <point x="531" y="1167" type="move" name="topcandra"/>
    </contour>
  </outline>
</glyph>
<glyph name="dd_ddha-deva" format="1">
  <advance width="1087"/>
  <outline>
    <contour>
      <point x="-12" y="1247" type="line"/>
      <point x="-12" y="1143" type="line"/>
      <point x="1100" y="1143" type="line"/>
      <point x="1100" y="1247" type="line"/>
    </contour>
    <contour>
      <point x="736" y="1207" type="line"/>
      <point x="736" y="882" type="line"/>
      <point x="861" y="882" type="line"/>
      <point x="861" y="1207" type="line"/>
    </contour>
    <contour>
      <point x="425" y="986" type="line" smooth="yes"/>
      <point x="260" y="986"/>
      <point x="186" y="935"/>
      <point x="186" y="822" type="curve" smooth="yes"/>
      <point x="186" y="722"/>
      <point x="243" y="604"/>
      <point x="307" y="553" type="curve"/>
      <point x="332" y="537"/>
      <point x="345" y="536"/>
      <point x="361" y="538" type="curve" smooth="yes"/>
      <point x="400" y="543"/>
      <point x="566" y="569"/>
      <point x="682" y="569" type="curve" smooth="yes"/>
      <point x="811" y="569"/>
      <point x="859" y="533"/>
      <point x="859" y="452" type="curve" smooth="yes"/>
      <point x="859" y="344"/>
      <point x="762" y="293"/>
      <point x="598" y="293" type="curve" smooth="yes"/>
      <point x="377" y="293"/>
      <point x="278" y="373"/>
      <point x="173" y="480" type="curve"/>
      <point x="107" y="416" type="line"/>
      <point x="231" y="273"/>
      <point x="387" y="187"/>
      <point x="590" y="187" type="curve" smooth="yes"/>
      <point x="791" y="187"/>
      <point x="973" y="259"/>
      <point x="973" y="464" type="curve" smooth="yes"/>
      <point x="973" y="651"/>
      <point x="822" y="679"/>
      <point x="681" y="678" type="curve" smooth="yes"/>
      <point x="565" y="678"/>
      <point x="408" y="658"/>
      <point x="336" y="641" type="curve"/>
      <point x="359" y="630" type="line"/>
      <point x="337" y="651"/>
      <point x="298" y="716"/>
      <point x="298" y="787" type="curve" smooth="yes"/>
      <point x="298" y="856"/>
      <point x="331" y="882"/>
      <point x="451" y="882" type="curve" smooth="yes"/>
      <point x="808" y="882" type="line"/>
      <point x="795" y="986" type="line"/>
    </contour>
    <contour>
      <point x="282" y="88"/>
      <point x="383" y="185"/>
      <point x="646" y="190" type="curve"/>
      <point x="622" y="271" type="line"/>
      <point x="296" y="271"/>
      <point x="158" y="137"/>
      <point x="158" y="-102" type="curve" smooth="yes"/>
      <point x="158" y="-379"/>
      <point x="344" y="-502"/>
      <point x="610" y="-502" type="curve" smooth="yes"/>
      <point x="834" y="-502"/>
      <point x="1026" y="-413"/>
      <point x="1026" y="-221" type="curve" smooth="yes"/>
      <point x="1026" y="-91"/>
      <point x="933" y="-18"/>
      <point x="796" y="-18" type="curve" smooth="yes"/>
      <point x="644" y="-18"/>
      <point x="582" y="-108"/>
      <point x="582" y="-200" type="curve" smooth="yes"/>
      <point x="582" y="-300"/>
      <point x="643" y="-368"/>
      <point x="729" y="-425" type="curve"/>
      <point x="815" y="-401" type="line"/>
      <point x="724" y="-341"/>
      <point x="692" y="-275"/>
      <point x="692" y="-215" type="curve" smooth="yes"/>
      <point x="692" y="-156"/>
      <point x="726" y="-112"/>
      <point x="803" y="-112" type="curve" smooth="yes"/>
      <point x="871" y="-112"/>
      <point x="923" y="-140"/>
      <point x="923" y="-215" type="curve" smooth="yes"/>
      <point x="923" y="-320"/>
      <point x="834" y="-398"/>
      <point x="625" y="-399" type="curve" smooth="yes"/>
      <point x="387" y="-400"/>
      <point x="282" y="-314"/>
      <point x="282" y="-104" type="curve" smooth="yes"/>
    </contour>
    <contour>
      <point x="798" y="1168" type="move" name="top"/>
    </contour>
    <contour>
      <point x="624" y="-467" type="move" name="bottom"/>
    </contour>
    <contour>
      <point x="590" y="1168" type="move" name="topcandra"/>
    </contour>
  </outline>
</glyph>
<glyph name="dd_gha-deva" format="1">
  <advance width="1156"/>
  <outline>
    <contour>
      <point x="788" y="191"/>
      <point x="970" y="256"/>
      <point x="970" y="464" type="curve" smooth="yes"/>
      <point x="970" y="651"/>
      <point x="819" y="679"/>
      <point x="678" y="678" type="curve" smooth="yes"/>
      <point x="562" y="678"/>
      <point x="405" y="658"/>
      <point x="333" y="641" type="curve"/>
      <point x="356" y="630" type="line"/>
      <point x="334" y="650"/>
      <point x="295" y="716"/>
      <point x="295" y="787" type="curve" smooth="yes"/>
      <point x="295" y="856"/>
      <point x="328" y="882"/>
      <point x="448" y="882" type="curve" smooth="yes"/>
      <point x="805" y="882" type="line"/>
      <point x="792" y="986" type="line"/>
      <point x="422" y="986" type="line" smooth="yes"/>
      <point x="257" y="986"/>
      <point x="183" y="935"/>
      <point x="183" y="822" type="curve" smooth="yes"/>
      <point x="183" y="722"/>
      <point x="240" y="604"/>
      <point x="304" y="553" type="curve"/>
      <point x="329" y="537"/>
      <point x="342" y="536"/>
      <point x="358" y="538" type="curve" smooth="yes"/>
      <point x="397" y="543"/>
      <point x="563" y="569"/>
      <point x="679" y="569" type="curve" smooth="yes"/>
      <point x="808" y="569"/>
      <point x="856" y="533"/>
      <point x="856" y="452" type="curve" smooth="yes"/>
      <point x="856" y="340"/>
      <point x="759" y="294"/>
      <point x="595" y="294" type="curve" smooth="yes"/>
      <point x="394" y="294"/>
      <point x="274" y="369"/>
      <point x="168" y="476" type="curve"/>
      <point x="104" y="415" type="line"/>
      <point x="242" y="252"/>
      <point x="411" y="191"/>
      <point x="587" y="191" type="curve" smooth="yes"/>
    </contour>
    <contour>
      <point x="630" y="-482"/>
      <point x="753" y="-425"/>
      <point x="829" y="-331" type="curve"/>
      <point x="810" y="-217" type="line"/>
      <point x="731" y="-323"/>
      <point x="615" y="-382"/>
      <point x="494" y="-382" type="curve" smooth="yes"/>
      <point x="397" y="-382"/>
      <point x="349" y="-339"/>
      <point x="349" y="-258" type="curve" smooth="yes"/>
      <point x="349" y="-167"/>
      <point x="404" y="-130"/>
      <point x="529" y="-116" type="curve"/>
      <point x="525" y="-26" type="line"/>
      <point x="294" y="-38"/>
      <point x="231" y="-151"/>
      <point x="231" y="-259" type="curve" smooth="yes"/>
      <point x="231" y="-390"/>
      <point x="321" y="-482"/>
      <point x="486" y="-482" type="curve" smooth="yes"/>
    </contour>
    <contour>
      <point x="428" y="-77" type="line"/>
      <point x="344" y="-36"/>
      <point x="306" y="6"/>
      <point x="306" y="79" type="curve" smooth="yes"/>
      <point x="306" y="146"/>
      <point x="363" y="197"/>
      <point x="474" y="207" type="curve"/>
      <point x="449" y="276" type="line"/>
      <point x="325" y="270"/>
      <point x="188" y="212"/>
      <point x="188" y="85" type="curve" smooth="yes"/>
      <point x="188" y="10"/>
      <point x="230" y="-66"/>
      <point x="380" y="-126" type="curve"/>
    </contour>
    <contour>
      <point x="890" y="-605" type="line"/>
      <point x="890" y="303" type="line"/>
      <point x="772" y="303" type="line"/>
      <point x="772" y="-605" type="line"/>
    </contour>
    <contour>
      <point x="1169" y="1143" type="line"/>
      <point x="1169" y="1247" type="line"/>
      <point x="-12" y="1247" type="line"/>
      <point x="-12" y="1143" type="line"/>
    </contour>
    <contour>
      <point x="858" y="882" type="line"/>
      <point x="858" y="1207" type="line"/>
      <point x="735" y="1207" type="line"/>
      <point x="735" y="882" type="line"/>
    </contour>
    <contour>
      <point x="798" y="1167" type="move" name="top"/>
    </contour>
    <contour>
      <point x="841" y="-582" type="move" name="bottom"/>
    </contour>
    <contour>
      <point x="588" y="1167" type="move" name="topcandra"/>
    </contour>
  </outline>
</glyph>
<glyph name="dd_na-deva" format="1">
  <advance width="1041"/>
  <outline>
    <contour>
      <point x="791" y="191"/>
      <point x="973" y="256"/>
      <point x="973" y="464" type="curve" smooth="yes"/>
      <point x="973" y="651"/>
      <point x="822" y="679"/>
      <point x="681" y="678" type="curve" smooth="yes"/>
      <point x="565" y="678"/>
      <point x="408" y="658"/>
      <point x="336" y="641" type="curve"/>
      <point x="359" y="630" type="line"/>
      <point x="337" y="650"/>
      <point x="298" y="716"/>
      <point x="298" y="787" type="curve" smooth="yes"/>
      <point x="298" y="856"/>
      <point x="331" y="882"/>
      <point x="451" y="882" type="curve" smooth="yes"/>
      <point x="808" y="882" type="line"/>
      <point x="795" y="986" type="line"/>
      <point x="425" y="986" type="line" smooth="yes"/>
      <point x="260" y="986"/>
      <point x="186" y="935"/>
      <point x="186" y="822" type="curve" smooth="yes"/>
      <point x="186" y="722"/>
      <point x="243" y="604"/>
      <point x="307" y="553" type="curve"/>
      <point x="332" y="537"/>
      <point x="345" y="536"/>
      <point x="361" y="538" type="curve" smooth="yes"/>
      <point x="400" y="543"/>
      <point x="566" y="569"/>
      <point x="682" y="569" type="curve" smooth="yes"/>
      <point x="811" y="569"/>
      <point x="859" y="533"/>
      <point x="859" y="452" type="curve" smooth="yes"/>
      <point x="859" y="340"/>
      <point x="762" y="294"/>
      <point x="598" y="294" type="curve" smooth="yes"/>
      <point x="390" y="294"/>
      <point x="277" y="369"/>
      <point x="171" y="476" type="curve"/>
      <point x="107" y="415" type="line"/>
      <point x="245" y="252"/>
      <point x="407" y="198"/>
      <point x="590" y="191" type="curve" smooth="yes"/>
    </contour>
    <contour>
      <point x="419" y="-314"/>
      <point x="434" y="-252"/>
      <point x="434" y="-177" type="curve" smooth="yes"/>
      <point x="434" y="-2" type="line"/>
      <point x="201" y="-2" type="line"/>
      <point x="201" y="-114" type="line"/>
      <point x="337" y="-314" type="line"/>
    </contour>
    <contour>
      <point x="801" y="-110" type="line"/>
      <point x="801" y="-1" type="line"/>
      <point x="328" y="-2" type="line"/>
      <point x="328" y="-110" type="line"/>
    </contour>
    <contour>
      <point x="860" y="-469" type="line"/>
      <point x="860" y="275" type="line"/>
      <point x="738" y="275" type="line"/>
      <point x="738" y="-469" type="line"/>
    </contour>
    <contour>
      <point x="1054" y="1143" type="line"/>
      <point x="1054" y="1247" type="line"/>
      <point x="-12" y="1247" type="line"/>
      <point x="-12" y="1143" type="line"/>
    </contour>
    <contour>
      <point x="861" y="882" type="line"/>
      <point x="861" y="1207" type="line"/>
      <point x="736" y="1207" type="line"/>
      <point x="736" y="882" type="line"/>
    </contour>
    <contour>
      <point x="803" y="1168" type="move" name="top"/>
    </contour>
    <contour>
      <point x="803" y="-447" type="move" name="bottom"/>
    </contour>
    <contour>
      <point x="552" y="1168" type="move" name="topcandra"/>
    </contour>
  </outline>
</glyph>
<glyph name="eMatra_reph-deva" format="1">
  <advance width="539"/>
  <outline>
    <component base="reph-deva" xOffset="22"/>
    <component base="eMatra-deva"/>
    <contour>
      <point x="423" y="1570" type="move" name="topcandra"/>
    </contour>
    <contour>
      <point x="265" y="1168" type="move" name="_top"/>
    </contour>
  </outline>
</glyph>
<glyph name="five.numr" format="1">
  <advance width="777"/>
  <outline>
    <contour>
      <point x="91" y="679" type="line"/>
      <point x="152" y="592"/>
      <point x="247" y="522"/>
      <point x="388" y="522" type="curve" smooth="yes"/>
      <point x="546" y="522"/>
      <point x="668" y="634"/>
      <point x="668" y="799" type="curve" smooth="yes"/>
      <point x="668" y="973"/>
      <point x="551" y="1068"/>
      <point x="407" y="1068" type="curve" smooth="yes"/>
      <point x="353" y="1068"/>
      <point x="309" y="1054"/>
      <point x="269" y="1033" type="curve"/>
      <point x="294" y="1248" type="line"/>
      <point x="627" y="1248" type="line"/>
      <point x="627" y="1346" type="line"/>
      <point x="201" y="1346" type="line"/>
      <point x="163" y="963" type="line"/>
      <point x="221" y="923" type="line"/>
      <point x="264" y="958"/>
      <point x="312" y="991"/>
      <point x="379" y="991" type="curve" smooth="yes"/>
      <point x="485" y="991"/>
      <point x="558" y="919"/>
      <point x="558" y="802" type="curve" smooth="yes"/>
      <point x="558" y="692"/>
      <point x="483" y="612"/>
      <point x="384" y="612" type="curve" smooth="yes"/>
      <point x="286" y="612"/>
      <point x="219" y="661"/>
      <point x="167" y="736" type="curve"/>
    </contour>
  </outline>
</glyph>
<glyph name="ga_ra-deva" format="1">
  <advance width="1137"/>
  <outline>
    <contour>
      <point x="879" y="455" type="line"/>
      <point x="836" y="546" type="line"/>
      <point x="201" y="74" type="line"/>
      <point x="279" y="-18" type="line"/>
    </contour>
    <component base="ga-deva"/>
    <contour>
      <point x="861" y="1168" type="move" name="top"/>
    </contour>
    <contour>
      <point x="861" y="28" type="move" name="bottom"/>
    </contour>
    <contour>
      <point x="598" y="1168" type="move" name="topcandra"/>
    </contour>
  </outline>
</glyph>
<glyph name="ghh-deva" format="1">
  <advance width="604"/>
  <outline>
    <contour>
      <point x="273" y="685" type="line"/>
      <point x="99" y="665" type="line"/>
      <point x="99" y="576" type="line"/>
      <point x="269" y="386" type="line"/>
      <point x="358" y="389"/>
      <point x="377" y="437"/>
      <point x="377" y="495" type="curve" smooth="yes"/>
      <point x="377" y="685" type="line"/>
    </contour>
    <contour>
      <point x="252" y="1191" type="line"/>
      <point x="252" y="520" type="line"/>
      <point x="378" y="622" type="line"/>
      <point x="378" y="1191" type="line"/>
    </contour>
    <contour>
      <point x="-12" y="1247" type="line"/>
      <point x="-12" y="1143" type="line"/>
      <point x="617" y="1143" type="line"/>
      <point x="617" y="1247" type="line"/>
    </contour>
    <contour>
      <point x="247" y="237"/>
      <point x="223" y="214"/>
      <point x="223" y="159" type="curve" smooth="yes"/>
      <point x="223" y="105"/>
      <point x="247" y="82"/>
      <point x="302" y="82" type="curve" smooth="yes"/>
      <point x="357" y="82"/>
      <point x="381" y="105"/>
      <point x="381" y="159" type="curve" smooth="yes"/>
      <point x="381" y="214"/>
      <point x="357" y="237"/>
      <point x="302" y="237" type="curve" smooth="yes"/>
    </contour>
  </outline>
</glyph>
<glyph name="h_va-deva" format="1">
  <advance width="1077"/>
  <outline>
    <contour>
      <point x="327" y="554"/>
      <point x="88" y="479"/>
      <point x="88" y="197" type="curve" smooth="yes"/>
      <point x="88" y="-57"/>
      <point x="315" y="-297"/>
      <point x="778" y="-387" type="curve"/>
      <point x="807" y="-287" type="line"/>
      <point x="424" y="-214"/>
      <point x="211" y="-21"/>
      <point x="211" y="193" type="curve" smooth="yes"/>
      <point x="211" y="384"/>
      <point x="342" y="444"/>
      <point x="550" y="444" type="curve" smooth="yes"/>
      <point x="795" y="444"/>
      <point x="858" y="332"/>
      <point x="859" y="197" type="curve" smooth="yes"/>
      <point x="859" y="123"/>
      <point x="854" y="34"/>
      <point x="837" y="-69" type="curve"/>
      <point x="933" y="-80" type="line"/>
      <point x="954" y="4"/>
      <point x="964" y="120"/>
      <point x="964" y="189" type="curve" smooth="yes"/>
      <point x="964" y="394"/>
      <point x="846" y="554"/>
      <point x="553" y="554" type="curve" smooth="yes"/>
    </contour>
    <contour>
      <point x="520" y="351"/>
      <point x="425" y="303"/>
      <point x="425" y="177" type="curve" smooth="yes"/>
      <point x="425" y="27"/>
      <point x="539" y="-26"/>
      <point x="640" y="-26" type="curve" smooth="yes"/>
      <point x="746" y="-26"/>
      <point x="837" y="17"/>
      <point x="876" y="79" type="curve"/>
      <point x="907" y="193" type="line"/>
      <point x="850" y="109"/>
      <point x="755" y="66"/>
      <point x="649" y="66" type="curve" smooth="yes"/>
      <point x="550" y="66"/>
      <point x="530" y="115"/>
      <point x="530" y="168" type="curve" smooth="yes"/>
      <point x="530" y="236"/>
      <point x="575" y="265"/>
      <point x="667" y="265" type="curve" smooth="yes"/>
      <point x="748" y="265"/>
      <point x="811" y="260"/>
      <point x="876" y="250" type="curve"/>
      <point x="882" y="321" type="line"/>
      <point x="793" y="343"/>
      <point x="732" y="351"/>
      <point x="637" y="351" type="curve" smooth="yes"/>
    </contour>
    <contour>
      <point x="694" y="1180" type="line"/>
      <point x="694" y="921" type="line"/>
      <point x="370" y="921" type="line" smooth="yes"/>
      <point x="210" y="921"/>
      <point x="122" y="861"/>
      <point x="122" y="738" type="curve" smooth="yes"/>
      <point x="122" y="647"/>
      <point x="173" y="548"/>
      <point x="250" y="451" type="curve"/>
      <point x="336" y="481" type="line"/>
      <point x="294" y="549"/>
      <point x="247" y="640"/>
      <point x="247" y="710" type="curve" smooth="yes"/>
      <point x="247" y="781"/>
      <point x="291" y="810"/>
      <point x="397" y="810" type="curve" smooth="yes"/>
      <point x="820" y="810" type="line"/>
      <point x="820" y="1180" type="line"/>
    </contour>
    <contour>
      <point x="-12" y="1247" type="line"/>
      <point x="-12" y="1143" type="line"/>
      <point x="1090" y="1143" type="line"/>
      <point x="1090" y="1247" type="line"/>
    </contour>
    <contour>
      <point x="758" y="1168" type="move" name="top"/>
    </contour>
    <contour>
      <point x="755" y="-285" type="move" name="bottom"/>
    </contour>
    <contour>
      <point x="571" y="1168" type="move" name="topcandra"/>
    </contour>
  </outline>
</glyph>
<glyph name="iMatra-deva.0" format="1">
  <advance width="553"/>
  <outline>
    <contour>
      <point x="366" y="1196" type="line"/>
      <point x="262" y="1312"/>
      <point x="233" y="1384"/>
      <point x="233" y="1462" type="curve" smooth="yes"/>
      <point x="233" y="1590"/>
      <point x="314" y="1652"/>
      <point x="472" y="1652" type="curve" smooth="yes"/>
      <point x="695" y="1652"/>
      <point x="934" y="1540"/>
      <point x="1189" y="1334" type="curve"/>
      <point x="1239" y="1408" type="line"/>
      <point x="984" y="1633"/>
      <point x="710" y="1765"/>
      <point x="453" y="1765" type="curve" smooth="yes"/>
      <point x="255" y="1765"/>
      <point x="106" y="1680"/>
      <point x="106" y="1490" type="curve" smooth="yes"/>
      <point x="106" y="1397"/>
      <point x="143" y="1302"/>
      <point x="258" y="1194" type="curve"/>
    </contour>
    <contour>
      <point x="340" y="0" type="line"/>
      <point x="340" y="1189" type="line"/>
      <point x="214" y="1189" type="line"/>
      <point x="214" y="0" type="line"/>
    </contour>
    <contour>
      <point x="570" y="1143" type="line"/>
      <point x="570" y="1247" type="line"/>
      <point x="-12" y="1247" type="line"/>
      <point x="-12" y="1143" type="line"/>
    </contour>
    <contour>
      <point x="1214" y="1368" type="move" name="imatra"/>
    </contour>
    <contour>
      <point x="1048" y="1353" type="move" name="top"/>
    </contour>
    <contour>
      <point x="1340" y="1319" type="move" name="topcandra"/>
    </contour>
  </outline>
</glyph>
<glyph name="iMatra-deva.01" format="1">
  <advance width="554"/>
  <outline>
    <contour>
      <point x="366" y="1196" type="line"/>
      <point x="260" y="1308"/>
      <point x="233" y="1398"/>
      <point x="233" y="1467" type="curve" smooth="yes"/>
      <point x="233" y="1588"/>
      <point x="309" y="1652"/>
      <point x="501" y="1652" type="curve" smooth="yes"/>
      <point x="747" y="1652"/>
      <point x="1007" y="1559"/>
      <point x="1299" y="1334" type="curve"/>
      <point x="1349" y="1408" type="line"/>
      <point x="1055" y="1654"/>
      <point x="752" y="1765"/>
      <point x="487" y="1765" type="curve" smooth="yes"/>
      <point x="244" y="1765"/>
      <point x="106" y="1679"/>
      <point x="106" y="1492" type="curve" smooth="yes"/>
      <point x="106" y="1396"/>
      <point x="143" y="1302"/>
      <point x="258" y="1194" type="curve"/>
    </contour>
    <contour>
      <point x="340" y="0" type="line"/>
      <point x="340" y="1189" type="line"/>
      <point x="214" y="1189" type="line"/>
      <point x="214" y="0" type="line"/>
    </contour>
    <contour>
      <point x="570" y="1143" type="line"/>
      <point x="570" y="1247" type="line"/>
      <point x="-12" y="1247" type="line"/>
      <point x="-12" y="1143" type="line"/>
    </contour>
    <contour>
      <point x="1323" y="1371" type="move" name="imatra"/>
    </contour>
    <contour>
      <point x="1152" y="1353" type="move" name="top"/>
    </contour>
    <contour>
      <point x="1436" y="1319" type="move" name="topcandra"/>
    </contour>
  </outline>
</glyph>
<glyph name="iMatra-deva.02" format="1">
  <advance width="553"/>
  <outline>
    <contour>
      <point x="366" y="1196" type="line"/>
      <point x="254" y="1320"/>
      <point x="233" y="1394"/>
      <point x="233" y="1464" type="curve" smooth="yes"/>
      <point x="233" y="1597"/>
      <point x="309" y="1652"/>
      <point x="537" y="1652" type="curve" smooth="yes"/>
      <point x="885" y="1652"/>
      <point x="1211" y="1523"/>
      <point x="1519" y="1334" type="curve"/>
      <point x="1569" y="1408" type="line"/>
      <point x="1257" y="1620"/>
      <point x="892" y="1765"/>
      <point x="520" y="1765" type="curve" smooth="yes"/>
      <point x="244" y="1765"/>
      <point x="106" y="1684"/>
      <point x="106" y="1493" type="curve" smooth="yes"/>
      <point x="106" y="1396"/>
      <point x="143" y="1302"/>
      <point x="258" y="1194" type="curve"/>
    </contour>
    <contour>
      <point x="340" y="0" type="line"/>
      <point x="340" y="1189" type="line"/>
      <point x="214" y="1189" type="line"/>
      <point x="214" y="0" type="line"/>
    </contour>
    <contour>
      <point x="570" y="1143" type="line"/>
      <point x="570" y="1247" type="line"/>
      <point x="-12" y="1247" type="line"/>
      <point x="-12" y="1143" type="line"/>
    </contour>
    <contour>
      <point x="1544" y="1370" type="move" name="imatra"/>
    </contour>
    <contour>
      <point x="1359" y="1353" type="move" name="top"/>
    </contour>
    <contour>
      <point x="1631" y="1319" type="move" name="topcandra"/>
    </contour>
  </outline>
</glyph>
<glyph name="iMatra-deva.03" format="1">
  <advance width="553"/>
  <outline>
    <contour>
      <point x="366" y="1196" type="line"/>
      <point x="254" y="1335"/>
      <point x="233" y="1396"/>
      <point x="233" y="1462" type="curve" smooth="yes"/>
      <point x="233" y="1590"/>
      <point x="309" y="1652"/>
      <point x="568" y="1652" type="curve" smooth="yes"/>
      <point x="937" y="1652"/>
      <point x="1304" y="1527"/>
      <point x="1629" y="1334" type="curve"/>
      <point x="1679" y="1408" type="line"/>
      <point x="1352" y="1623"/>
      <point x="942" y="1765"/>
      <point x="551" y="1765" type="curve" smooth="yes"/>
      <point x="243" y="1765"/>
      <point x="106" y="1678"/>
      <point x="106" y="1492" type="curve" smooth="yes"/>
      <point x="106" y="1396"/>
      <point x="143" y="1301"/>
      <point x="258" y="1194" type="curve"/>
    </contour>
    <contour>
      <point x="340" y="0" type="line"/>
      <point x="340" y="1189" type="line"/>
      <point x="214" y="1189" type="line"/>
      <point x="214" y="0" type="line"/>
    </contour>
    <contour>
      <point x="570" y="1143" type="line"/>
      <point x="570" y="1247" type="line"/>
      <point x="-12" y="1247" type="line"/>
      <point x="-12" y="1143" type="line"/>
    </contour>
    <contour>
      <point x="1651" y="1373" type="move" name="imatra"/>
    </contour>
    <contour>
      <point x="1485" y="1353" type="move" name="top"/>
    </contour>
    <contour>
      <point x="1710" y="1319" type="move" name="topcandra"/>
    </contour>
  </outline>
</glyph>
<glyph name="iMatra-deva.08" format="1">
  <advance width="553"/>
  <outline>
    <contour>
      <point x="247" y="1765"/>
      <point x="106" y="1675"/>
      <point x="106" y="1490" type="curve" smooth="yes"/>
      <point x="106" y="1396"/>
      <point x="143" y="1301"/>
      <point x="258" y="1194" type="curve"/>
      <point x="366" y="1196" type="line"/>
      <point x="255" y="1334"/>
      <point x="233" y="1395"/>
      <point x="233" y="1459" type="curve" smooth="yes"/>
      <point x="233" y="1588"/>
      <point x="314" y="1652"/>
      <point x="613" y="1652" type="curve" smooth="yes"/>
      <point x="1058" y="1652"/>
      <point x="1479" y="1512"/>
      <point x="1849" y="1334" type="curve"/>
      <point x="1899" y="1408" type="line"/>
      <point x="1549" y="1603"/>
      <point x="1068" y="1765"/>
      <point x="598" y="1765" type="curve" smooth="yes"/>
    </contour>
    <contour>
      <point x="214" y="1189" type="line"/>
      <point x="214" y="0" type="line"/>
      <point x="340" y="0" type="line"/>
      <point x="340" y="1189" type="line"/>
    </contour>
    <contour>
      <point x="-12" y="1247" type="line"/>
      <point x="-12" y="1143" type="line"/>
      <point x="570" y="1143" type="line"/>
      <point x="570" y="1247" type="line"/>
    </contour>
    <contour>
      <point x="1874" y="1367" type="move" name="imatra"/>
    </contour>
    <contour>
      <point x="1688" y="1353" type="move" name="top"/>
    </contour>
    <contour>
      <point x="1912" y="1319" type="move" name="topcandra"/>
    </contour>
  </outline>
</glyph>
<glyph name="iMatra-deva.15" format="1">
  <advance width="553"/>
  <outline>
    <contour>
      <point x="366" y="1196" type="line"/>
      <point x="255" y="1334"/>
      <point x="233" y="1395"/>
      <point x="233" y="1458" type="curve" smooth="yes"/>
      <point x="233" y="1584"/>
      <point x="313" y="1652"/>
      <point x="658" y="1652" type="curve" smooth="yes"/>
      <point x="1151" y="1652"/>
      <point x="1676" y="1514"/>
      <point x="2069" y="1334" type="curve"/>
      <point x="2119" y="1408" type="line"/>
      <point x="1751" y="1603"/>
      <point x="1162" y="1765"/>
      <point x="644" y="1765" type="curve" smooth="yes"/>
      <point x="246" y="1765"/>
      <point x="106" y="1669"/>
      <point x="106" y="1489" type="curve" smooth="yes"/>
      <point x="106" y="1397"/>
      <point x="143" y="1301"/>
      <point x="258" y="1194" type="curve"/>
    </contour>
    <contour>
      <point x="340" y="0" type="line"/>
      <point x="340" y="1189" type="line"/>
      <point x="214" y="1189" type="line"/>
      <point x="214" y="0" type="line"/>
    </contour>
    <contour>
      <point x="570" y="1143" type="line"/>
      <point x="570" y="1247" type="line"/>
      <point x="-12" y="1247" type="line"/>
      <point x="-12" y="1143" type="line"/>
    </contour>
    <contour>
      <point x="2091" y="1363" type="move" name="imatra"/>
    </contour>
    <contour>
      <point x="1909" y="1353" type="move" name="top"/>
    </contour>
    <contour>
      <point x="2138" y="1319" type="move" name="topcandra"/>
    </contour>
  </outline>
</glyph>
<glyph name="j-deva" format="1">
  <advance width="937"/>
  <outline>
    <contour>
      <point x="522" y="811" type="line"/>
      <point x="649" y="747"/>
      <point x="731" y="664"/>
      <point x="731" y="525" type="curve" smooth="yes"/>
      <point x="731" y="407"/>
      <point x="662" y="329"/>
      <point x="526" y="328" type="curve" smooth="yes"/>
      <point x="264" y="327"/>
      <point x="196" y="637"/>
      <point x="171" y="877" type="curve"/>
      <point x="65" y="863" type="line"/>
      <point x="93" y="482"/>
      <point x="220" y="210"/>
      <point x="529" y="210" type="curve" smooth="yes"/>
      <point x="734" y="210"/>
      <point x="857" y="330"/>
      <point x="857" y="510" type="curve" smooth="yes"/>
      <point x="857" y="666"/>
      <point x="779" y="759"/>
      <point x="642" y="832" type="curve"/>
      <point x="562" y="897" type="line"/>
    </contour>
    <contour>
      <point x="-12" y="1247" type="line"/>
      <point x="-12" y="1143" type="line"/>
      <point x="959" y="1143" type="line"/>
      <point x="959" y="1247" type="line"/>
    </contour>
    <contour>
      <point x="563" y="897" type="line"/>
      <point x="617" y="786" type="line"/>
      <point x="1185" y="786" type="line"/>
      <point x="1185" y="897" type="line"/>
    </contour>
  </outline>
</glyph>
<glyph name="j_j-deva.alt" format="1">
  <advance width="1040"/>
  <outline>
    <contour>
      <point x="-12" y="1247" type="line"/>
      <point x="-12" y="1143" type="line"/>
      <point x="1071" y="1143" type="line"/>
      <point x="1071" y="1247" type="line"/>
    </contour>
    <contour>
      <point x="83" y="973" type="line"/>
      <point x="113" y="605"/>
      <point x="241" y="350"/>
      <point x="535" y="350" type="curve" smooth="yes"/>
      <point x="748" y="350"/>
      <point x="862" y="474"/>
      <point x="862" y="629" type="curve" smooth="yes"/>
      <point x="862" y="767"/>
      <point x="804" y="854"/>
      <point x="651" y="941" type="curve"/>
      <point x="572" y="1007" type="line"/>
      <point x="533" y="923" type="line"/>
      <point x="658" y="860"/>
      <point x="740" y="775"/>
      <point x="740" y="645" type="curve" smooth="yes"/>
      <point x="740" y="542"/>
      <point x="669" y="465"/>
      <point x="536" y="465" type="curve" smooth="yes"/>
      <point x="274" y="465"/>
      <point x="211" y="756"/>
      <point x="186" y="987" type="curve"/>
    </contour>
    <contour>
      <point x="573" y="1007" type="line"/>
      <point x="626" y="899" type="line"/>
      <point x="1175" y="899" type="line"/>
      <point x="1175" y="1007" type="line"/>
    </contour>
    <contour>
      <point x="603" y="121" type="line"/>
      <point x="805" y="122"/>
      <point x="941" y="25"/>
      <point x="941" y="-104" type="curve" smooth="yes"/>
      <point x="941" y="-226"/>
      <point x="841" y="-301"/>
      <point x="709" y="-301" type="curve" smooth="yes"/>
      <point x="496" y="-301"/>
      <point x="347" y="-123"/>
      <point x="265" y="52" type="curve"/>
      <point x="179" y="-6" type="line"/>
      <point x="297" y="-252"/>
      <point x="466" y="-418"/>
      <point x="710" y="-418" type="curve" smooth="yes"/>
      <point x="895" y="-418"/>
      <point x="1067" y="-313"/>
      <point x="1067" y="-106" type="curve" smooth="yes"/>
      <point x="1067" y="52"/>
      <point x="925" y="189"/>
      <point x="698" y="193" type="curve"/>
      <point x="599" y="214" type="line"/>
    </contour>
    <contour>
      <point x="599" y="214" type="line"/>
      <point x="695" y="143" type="line"/>
      <point x="1221" y="408" type="line"/>
      <point x="1167" y="501" type="line"/>
    </contour>
  </outline>
</glyph>
<glyph name="j_ya-deva" format="1">
  <advance width="2072"/>
  <outline>
    <contour>
      <point x="1126" y="1156" type="line"/>
      <point x="1201" y="1075"/>
      <point x="1251" y="972"/>
      <point x="1251" y="908" type="curve" smooth="yes"/>
      <point x="1251" y="834"/>
      <point x="1218" y="739"/>
      <point x="998" y="646" type="curve"/>
      <point x="1049" y="417"/>
      <point x="1181" y="269"/>
      <point x="1409" y="269" type="curve" smooth="yes"/>
      <point x="1538" y="269"/>
      <point x="1680" y="324"/>
      <point x="1766" y="432" type="curve"/>
      <point x="1768" y="597" type="line"/>
      <point x="1681" y="454"/>
      <point x="1553" y="384"/>
      <point x="1405" y="384" type="curve" smooth="yes"/>
      <point x="1254" y="384"/>
      <point x="1164" y="458"/>
      <point x="1104" y="638" type="curve"/>
      <point x="1066" y="569" type="line"/>
      <point x="1293" y="646"/>
      <point x="1368" y="776"/>
      <point x="1368" y="894" type="curve" smooth="yes"/>
      <point x="1368" y="971"/>
      <point x="1330" y="1064"/>
      <point x="1251" y="1160" type="curve"/>
    </contour>
    <contour>
      <point x="523" y="811" type="line"/>
      <point x="650" y="747"/>
      <point x="732" y="664"/>
      <point x="732" y="525" type="curve" smooth="yes"/>
      <point x="732" y="407"/>
      <point x="663" y="329"/>
      <point x="527" y="328" type="curve" smooth="yes"/>
      <point x="265" y="327"/>
      <point x="194" y="637"/>
      <point x="170" y="897" type="curve"/>
      <point x="64" y="885" type="line"/>
      <point x="91" y="482"/>
      <point x="221" y="210"/>
      <point x="530" y="210" type="curve" smooth="yes"/>
      <point x="735" y="210"/>
      <point x="858" y="330"/>
      <point x="858" y="510" type="curve" smooth="yes"/>
      <point x="858" y="666"/>
      <point x="780" y="759"/>
      <point x="643" y="832" type="curve"/>
      <point x="563" y="897" type="line"/>
    </contour>
    <contour>
      <point x="563" y="897" type="line"/>
      <point x="617" y="786" type="line"/>
      <point x="1271" y="786" type="line"/>
      <point x="1271" y="897" type="line"/>
    </contour>
    <contour>
      <point x="-10" y="1247" type="line"/>
      <point x="-10" y="1143" type="line"/>
      <point x="2086" y="1143" type="line"/>
      <point x="2086" y="1247" type="line"/>
    </contour>
    <contour>
      <point x="1734" y="1199" type="line"/>
      <point x="1734" y="0" type="line"/>
      <point x="1860" y="0" type="line"/>
      <point x="1860" y="1199" type="line"/>
    </contour>
  </outline>
</glyph>
<glyph name="jh-deva.np" format="1">
  <advance width="1317"/>
  <outline>
    <contour>
      <point x="159" y="1269"/>
      <point x="109" y="1258"/>
      <point x="72" y="1243" type="curve"/>
      <point x="93" y="1141" type="line"/>
      <point x="118" y="1148"/>
      <point x="158" y="1158"/>
      <point x="201" y="1158" type="curve" smooth="yes"/>
      <point x="272" y="1158"/>
      <point x="305" y="1132"/>
      <point x="305" y="1041" type="curve" smooth="yes"/>
      <point x="305" y="551" type="line"/>
      <point x="431" y="551" type="line"/>
      <point x="431" y="1037" type="line" smooth="yes"/>
      <point x="431" y="1144"/>
      <point x="413" y="1269"/>
      <point x="219" y="1269" type="curve" smooth="yes"/>
    </contour>
    <contour>
      <point x="320" y="601" type="line"/>
      <point x="152" y="582" type="line"/>
      <point x="152" y="491" type="line"/>
      <point x="322" y="302" type="line"/>
      <point x="412" y="305"/>
      <point x="430" y="354"/>
      <point x="430" y="412" type="curve" smooth="yes"/>
      <point x="430" y="601" type="line"/>
    </contour>
    <contour>
      <point x="311" y="601" type="line"/>
      <point x="311" y="489" type="line"/>
      <point x="970" y="489" type="line"/>
      <point x="970" y="601" type="line"/>
    </contour>
    <contour>
      <point x="682" y="1247" type="line"/>
      <point x="682" y="1143" type="line"/>
      <point x="1339" y="1143" type="line"/>
      <point x="1339" y="1247" type="line"/>
    </contour>
    <contour>
      <point x="876" y="1196" type="line"/>
      <point x="876" y="0" type="line"/>
      <point x="1002" y="0" type="line"/>
      <point x="1002" y="1196" type="line"/>
    </contour>
    <contour>
      <point x="1526" y="660" type="line"/>
      <point x="1510" y="781"/>
      <point x="1417" y="861"/>
      <point x="1287" y="861" type="curve" smooth="yes"/>
      <point x="1174" y="861"/>
      <point x="1070" y="805"/>
      <point x="970" y="683" type="curve"/>
      <point x="970" y="506" type="line"/>
      <point x="1086" y="670"/>
      <point x="1182" y="747"/>
      <point x="1283" y="747" type="curve" smooth="yes"/>
      <point x="1385" y="747"/>
      <point x="1439" y="699"/>
      <point x="1470" y="571" type="curve"/>
    </contour>
    <contour>
      <point x="939" y="1168" type="move" name="top"/>
    </contour>
    <contour>
      <point x="939" y="28" type="move" name="bottom"/>
    </contour>
    <contour>
      <point x="939" y="1168" type="move" name="topcandra"/>
    </contour>
  </outline>
</glyph>
<glyph name="k_ka-deva" format="1">
  <advance width="2659"/>
  <outline>
    <component base="k-deva"/>
    <component base="ka-deva" xOffset="1168"/>
    <contour>
      <point x="1954" y="1168" type="move" name="top"/>
    </contour>
    <contour>
      <point x="1960" y="28" type="move" name="bottom"/>
    </contour>
    <contour>
      <point x="1951" y="1168" type="move" name="topcandra"/>
    </contour>
  </outline>
</glyph>
<glyph name="k_la-deva" format="1">
  <advance width="1474"/>
  <outline>
    <contour>
      <point x="206" y="954"/>
      <point x="80" y="838"/>
      <point x="80" y="628" type="curve" smooth="yes"/>
      <point x="80" y="446"/>
      <point x="191" y="304"/>
      <point x="401" y="304" type="curve" smooth="yes"/>
      <point x="548" y="304"/>
      <point x="680" y="369"/>
      <point x="763" y="469" type="curve"/>
      <point x="745" y="592" type="line"/>
      <point x="671" y="484"/>
      <point x="549" y="413"/>
      <point x="413" y="413" type="curve" smooth="yes"/>
      <point x="284" y="413"/>
      <point x="210" y="485"/>
      <point x="210" y="626" type="curve" smooth="yes"/>
      <point x="210" y="768"/>
      <point x="293" y="839"/>
      <point x="432" y="845" type="curve" smooth="yes"/>
      <point x="532" y="849"/>
      <point x="638" y="828"/>
      <point x="754" y="787" type="curve"/>
      <point x="753" y="867" type="line"/>
      <point x="656" y="928"/>
      <point x="538" y="954"/>
      <point x="434" y="954" type="curve" smooth="yes"/>
    </contour>
    <contour>
      <point x="1011" y="900"/>
      <point x="901" y="844"/>
      <point x="802" y="723" type="curve"/>
      <point x="802" y="547" type="line"/>
      <point x="922" y="710"/>
      <point x="1027" y="787"/>
      <point x="1126" y="787" type="curve" smooth="yes"/>
      <point x="1226" y="787"/>
      <point x="1279" y="717"/>
      <point x="1279" y="604" type="curve" smooth="yes"/>
      <point x="1279" y="517"/>
      <point x="1242" y="408"/>
      <point x="1162" y="309" type="curve"/>
      <point x="1260" y="240" type="line"/>
      <point x="1358" y="352"/>
      <point x="1396" y="492"/>
      <point x="1396" y="600" type="curve" smooth="yes"/>
      <point x="1396" y="776"/>
      <point x="1295" y="900"/>
      <point x="1134" y="900" type="curve" smooth="yes"/>
    </contour>
    <contour>
      <point x="710" y="1181" type="line"/>
      <point x="710" y="-17" type="line"/>
      <point x="837" y="12" type="line"/>
      <point x="837" y="1181" type="line"/>
    </contour>
    <contour>
      <point x="-26" y="1247" type="line"/>
      <point x="-26" y="1143" type="line"/>
      <point x="1492" y="1143" type="line"/>
      <point x="1492" y="1247" type="line"/>
    </contour>
    <component base="add" xOffset="220"/>
    <contour>
      <point x="774" y="1168" type="move" name="top"/>
    </contour>
    <contour>
      <point x="1023" y="-489" type="move" name="bottom"/>
    </contour>
    <contour>
      <point x="774" y="1168" type="move" name="topcandra"/>
    </contour>
  </outline>
</glyph>
<glyph name="k_t_ya-deva" format="1">
  <advance width="2905"/>
  <outline>
    <contour>
      <point x="1346" y="828"/>
      <point x="1249" y="739"/>
      <point x="1249" y="570" type="curve" smooth="yes"/>
      <point x="1249" y="366"/>
      <point x="1396" y="130"/>
      <point x="1520" y="-30" type="curve"/>
      <point x="1621" y="39" type="line"/>
      <point x="1468" y="250"/>
      <point x="1379" y="412"/>
      <point x="1379" y="552" type="curve" smooth="yes"/>
      <point x="1379" y="666"/>
      <point x="1430" y="711"/>
      <point x="1597" y="711" type="curve" smooth="yes"/>
      <point x="1767" y="711"/>
      <point x="1822" y="667"/>
      <point x="1943" y="572" type="curve"/>
      <point x="1943" y="714" type="line"/>
      <point x="1851" y="788"/>
      <point x="1763" y="828"/>
      <point x="1574" y="828" type="curve" smooth="yes"/>
    </contour>
    <contour>
      <point x="1155" y="1247" type="line"/>
      <point x="1155" y="1143" type="line"/>
      <point x="1808" y="1143" type="line"/>
      <point x="1808" y="1247" type="line"/>
    </contour>
    <component base="k-deva"/>
    <component base="ya-deva" xOffset="1766"/>
  </outline>
</glyph>
<glyph name="kh_ma-deva" format="1">
  <advance width="2275"/>
  <outline>
    <contour>
      <point x="377" y="1190" type="line"/>
      <point x="377" y="831" type="line" smooth="yes"/>
      <point x="377" y="720"/>
      <point x="350" y="667"/>
      <point x="263" y="665" type="curve" smooth="yes"/>
      <point x="230" y="664"/>
      <point x="193" y="671"/>
      <point x="150" y="706" type="curve"/>
      <point x="65" y="649" type="line"/>
      <point x="237" y="123"/>
      <point x="502" y="-56"/>
      <point x="806" y="-56" type="curve" smooth="yes"/>
      <point x="875" y="-56"/>
      <point x="979" y="-51"/>
      <point x="1067" y="-8" type="curve"/>
      <point x="1037" y="96" type="line"/>
      <point x="981" y="73"/>
      <point x="902" y="55"/>
      <point x="802" y="55" type="curve" smooth="yes"/>
      <point x="544" y="55"/>
      <point x="322" y="236"/>
      <point x="198" y="614" type="curve"/>
      <point x="175" y="585" type="line"/>
      <point x="215" y="571"/>
      <point x="256" y="561"/>
      <point x="298" y="561" type="curve" smooth="yes"/>
      <point x="409" y="561"/>
      <point x="504" y="630"/>
      <point x="504" y="839" type="curve" smooth="yes"/>
      <point x="504" y="1191" type="line"/>
    </contour>
    <contour>
      <point x="769" y="910"/>
      <point x="603" y="835"/>
      <point x="602" y="580" type="curve" smooth="yes"/>
      <point x="601" y="402"/>
      <point x="682" y="248"/>
      <point x="915" y="248" type="curve" smooth="yes"/>
      <point x="1077" y="248"/>
      <point x="1213" y="319"/>
      <point x="1271" y="459" type="curve"/>
      <point x="1223" y="561" type="line"/>
      <point x="1181" y="432"/>
      <point x="1070" y="358"/>
      <point x="931" y="358" type="curve" smooth="yes"/>
      <point x="783" y="358"/>
      <point x="731" y="437"/>
      <point x="732" y="584" type="curve" smooth="yes"/>
      <point x="734" y="760"/>
      <point x="837" y="804"/>
      <point x="987" y="804" type="curve" smooth="yes"/>
      <point x="1047" y="804"/>
      <point x="1122" y="795"/>
      <point x="1198" y="775" type="curve"/>
      <point x="1209" y="874" type="line"/>
      <point x="1142" y="899"/>
      <point x="1053" y="910"/>
      <point x="982" y="910" type="curve" smooth="yes"/>
    </contour>
    <contour>
      <point x="-12" y="1247" type="line"/>
      <point x="-12" y="1143" type="line"/>
      <point x="1132" y="1143" type="line"/>
      <point x="1132" y="1247" type="line"/>
    </contour>
    <component base="ma-deva" xOffset="1102"/>
    <contour>
      <point x="150" y="27" type="move" name="nukta"/>
    </contour>
    <contour>
      <point x="456" y="1168" type="move" name="top"/>
    </contour>
    <contour>
      <point x="832" y="1167" type="move" name="topcandra"/>
    </contour>
    <contour>
      <point x="779" y="0" type="move" name="bottom"/>
    </contour>
  </outline>
</glyph>
<glyph name="la_ra-deva" format="1">
  <advance width="1404"/>
  <outline>
    <contour>
      <point x="1178" y="451" type="line"/>
      <point x="1149" y="558" type="line"/>
      <point x="627" y="172" type="line"/>
      <point x="705" y="80" type="line"/>
    </contour>
    <component base="la-deva"/>
    <contour>
      <point x="1129" y="1168" type="move" name="top"/>
    </contour>
    <contour>
      <point x="1130" y="28" type="move" name="bottom"/>
    </contour>
    <contour>
      <point x="669" y="1167" type="move" name="topcandra"/>
    </contour>
  </outline>
</glyph>
<glyph name="lslash.a" format="1">
  <advance width="504"/>
  <outline>
    <contour>
      <point x="466" y="994" type="line"/>
      <point x="313" y="895" type="line"/>
      <point x="313" y="1464" type="line"/>
      <point x="176" y="1464" type="line"/>
      <point x="176" y="822" type="line"/>
      <point x="51" y="741" type="line"/>
      <point x="51" y="621" type="line"/>
      <point x="176" y="702" type="line"/>
      <point x="176" y="0" type="line"/>
      <point x="313" y="0" type="line"/>
      <point x="313" y="774" type="line"/>
      <point x="466" y="873" type="line"/>
    </contour>
  </outline>
</glyph>
<glyph name="m_la-deva.loclMAR" format="1">
  <advance width="1178"/>
  <outline>
    <contour>
      <point x="839" y="1177" type="line"/>
      <point x="839" y="88" type="line"/>
      <point x="965" y="88" type="line"/>
      <point x="965" y="1177" type="line"/>
    </contour>
    <contour>
      <point x="238" y="633" type="line"/>
      <point x="70" y="613" type="line"/>
      <point x="70" y="522" type="line"/>
      <point x="240" y="333" type="line"/>
      <point x="330" y="336"/>
      <point x="348" y="385"/>
      <point x="348" y="443" type="curve" smooth="yes"/>
      <point x="348" y="633" type="line"/>
    </contour>
    <contour>
      <point x="223" y="1163" type="line"/>
      <point x="223" y="472" type="line"/>
      <point x="349" y="583" type="line"/>
      <point x="349" y="1164" type="line"/>
    </contour>
    <contour>
      <point x="229" y="625" type="line"/>
      <point x="229" y="513" type="line"/>
      <point x="933" y="513" type="line"/>
      <point x="933" y="625" type="line"/>
    </contour>
    <contour>
      <point x="-12" y="1247" type="line"/>
      <point x="-12" y="1143" type="line"/>
      <point x="1191" y="1143" type="line"/>
      <point x="1191" y="1247" type="line"/>
    </contour>
    <component base="add" xOffset="36"/>
    <contour>
      <point x="907" y="1168" type="move" name="top"/>
    </contour>
    <contour>
      <point x="839" y="-489" type="move" name="bottom"/>
    </contour>
    <contour>
      <point x="615" y="1168" type="move" name="topcandra"/>
    </contour>
  </outline>
</glyph>
<glyph name="n_bha-deva" format="1">
  <advance width="1772"/>
  <outline>
    <contour>
      <point x="50" y="749" type="line"/>
      <point x="50" y="638" type="line"/>
      <point x="186" y="437" type="line"/>
      <point x="282" y="437"/>
      <point x="300" y="499"/>
      <point x="300" y="575" type="curve" smooth="yes"/>
      <point x="300" y="749" type="line"/>
    </contour>
    <contour>
      <point x="186" y="749" type="line"/>
      <point x="186" y="639" type="line"/>
      <point x="883" y="639" type="line"/>
      <point x="883" y="749" type="line"/>
    </contour>
    <contour>
      <point x="-12" y="1247" type="line"/>
      <point x="-12" y="1143" type="line"/>
      <point x="591" y="1143" type="line"/>
      <point x="591" y="1247" type="line"/>
    </contour>
    <component base="bha-deva" xOffset="557"/>
    <contour>
      <point x="835" y="87" type="move" name="nukta"/>
    </contour>
    <contour>
      <point x="1497" y="1167" type="move" name="top"/>
    </contour>
    <contour>
      <point x="1205" y="1167" type="move" name="topcandra"/>
    </contour>
    <contour>
      <point x="1497" y="27" type="move" name="bottom"/>
    </contour>
  </outline>
</glyph>
<glyph name="ny-deva" format="1">
  <advance width="990"/>
  <outline>
    <contour>
      <point x="507" y="909"/>
      <point x="459" y="903"/>
      <point x="403" y="881" type="curve"/>
      <point x="429" y="776" type="line"/>
      <point x="476" y="788"/>
      <point x="522" y="793"/>
      <point x="572" y="793" type="curve" smooth="yes"/>
      <point x="689" y="793"/>
      <point x="779" y="732"/>
      <point x="780" y="572" type="curve" smooth="yes"/>
      <point x="780" y="411"/>
      <point x="694" y="327"/>
      <point x="554" y="327" type="curve" smooth="yes"/>
      <point x="350" y="327"/>
      <point x="231" y="486"/>
      <point x="162" y="848" type="curve"/>
      <point x="57" y="825" type="line"/>
      <point x="133" y="370"/>
      <point x="327" y="211"/>
      <point x="554" y="211" type="curve" smooth="yes"/>
      <point x="778" y="211"/>
      <point x="899" y="349"/>
      <point x="899" y="568" type="curve" smooth="yes"/>
      <point x="899" y="782"/>
      <point x="770" y="909"/>
      <point x="563" y="909" type="curve" smooth="yes"/>
    </contour>
    <contour>
      <point x="1054" y="583"/>
      <point x="910" y="565"/>
      <point x="814" y="578" type="curve"/>
      <point x="852" y="476" type="line"/>
      <point x="934" y="459"/>
      <point x="1097" y="487"/>
      <point x="1192" y="533" type="curve"/>
      <point x="1175" y="651" type="line"/>
    </contour>
    <contour>
      <point x="-12" y="1247" type="line"/>
      <point x="-12" y="1143" type="line"/>
      <point x="1005" y="1143" type="line"/>
      <point x="1005" y="1247" type="line"/>
    </contour>
  </outline>
</glyph>
<glyph name="one.tnum" format="1">
  <advance width="1003"/>
  <outline>
    <contour>
      <point x="166" y="0" type="line"/>
      <point x="881" y="0" type="line"/>
      <point x="881" y="115" type="line"/>
      <point x="605" y="115" type="line"/>
      <point x="605" y="1173" type="line"/>
      <point x="499" y="1173" type="line"/>
      <point x="431" y="1134"/>
      <point x="346" y="1102"/>
      <point x="232" y="1082" type="curve"/>
      <point x="232" y="989" type="line"/>
      <point x="468" y="1006" type="line"/>
      <point x="468" y="115" type="line"/>
      <point x="166" y="115" type="line"/>
    </contour>
  </outline>
</glyph>
<glyph name="p_tta-deva" format="1">
  <advance width="991"/>
  <outline>
    <contour>
      <point x="734" y="1182" type="line"/>
      <point x="734" y="836" type="line" smooth="yes"/>
      <point x="734" y="643"/>
      <point x="653" y="546"/>
      <point x="483" y="546" type="curve" smooth="yes"/>
      <point x="318" y="546"/>
      <point x="256" y="636"/>
      <point x="256" y="800" type="curve" smooth="yes"/>
      <point x="256" y="1184" type="line"/>
      <point x="136" y="1184" type="line"/>
      <point x="136" y="803" type="line" smooth="yes"/>
      <point x="136" y="631"/>
      <point x="192" y="520"/>
      <point x="289" y="477" type="curve"/>
      <point x="311" y="504" type="line"/>
      <point x="159" y="444"/>
      <point x="83" y="354"/>
      <point x="83" y="224" type="curve" smooth="yes"/>
      <point x="83" y="28"/>
      <point x="251" y="-99"/>
      <point x="509" y="-99" type="curve" smooth="yes"/>
      <point x="672" y="-99"/>
      <point x="802" y="-49"/>
      <point x="905" y="32" type="curve"/>
      <point x="852" y="128" type="line"/>
      <point x="777" y="71"/>
      <point x="671" y="10"/>
      <point x="507" y="10" type="curve" smooth="yes"/>
      <point x="301" y="10"/>
      <point x="208" y="102"/>
      <point x="208" y="216" type="curve" smooth="yes"/>
      <point x="208" y="374"/>
      <point x="384" y="408"/>
      <point x="489" y="428" type="curve" smooth="yes"/>
      <point x="724" y="472"/>
      <point x="854" y="529"/>
      <point x="854" y="872" type="curve" smooth="yes"/>
      <point x="854" y="1182" type="line"/>
    </contour>
    <contour>
      <point x="-12" y="1247" type="line"/>
      <point x="-12" y="1143" type="line"/>
      <point x="1004" y="1143" type="line"/>
      <point x="1004" y="1247" type="line"/>
    </contour>
    <contour>
      <point x="794" y="1168" type="move" name="top"/>
    </contour>
    <contour>
      <point x="576" y="-50" type="move" name="bottom"/>
    </contour>
    <contour>
      <point x="516" y="1168" type="move" name="topcandra"/>
    </contour>
  </outline>
</glyph>
<glyph name="pa_ta-deva" format="1">
  <advance width="1125"/>
  <outline>
    <contour>
      <point x="177" y="1182" type="line"/>
      <point x="177" y="932" type="line" smooth="yes"/>
      <point x="177" y="756"/>
      <point x="216" y="647"/>
      <point x="359" y="591" type="curve"/>
      <point x="353" y="629" type="line"/>
      <point x="192" y="620"/>
      <point x="166" y="502"/>
      <point x="166" y="417" type="curve" smooth="yes"/>
      <point x="166" y="242"/>
      <point x="288" y="63"/>
      <point x="352" y="-32" type="curve"/>
      <point x="451" y="37" type="line"/>
      <point x="374" y="144"/>
      <point x="292" y="279"/>
      <point x="292" y="406" type="curve" smooth="yes"/>
      <point x="292" y="533"/>
      <point x="375" y="554"/>
      <point x="503" y="553" type="curve" smooth="yes"/>
      <point x="873" y="551" type="line"/>
      <point x="873" y="668" type="line"/>
      <point x="495" y="668" type="line" smooth="yes"/>
      <point x="353" y="668"/>
      <point x="303" y="769"/>
      <point x="303" y="930" type="curve" smooth="yes"/>
      <point x="303" y="1182" type="line"/>
    </contour>
    <contour>
      <point x="785" y="1191" type="line"/>
      <point x="785" y="0" type="line"/>
      <point x="911" y="0" type="line"/>
      <point x="911" y="1191" type="line"/>
    </contour>
    <contour>
      <point x="-12" y="1247" type="line"/>
      <point x="-12" y="1143" type="line"/>
      <point x="1138" y="1143" type="line"/>
      <point x="1138" y="1247" type="line"/>
    </contour>
    <contour>
      <point x="848" y="1168" type="move" name="top"/>
    </contour>
    <contour>
      <point x="848" y="28" type="move" name="bottom"/>
    </contour>
    <contour>
      <point x="580" y="1168" type="move" name="topcandra"/>
    </contour>
  </outline>
</glyph>
<glyph name="pha_ra_nukta-deva" format="1">
  <advance width="1553"/>
  <outline>
    <contour>
      <point x="506" y="96"/>
      <point x="482" y="73"/>
      <point x="482" y="18" type="curve" smooth="yes"/>
      <point x="482" y="-36"/>
      <point x="506" y="-59"/>
      <point x="561" y="-59" type="curve" smooth="yes"/>
      <point x="616" y="-59"/>
      <point x="640" y="-36"/>
      <point x="640" y="18" type="curve" smooth="yes"/>
      <point x="640" y="73"/>
      <point x="616" y="96"/>
      <point x="561" y="96" type="curve" smooth="yes"/>
    </contour>
    <component base="pha_ra-deva"/>
    <contour>
      <point x="866" y="1168" type="move" name="top"/>
    </contour>
    <contour>
      <point x="871" y="28" type="move" name="bottom"/>
    </contour>
    <contour>
      <point x="870" y="1168" type="move" name="topcandra"/>
    </contour>
  </outline>
</glyph>
<glyph name="ring.cap" format="1">
  <advance width="0"/>
  <outline>
    <contour>
      <point x="0" y="1433" type="curve" smooth="yes" name="hr00"/>
      <point x="102" y="1433"/>
      <point x="181" y="1500"/>
      <point x="181" y="1608" type="curve" smooth="yes"/>
      <point x="181" y="1713"/>
      <point x="102" y="1783"/>
      <point x="0" y="1783" type="curve" smooth="yes"/>
      <point x="-105" y="1783"/>
      <point x="-181" y="1713"/>
      <point x="-181" y="1608" type="curve" smooth="yes"/>
      <point x="-181" y="1500"/>
      <point x="-105" y="1433"/>
    </contour>
    <contour>
      <point x="0" y="1498" type="curve" smooth="yes"/>
      <point x="-57" y="1498"/>
      <point x="-101" y="1537"/>
      <point x="-101" y="1608" type="curve" smooth="yes"/>
      <point x="-101" y="1674"/>
      <point x="-57" y="1716"/>
      <point x="0" y="1716" type="curve" smooth="yes"/>
      <point x="53" y="1716"/>
      <point x="99" y="1674"/>
      <point x="99" y="1608" type="curve" smooth="yes"/>
      <point x="99" y="1537"/>
      <point x="53" y="1498"/>
    </contour>
    <contour>
      <point x="0" y="1050" type="move" name="_top"/>
    </contour>
  </outline>
</glyph>
<glyph name="s_t_ra-deva" format="1">
  <advance width="2023"/>
  <outline>
    <contour>
      <point x="740" y="1247" type="line"/>
      <point x="740" y="1143" type="line"/>
      <point x="1415" y="1143" type="line"/>
      <point x="1415" y="1247" type="line"/>
    </contour>
    <contour>
      <point x="1400" y="788"/>
      <point x="1332" y="828"/>
      <point x="1165" y="828" type="curve" smooth="yes"/>
      <point x="932" y="828"/>
      <point x="835" y="739"/>
      <point x="835" y="570" type="curve" smooth="yes"/>
      <point x="835" y="366"/>
      <point x="982" y="130"/>
      <point x="1106" y="-30" type="curve"/>
      <point x="1207" y="39" type="line"/>
      <point x="1054" y="250"/>
      <point x="965" y="412"/>
      <point x="965" y="552" type="curve" smooth="yes"/>
      <point x="965" y="663"/>
      <point x="1015" y="711"/>
      <point x="1178" y="711" type="curve" smooth="yes"/>
      <point x="1311" y="711"/>
      <point x="1369" y="679"/>
      <point x="1511" y="552" type="curve"/>
      <point x="1510" y="691" type="line"/>
    </contour>
    <component base="s-deva"/>
    <component base="ra-deva" xOffset="1373"/>
  </outline>
</glyph>
<glyph name="sa_ra-deva" format="1">
  <advance width="1290"/>
  <outline>
    <contour>
      <point x="1038" y="463" type="line"/>
      <point x="1010" y="555" type="line"/>
      <point x="588" y="284" type="line"/>
      <point x="663" y="191" type="line"/>
    </contour>
    <component base="sa-deva"/>
    <contour>
      <point x="1029" y="1168" type="move" name="top"/>
    </contour>
    <contour>
      <point x="1029" y="28" type="move" name="bottom"/>
    </contour>
    <contour>
      <point x="734" y="1167" type="move" name="topcandra"/>
    </contour>
  </outline>
</glyph>
<glyph name="sa_t_ra-deva" format="1">
  <advance width="1841"/>
  <outline>
    <contour>
      <point x="820" y="958"/>
      <point x="706" y="667"/>
      <point x="494" y="667" type="curve" smooth="yes"/>
      <point x="459" y="667"/>
      <point x="411" y="678"/>
      <point x="386" y="688" type="curve"/>
      <point x="344" y="605" type="line"/>
      <point x="398" y="577"/>
      <point x="461" y="563"/>
      <point x="522" y="563" type="curve" smooth="yes"/>
      <point x="758" y="563"/>
      <point x="885" y="843"/>
      <point x="1078" y="843" type="curve" smooth="yes"/>
      <point x="1198" y="843"/>
      <point x="1294" y="743"/>
      <point x="1467" y="552" type="curve"/>
      <point x="1538" y="603" type="line"/>
      <point x="1303" y="898"/>
      <point x="1193" y="958"/>
      <point x="1072" y="958" type="curve" smooth="yes"/>
    </contour>
    <contour>
      <point x="914" y="203" type="line"/>
      <point x="992" y="109" type="line"/>
      <point x="1539" y="534" type="line"/>
      <point x="1508" y="634" type="line"/>
    </contour>
    <contour>
      <point x="1465" y="1160" type="line"/>
      <point x="1465" y="-1" type="line"/>
      <point x="1591" y="-1" type="line"/>
      <point x="1591" y="1160" type="line"/>
    </contour>
    <contour>
      <point x="514" y="1247" type="line"/>
      <point x="514" y="1143" type="line"/>
      <point x="1854" y="1143" type="line"/>
      <point x="1854" y="1247" type="line"/>
    </contour>
    <component base="ra-deva" xOffset="-8"/>
    <contour>
      <point x="1528" y="1168" type="move" name="top"/>
    </contour>
    <contour>
      <point x="1528" y="28" type="move" name="bottom"/>
    </contour>
    <contour>
      <point x="1126" y="1168" type="move" name="topcandra"/>
    </contour>
  </outline>
</glyph>
<glyph name="seven.dnom" format="1">
  <advance width="747"/>
  <outline>
    <contour>
      <point x="275" y="0" type="curve"/>
      <point x="390" y="0" type="line"/>
      <point x="406" y="281"/>
      <point x="453" y="484"/>
      <point x="652" y="736" type="curve"/>
      <point x="652" y="799" type="line"/>
      <point x="102" y="799" type="line"/>
      <point x="102" y="704" type="line"/>
      <point x="527" y="704" type="line"/>
      <point x="359" y="478"/>
      <point x="293" y="283"/>
    </contour>
  </outline>
</glyph>
<glyph name="seven.tnum" format="1">
  <advance width="1003"/>
  <outline>
    <contour>
      <point x="371" y="-149" type="curve"/>
      <point x="515" y="-149" type="line"/>
      <point x="531" y="364"/>
      <point x="606" y="684"/>
      <point x="917" y="1089" type="curve"/>
      <point x="917" y="1173" type="line"/>
      <point x="90" y="1173" type="line"/>
      <point x="90" y="1053" type="line"/>
      <point x="757" y="1053" type="line"/>
      <point x="497" y="690"/>
      <point x="388" y="360"/>
    </contour>
  </outline>
</glyph>
<glyph name="sh-deva.loclMAR" format="1">
  <advance width="763"/>
  <outline>
    <contour>
      <point x="172" y="916"/>
      <point x="75" y="808"/>
      <point x="79" y="684" type="curve" smooth="yes"/>
      <point x="82" y="597"/>
      <point x="129" y="516"/>
      <point x="252" y="450" type="curve"/>
      <point x="308" y="526" type="line"/>
      <point x="223" y="582"/>
      <point x="196" y="623"/>
      <point x="196" y="677" type="curve" smooth="yes"/>
      <point x="196" y="762"/>
      <point x="261" y="811"/>
      <point x="375" y="811" type="curve" smooth="yes"/>
      <point x="530" y="811"/>
      <point x="576" y="710"/>
      <point x="576" y="604" type="curve" smooth="yes"/>
      <point x="576" y="396"/>
      <point x="431" y="276"/>
      <point x="171" y="169" type="curve"/>
      <point x="261" y="99" type="line"/>
      <point x="522" y="203"/>
      <point x="702" y="358"/>
      <point x="702" y="608" type="curve" smooth="yes"/>
      <point x="702" y="763"/>
      <point x="611" y="916"/>
      <point x="372" y="916" type="curve" smooth="yes"/>
    </contour>
    <contour>
      <point x="195" y="161" type="line"/>
      <point x="626" y="-364" type="line"/>
      <point x="722" y="-284" type="line"/>
      <point x="280" y="199" type="line"/>
    </contour>
    <contour>
      <point x="101" y="322" type="line"/>
      <point x="68" y="263"/>
      <point x="59" y="214"/>
      <point x="58" y="184" type="curve" smooth="yes"/>
      <point x="57" y="114"/>
      <point x="110" y="78"/>
      <point x="166" y="78" type="curve" smooth="yes"/>
      <point x="206" y="78"/>
      <point x="253" y="88"/>
      <point x="333" y="128" type="curve"/>
      <point x="323" y="154" type="line"/>
      <point x="184" y="322" type="line"/>
    </contour>
    <contour>
      <point x="337" y="1191" type="line"/>
      <point x="337" y="869" type="line"/>
      <point x="463" y="869" type="line"/>
      <point x="463" y="1191" type="line"/>
    </contour>
    <contour>
      <point x="-20" y="1247" type="line"/>
      <point x="-20" y="1143" type="line"/>
      <point x="783" y="1143" type="line"/>
      <point x="783" y="1247" type="line"/>
    </contour>
  </outline>
</glyph>
<glyph name="six.dnom" format="1">
  <advance width="777"/>
  <outline>
    <contour>
      <point x="413" y="65" type="curve" smooth="yes"/>
      <point x="305" y="65"/>
      <point x="229" y="154"/>
      <point x="218" y="321" type="curve"/>
      <point x="285" y="393"/>
      <point x="341" y="417"/>
      <point x="405" y="417" type="curve" smooth="yes"/>
      <point x="514" y="417"/>
      <point x="571" y="342"/>
      <point x="571" y="242" type="curve" smooth="yes"/>
      <point x="571" y="140"/>
      <point x="507" y="65"/>
    </contour>
    <contour>
      <point x="639" y="767" type="line"/>
      <point x="594" y="798"/>
      <point x="540" y="823"/>
      <point x="453" y="823" type="curve" smooth="yes"/>
      <point x="266" y="823"/>
      <point x="111" y="687"/>
      <point x="111" y="375" type="curve" smooth="yes"/>
      <point x="111" y="124"/>
      <point x="231" y="-25"/>
      <point x="414" y="-25" type="curve" smooth="yes"/>
      <point x="563" y="-25"/>
      <point x="675" y="91"/>
      <point x="675" y="244" type="curve" smooth="yes"/>
      <point x="675" y="394"/>
      <point x="587" y="500"/>
      <point x="425" y="500" type="curve" smooth="yes"/>
      <point x="347" y="500"/>
      <point x="278" y="470"/>
      <point x="217" y="414" type="curve"/>
      <point x="230" y="636"/>
      <point x="336" y="734"/>
      <point x="455" y="734" type="curve" smooth="yes"/>
      <point x="512" y="734"/>
      <point x="555" y="712"/>
      <point x="593" y="687" type="curve"/>
    </contour>
  </outline>
</glyph>
<glyph name="six.onum" format="1">
  <advance width="1047"/>
  <outline>
    <contour>
      <point x="563" y="86" type="curve" smooth="yes"/>
      <point x="378" y="86"/>
      <point x="275" y="273"/>
      <point x="256" y="542" type="curve"/>
      <point x="352" y="673"/>
      <point x="461" y="721"/>
      <point x="547" y="721" type="curve" smooth="yes"/>
      <point x="724" y="721"/>
      <point x="805" y="595"/>
      <point x="805" y="397" type="curve" smooth="yes"/>
      <point x="805" y="219"/>
      <point x="701" y="86"/>
    </contour>
    <contour>
      <point x="911" y="1244" type="line"/>
      <point x="840" y="1322"/>
      <point x="746" y="1370"/>
      <point x="612" y="1370" type="curve" smooth="yes"/>
      <point x="355" y="1370"/>
      <point x="121" y="1170"/>
      <point x="121" y="629" type="curve" smooth="yes"/>
      <point x="121" y="213"/>
      <point x="304" y="-25"/>
      <point x="562" y="-25" type="curve" smooth="yes"/>
      <point x="767" y="-25"/>
      <point x="938" y="152"/>
      <point x="938" y="397" type="curve" smooth="yes"/>
      <point x="938" y="684"/>
      <point x="795" y="828"/>
      <point x="568" y="828" type="curve" smooth="yes"/>
      <point x="456" y="828"/>
      <point x="338" y="764"/>
      <point x="253" y="659" type="curve"/>
      <point x="259" y="1107"/>
      <point x="423" y="1254"/>
      <point x="615" y="1254" type="curve" smooth="yes"/>
      <point x="698" y="1254"/>
      <point x="778" y="1224"/>
      <point x="833" y="1157" type="curve"/>
    </contour>
  </outline>
</glyph>
<glyph name="six.tnum" format="1">
  <advance width="1003"/>
  <outline>
    <contour>
      <point x="545" y="86" type="curve" smooth="yes"/>
      <point x="359" y="86"/>
      <point x="257" y="273"/>
      <point x="238" y="542" type="curve"/>
      <point x="333" y="673"/>
      <point x="443" y="721"/>
      <point x="529" y="721" type="curve" smooth="yes"/>
      <point x="705" y="721"/>
      <point x="787" y="595"/>
      <point x="787" y="397" type="curve" smooth="yes"/>
      <point x="787" y="219"/>
      <point x="683" y="86"/>
    </contour>
    <contour>
      <point x="892" y="1244" type="line"/>
      <point x="822" y="1322"/>
      <point x="727" y="1370"/>
      <point x="593" y="1370" type="curve" smooth="yes"/>
      <point x="337" y="1370"/>
      <point x="102" y="1170"/>
      <point x="102" y="629" type="curve" smooth="yes"/>
      <point x="102" y="213"/>
      <point x="285" y="-25"/>
      <point x="544" y="-25" type="curve" smooth="yes"/>
      <point x="748" y="-25"/>
      <point x="919" y="152"/>
      <point x="919" y="397" type="curve" smooth="yes"/>
      <point x="919" y="684"/>
      <point x="776" y="828"/>
      <point x="549" y="828" type="curve" smooth="yes"/>
      <point x="437" y="828"/>
      <point x="320" y="764"/>
      <point x="234" y="659" type="curve"/>
      <point x="241" y="1107"/>
      <point x="405" y="1254"/>
      <point x="597" y="1254" type="curve" smooth="yes"/>
      <point x="680" y="1254"/>
      <point x="760" y="1224"/>
      <point x="814" y="1157" type="curve"/>
    </contour>
  </outline>
</glyph>
<glyph name="ss_ttha-deva" format="1">
  <advance width="993"/>
  <outline>
    <contour>
      <point x="764" y="-99"/>
      <point x="912" y="35"/>
      <point x="912" y="232" type="curve" smooth="yes"/>
      <point x="912" y="460"/>
      <point x="670" y="527"/>
      <point x="493" y="527" type="curve" smooth="yes"/>
      <point x="279" y="527"/>
      <point x="84" y="426"/>
      <point x="84" y="224" type="curve" smooth="yes"/>
      <point x="84" y="28"/>
      <point x="252" y="-99"/>
      <point x="504" y="-99" type="curve" smooth="yes"/>
    </contour>
    <contour>
      <point x="301" y="10"/>
      <point x="209" y="102"/>
      <point x="209" y="216" type="curve" smooth="yes"/>
      <point x="209" y="365"/>
      <point x="360" y="416"/>
      <point x="494" y="416" type="curve" smooth="yes"/>
      <point x="574" y="416"/>
      <point x="788" y="417"/>
      <point x="788" y="227" type="curve" smooth="yes"/>
      <point x="788" y="104"/>
      <point x="706" y="10"/>
      <point x="502" y="10" type="curve" smooth="yes"/>
    </contour>
    <contour>
      <point x="678" y="417"/>
      <point x="855" y="544"/>
      <point x="855" y="839" type="curve" smooth="yes"/>
      <point x="855" y="1182" type="line"/>
      <point x="735" y="1182" type="line"/>
      <point x="735" y="836" type="line" smooth="yes"/>
      <point x="735" y="643"/>
      <point x="654" y="546"/>
      <point x="484" y="546" type="curve" smooth="yes"/>
      <point x="319" y="546"/>
      <point x="257" y="636"/>
      <point x="257" y="800" type="curve" smooth="yes"/>
      <point x="257" y="1184" type="line"/>
      <point x="137" y="1184" type="line"/>
      <point x="137" y="803" type="line" smooth="yes"/>
      <point x="137" y="557"/>
      <point x="276" y="418"/>
      <point x="491" y="418" type="curve" smooth="yes"/>
    </contour>
    <contour>
      <point x="796" y="624" type="line"/>
      <point x="237" y="1184" type="line"/>
      <point x="172" y="1118" type="line"/>
      <point x="730" y="558" type="line"/>
    </contour>
    <contour>
      <point x="1005" y="1143" type="line"/>
      <point x="1005" y="1247" type="line"/>
      <point x="-12" y="1247" type="line"/>
      <point x="-12" y="1143" type="line"/>
    </contour>
    <contour>
      <point x="795" y="1168" type="move" name="top"/>
    </contour>
    <contour>
      <point x="526" y="-69" type="move" name="bottom"/>
    </contour>
    <contour>
      <point x="514" y="1168" type="move" name="topcandra"/>
    </contour>
  </outline>
</glyph>
<glyph name="t_kha-deva" format="1">
  <advance width="2178"/>
  <outline>
    <contour>
      <point x="178" y="828"/>
      <point x="81" y="739"/>
      <point x="81" y="570" type="curve" smooth="yes"/>
      <point x="81" y="366"/>
      <point x="228" y="130"/>
      <point x="352" y="-30" type="curve"/>
      <point x="453" y="39" type="line"/>
      <point x="300" y="250"/>
      <point x="211" y="412"/>
      <point x="211" y="552" type="curve" smooth="yes"/>
      <point x="211" y="663"/>
      <point x="261" y="711"/>
      <point x="424" y="711" type="curve" smooth="yes"/>
      <point x="542" y="711"/>
      <point x="625" y="679"/>
      <point x="757" y="552" type="curve"/>
      <point x="756" y="691" type="line"/>
      <point x="655" y="788"/>
      <point x="563" y="828"/>
      <point x="411" y="828" type="curve" smooth="yes"/>
    </contour>
    <contour>
      <point x="-12" y="1247" type="line"/>
      <point x="-12" y="1143" type="line"/>
      <point x="674" y="1143" type="line"/>
      <point x="674" y="1247" type="line"/>
    </contour>
    <component base="kha-deva" xOffset="589"/>
  </outline>
</glyph>
<glyph name="t_s_va-deva" format="1">
  <advance width="2471"/>
  <outline>
    <contour>
      <point x="-12" y="1247" type="line"/>
      <point x="-12" y="1143" type="line"/>
      <point x="672" y="1143" type="line"/>
      <point x="672" y="1247" type="line"/>
    </contour>
    <contour>
      <point x="646" y="788"/>
      <point x="578" y="828"/>
      <point x="411" y="828" type="curve" smooth="yes"/>
      <point x="178" y="828"/>
      <point x="81" y="739"/>
      <point x="81" y="570" type="curve" smooth="yes"/>
      <point x="81" y="366"/>
      <point x="228" y="130"/>
      <point x="352" y="-30" type="curve"/>
      <point x="453" y="39" type="line"/>
      <point x="300" y="250"/>
      <point x="211" y="412"/>
      <point x="211" y="552" type="curve" smooth="yes"/>
      <point x="211" y="663"/>
      <point x="261" y="711"/>
      <point x="424" y="711" type="curve" smooth="yes"/>
      <point x="557" y="711"/>
      <point x="615" y="679"/>
      <point x="757" y="552" type="curve"/>
      <point x="756" y="691" type="line"/>
    </contour>
    <component base="s-deva" xOffset="629"/>
    <component base="va-deva" xOffset="1384"/>
  </outline>
</glyph>
